<svg xmlns="http://www.w3.org/2000/svg" viewBox="0 0 1120.27 396.71"><defs><style>.a{fill:#c01b22;}.b{fill:#3f3f3a;}</style></defs><path class="a" d="M2671.36,515.76c.06-3,2.43-3.86,3.79-5.34A711.73,711.73,0,0,1,2737,451a607.82,607.82,0,0,1,80.86-57.83,534.51,534.51,0,0,1,88.41-42.31c26.62-9.9,54-17.15,81.93-22.73a544.66,544.66,0,0,1,67.85-9.38,479,479,0,0,1,65.74-.7A497.71,497.71,0,0,1,3209,331.88c37.89,9.37,73.89,23.53,108.54,41.25a565.59,565.59,0,0,1,104.32,69,553.08,553.08,0,0,1,58.51,55.72,27,27,0,0,1,2.19,2.71c.22.32.13.86.27,2-6.75-5.65-13-10.95-19.28-16.11a540.64,540.64,0,0,0-80.46-54.06c-35-19.29-71.81-34.16-109.94-45.76-21.18-6.44-42.86-10.88-64.71-14.73a542,542,0,0,0-102.55-8.59,441.18,441.18,0,0,0-68.28,6.48c-30.56,5.3-60.37,13-89.3,24.25a534.22,534.22,0,0,0-79.22,38.39,593.32,593.32,0,0,0-93.8,69.38c-4.91,4.41-9.52,9.15-14.39,13.6-1.11,1-2,2.75-4.47,1.06-14.52-10-31.05-11.37-48-10.59C2695.39,506.5,2683,509.12,2671.36,515.76Z" transform="translate(-2654.44 -317.17)"/><path class="b" d="M2941.3,615c0,15.13.15,30.27,0,45.41-.34,26.93-15.2,47.47-43.18,52.3-17.54,3-34.46.52-49-10.84-8.5-6.66-12.67-16-14.55-26.46-.38-2.06,1.18-1.58,2.18-1.58,7.66,0,15.32,0,23,0,1.76,0,2.24.66,3.09,2.21,7.26,13.31,17.11,14,30.84,12.45,9.47-1,18.31-10.72,18.75-21.3.12-2.69,2-6.08-.19-7.82s-4.27,1.57-6.38,2.62c-8,4-16.65,6.68-25.38,6.69-15.2,0-28.71-5-39.2-16.92-8.13-9.29-13.49-19.51-15.28-31.84-2-14,2-26.36,9.6-37.67,8.57-12.69,20.81-20.56,35.87-22.74,14.68-2.13,29-.61,40.86,9.89,1.54,1.36,3.19,2.11,4.94,1.47,2.1-.77,1.12-3,.95-4.36-.46-3.85,1.05-4.79,4.7-4.55a131.16,131.16,0,0,0,15,0c3-.15,3.52,1,3.5,3.67C2941.24,582,2941.3,598.51,2941.3,615Zm-91.88-2.06A30.72,30.72,0,0,0,2880,644.41c16.65.21,30.92-13.74,31.21-30.5s-13.64-31.24-30.22-31.54A30.83,30.83,0,0,0,2849.42,612.92Z" transform="translate(-2654.44 -317.17)"/><path class="b" d="M2748,567.16h-4.5c-5.32,0-11,1.7-12.06-6.94-.46-3.64-4.92-6.28-9.26-7.19-7.87-1.65-15.79-1.95-23.52.22-4.7,1.32-8.53,4.12-9.2,9.75-.74,6.27,1.19,10.75,7.11,13.75,7.93,4,16.58,5.08,25,7.16,10.17,2.51,20.32,5.22,29.27,11,9.63,6.17,15.34,14.61,16.74,26.37,1.61,13.5-2.56,24.5-12.23,33.48-7.26,6.75-16.48,10.22-26,11.95-13.11,2.39-26.47,2.81-39.47-.86-19.32-5.45-32.15-17.18-35.41-38.77-.34-2.21.2-3.26,2.81-3.2,8,.16,16,.07,24,0,1.62,0,2.94.19,3.17,2.25.93,8.42,6.62,12.68,14,14.9a47.17,47.17,0,0,0,28.34-.29c7.62-2.42,11.29-6.92,11.29-14.36,0-6.45-3.24-11.09-9.41-13.69-11.66-4.9-24.12-7-36.16-10.58-8-2.36-15.83-5.15-22.29-10.64-11.2-9.49-12.45-21.51-9.06-35,4.13-16.35,15.71-24.59,30.89-28.18s30.77-4.19,45.8,1.64c13.7,5.31,22.3,15,24.64,29.78,1.18,7.42,1.12,7.43-6.47,7.43Z" transform="translate(-2654.44 -317.17)"/><path class="a" d="M3771.45,562c-8.89,11.16-17,21.57-25.35,31.74-8.73,10.63-8.89,10.56-1.65,22.21,9.17,14.76,18.42,29.46,27.61,44.2.85,1.37,1.55,2.83,2.65,4.86-11.24,0-21.83,0-32.43,0-2.86,0-3.35-2.54-4.36-4.24-6.38-10.86-12.7-21.75-18.82-32.76-2-3.53-3.29-4.09-5.82-.48a95.39,95.39,0,0,1-8.31,9.89,10,10,0,0,0-2.81,7.66c.18,5.32-.12,10.65,0,16,.07,2.92-.79,4.09-4,4q-10.72-.35-21.48,0c-3.25.1-4.14-.91-4.12-4.17.13-23.3.06-46.61.05-69.91,0-20.8.12-41.61-.09-62.42,0-3.8,1-4.75,4.68-4.58,7,.31,14,.22,21,0,2.93-.08,4.05.54,4,3.78-.17,23-.16,45.9-.13,68.85,0,2.72-1.06,7,1.06,7.75,2.63.92,3.88-3.29,5.52-5.36,9.05-11.37,17.92-22.9,26.79-34.41,1.27-1.65,2.46-2.71,4.81-2.67C3750.29,562.07,3760.28,562,3771.45,562Z" transform="translate(-2654.44 -317.17)"/><path class="b" d="M3360.09,613.56c0,15.64-.12,31.28.08,46.92,0,3.38-.59,4.72-4.25,4.47a102.46,102.46,0,0,0-15,0c-4.17.34-5.74-.92-5.14-5.1.16-1.11.81-2.78-.66-3.54s-2.35.63-3.39,1.43c-11.56,8.93-24.89,12-39,9.94-18.38-2.6-32.64-12.12-40.55-29.2-8.56-18.51-7.69-37.13,2.55-54.88,14.53-25.2,51.14-32.36,72.91-17,.92.65,2.1.92,3.08,1.5,4.9,2.92,5.2,2.89,5-2.45-.09-3.18.93-3.92,3.94-3.79a156,156,0,0,0,16.47,0c3.56-.22,4,1.26,4,4.26C3360,582,3360.09,597.76,3360.09,613.56Zm-28.93-.13c0-17.56-13.72-31.16-31.38-31-16.62.12-29.83,14.05-29.88,31.51a30.63,30.63,0,1,0,61.26-.48Z" transform="translate(-2654.44 -317.17)"/><path class="a" d="M3572.87,597.47c-.66,9.82,1.19,21.84-1,33.72-4.13,22-17.42,33.48-39,36.74-12.18,1.84-24.12,1.27-35.62-2.91-18.27-6.65-27.17-20.92-28.08-39.52-1-20.09-.24-40.25-.39-60.38,0-2.85,1.16-3.23,3.55-3.18,7,.12,14,.31,21-.05,4.18-.22,5.44,1.23,5.39,5.22q-.22,22.95-.06,45.91c0,5.61-.1,11.21,1.38,16.81,3.23,12.15,15,15.37,24.65,13.46,14.09-2.79,19-9.51,19.18-24.89q.23-25.71,0-51.41c0-3.74.69-5.33,4.87-5.1,6.8.37,13.65.26,20.46,0,3.21-.11,3.9,1,3.85,4C3572.77,575.73,3572.87,585.54,3572.87,597.47Z" transform="translate(-2654.44 -317.17)"/><path class="b" d="M3010.67,667.93c-31.45.85-54.43-25.27-54.48-54.16-.05-30.59,23.79-55.58,55.25-55,32.3.57,54.61,24.41,54.49,54.87C3065.81,644.65,3042.67,668.57,3010.67,667.93Zm31-54c.37-17.28-12.73-31.14-29.82-31.57-16.91-.42-31.4,13.52-31.72,30.5s13.8,31.42,30.66,31.6S3041.29,631.28,3041.67,614Z" transform="translate(-2654.44 -317.17)"/><path class="a" d="M3414.48,529.07c15.48,0,31,.13,46.43-.08,4-.06,5.32,1.08,5.09,5.08a148.16,148.16,0,0,0,0,16.46c.19,3.56-.59,4.91-4.53,4.76-9-.34-18,0-26.95-.16-3.38-.06-4.61,1-4.67,4.57-.54,33.73-1.32,67.47-1.81,101.2-.05,4-1.14,5.17-5.08,5-7.15-.31-14.31-.17-21.47-.06-2.52,0-3.6-.72-3.54-3.4.52-24.6.77-49.21,1.54-73.8.31-10,.19-19.95.53-29.92.12-3.67-2.15-3.5-4.53-3.51-9.81,0-19.64-.18-29.45,0-3.3.07-4.27-.88-4.12-4.14a152.31,152.31,0,0,0,0-17c-.27-4.13,1.38-5.13,5.14-5.1,15.81.13,31.62.06,47.43.06Z" transform="translate(-2654.44 -317.17)"/><path class="b" d="M3206.23,609.61c0,6.32-.2,12.65.06,19,.29,7.11,4.59,13.6,13.95,13.33,4.82-.14,9.66.09,14.48-.07,2.45-.09,3.56.39,3.45,3.2-.23,6-.16,12-.06,18,0,2.08-.46,2.94-2.74,2.9-11-.2-22.1.5-33-1.95-13.15-3-22.65-13.83-24.29-27.41-1.82-15.07-.54-30.15-.83-45.21-.06-3.38-.71-4.6-4.33-4.49-3.89.12-9.13,1.93-11.39-.85-1.9-2.34-.61-7.33-.6-11.14,0-4.12-1.27-9.34.74-12.05s7.47-.83,11.41-.82c2.93,0,3-1.42,3.13-3.69.3-7.59-.8-15.2.69-22.8.46-2.34,1.33-2.5,3.17-2.49,7.65,0,15.31.13,23-.08,2.87-.08,3.19,1.13,3.15,3.51-.12,7.31.08,14.64-.1,22-.06,2.82.8,3.72,3.65,3.66,7.65-.18,15.31.07,23-.12,2.88-.07,3.66.84,3.57,3.63-.2,6-.23,12,0,18,.11,2.94-1,3.57-3.67,3.51-7.16-.18-14.33.22-21.46-.17-4.34-.23-5.3,1.3-5.06,5.32.35,5.8.09,11.63.09,17.45Z" transform="translate(-2654.44 -317.17)"/><path class="a" d="M3589,612.83c0-15.47.09-30.94-.07-46.41,0-3.39.76-4.76,4.39-4.54a108.39,108.39,0,0,0,15,0c4-.31,5.09,1.23,4.5,4.79a1.2,1.2,0,0,0,0,.5c.38,1.85-1,4.5,1,5.41,1.56.68,3.12-1.46,4.52-2.54,11.56-8.94,25.08-8.39,38.56-8.08,1.64,0,1.85.92,1.85,2.25,0,6.82-.06,13.64,0,20.46,0,2-.71,2.53-2.59,2.57-4.15.07-8.3.5-12.46.55-15.91.19-24.8,11.85-24.9,25.78-.1,15.63-.21,31.28,0,46.91.07,3.9-1.14,4.74-4.72,4.6-6.81-.26-13.66-.35-20.47,0-3.88.19-4.86-1.21-4.77-4.79.2-8,.09-16,.09-24q0-11.73,0-23.46Z" transform="translate(-2654.44 -317.17)"/><path class="b" d="M3079.94,613.1c0-15.64.13-31.28-.08-46.91-.05-3.6,1-4.51,4.46-4.29a98.69,98.69,0,0,0,14,0c4.17-.32,5.45,1.36,4.9,5.17a5,5,0,0,0,0,1.49c.22,1.4-.72,3.29.75,4.11,1.75,1,3.11-.89,4.22-1.8,11.55-9.52,25.25-9.23,39-8.91,2,0,2,1.23,1.95,2.62,0,6.49-.11,13,.05,19.47.07,2.48-.84,3-3.14,3-5.62,0-11.23-.23-16.84.84-11.69,2.24-19.92,11.54-20,23.51q-.18,24.71,0,49.41c0,3.25-.81,4.23-4.09,4.11-7.15-.25-14.32-.26-21.47,0-3.21.11-3.83-1-3.8-3.93C3080,645.05,3079.94,629.07,3079.94,613.1Z" transform="translate(-2654.44 -317.17)"/><path class="b" d="M2810.48,615.93c0,15-.09,29.92.07,44.87,0,3.17-.7,4.28-4.07,4.15-7.14-.28-14.3-.19-21.45,0-2.62.05-3.74-.4-3.73-3.43q.18-45.63,0-91.24c0-2.56.59-3.45,3.29-3.38,7.48.18,15,.21,22.44,0,3-.09,3.5,1,3.48,3.7C2810.42,585.69,2810.48,600.81,2810.48,615.93Z" transform="translate(-2654.44 -317.17)"/><path class="a" d="M3521.26,522.76c1.29,4,2.72,8,3.81,12.15.79,3,2.12,4.45,5.52,4.19,4.4-.34,8.85-.09,14.12-.09-3.47,4.27-7.75,6.17-11.28,9-2.3,1.8-3.07,3.5-2,6.34,1.56,4.31,2.76,8.75,4.45,14.23-4.37-3.25-8.15-5.7-11.5-8.65-2.7-2.38-4.71-2.17-7.33,0-3.26,2.73-6.83,5.09-10.62,7.88.15-5.24,2.26-9.41,3.8-13.67,1-2.73.45-4.29-1.74-5.9-3.79-2.78-8-5-12.14-9.19,5.61,0,10.32-.1,15,0,2.71.08,4.12-.65,4.79-3.63,1-4.3,2.69-8.44,4.1-12.64Z" transform="translate(-2654.44 -317.17)"/><path class="b" d="M2795.92,558.27A14.53,14.53,0,0,1,2781.38,544c0-7.49,7-14.74,14.41-14.84,7.06-.09,14.62,7.47,14.69,14.69C2810.55,551.53,2803.79,558.23,2795.92,558.27Z" transform="translate(-2654.44 -317.17)"/></svg>