<svg xmlns="http://www.w3.org/2000/svg" viewBox="0 0 191.58 215.05">
    <defs>
        <style>.a,.b{fill:red;}.a{fill-rule:evenodd;}</style>
    </defs>
    <path class="a" d="M0,11.22S102.5-26.53,156.25,36.47c0,0,62.75,59,21,146.25,0,0,10-65-38.25-72.25,0,0-6-48.25-58.5-58.5,0,0-1.75-41.5-61.75-38,0,0,43.75,21.75,40.25,69,0,0,19.75,2.5,22.5,7l-4.25,5.25s-6-4.75-26-6.25C51.25,89,66,42.72,0,11.22Z" transform="translate(0 0)"/>
    <path class="b" d="M5.5,198c-3.75-12.42,5.25-21,5.25-21l99.5-99.5c8.83-2.17,7.08,5.42,7.08,5.42L16,184.55c-8.17,15.67,6.17,20.17,6.17,20.17,10.66,3.5,15.83-4.5,15.83-4.5,7.33-.67,5.5,6.17,5.5,6.17-2.5,4.5-10.75,7.08-10.75,7.08a41.7,41.7,0,0,1-5.8.43C7.6,213.9,5.5,198,5.5,198ZM153.67,34.22,176.5,11.55s7.33-2.16,6.17,5.84L160,40.39S155.83,35.22,153.67,34.22Z" transform="translate(0 0)"/>
    <path class="a" d="M110.5,109.05l59.83,60H152.67l-42.17-43L67.67,168.72h-17Z" transform="translate(0 0)"/>
    <path class="a" d="M110.5,133.39l42.83,42.16v39.5H121.5V176.22H99v38.67H67.67V175.72Z" transform="translate(0 0)"/>
</svg>
