<svg xmlns="http://www.w3.org/2000/svg" viewBox="0 0 191.58 214.51"><defs><style>.a,.b{fill:red;}.a{fill-rule:evenodd;}</style></defs><path class="a" d="M0,11.22S102.5-26.53,156.25,36.47c0,0,62.75,59,21,146.25,0,0,10-65-38.25-72.25,0,0-6-48.25-58.5-58.5,0,0-1.75-41.5-61.75-38,0,0,43.75,21.75,40.25,69,0,0,19.75,2.5,22.5,7l-4.25,5.25s-6-4.75-26-6.25C51.25,89,66,42.72,0,11.22Z" transform="translate(0 0)"/><path class="b" d="M5.5,198c-3.75-12.42,5.25-21,5.25-21l99.5-99.5c8.83-2.17,7.08,5.41,7.08,5.41L16,184.55c-8.17,15.67,6.17,20.17,6.17,20.17,10.66,3.5,15.83-4.5,15.83-4.5,7.33-.67,5.5,6.17,5.5,6.17-2.5,4.5-10.75,7.08-10.75,7.08a41.7,41.7,0,0,1-5.8.43C7.6,213.9,5.5,198,5.5,198ZM153.67,34.22,176.5,11.55s7.33-2.16,6.17,5.84L160,40.39S155.83,35.22,153.67,34.22Z" transform="translate(0 0)"/><path class="a" d="M67.36,186.16l-12.7-.11,12.19-3.17-8.71-15.23,2.35,0,16,8.69,31.61-15.94,1.65-1.2-8.28-11.56L88.82,133.23l-6.46-6.53,4.36-1.48L116,143.1a15.65,15.65,0,0,1,7.8-5.53c4.72,1.5,1.64,4.68,1.64,4.68l-5.59,3.68,5.83,4.58c32.71-20.06,34.78-8.71,34.78-8.71,2.82,8.31-28.87,20.25-28.87,20.25l-5.1,11.65,6-4.34c4-2.1,4.46,4.79,4.46,4.79-2.14,2.7-9,3.12-9,3.12l-2.5.52-8.54,34.46-4.35,2.26.69-34.71.16-.1-.77-9.08.38-.2c-5.45,2.44-34.37,13.83-34.37,13.83l-4.72,19-3.26,2.09-1.22-17.54Z" transform="translate(0 0)"/></svg>