<?xml version="1.0" encoding="utf-8"?>
<!-- Generator: Adobe Illustrator 24.1.1, SVG Export Plug-In . SVG Version: 6.00 Build 0)  -->
<svg version="1.1" id="Layer_1" xmlns="http://www.w3.org/2000/svg" xmlns:xlink="http://www.w3.org/1999/xlink" x="0px" y="0px"
	 viewBox="0 0 841.9 595.3" style="enable-background:new 0 0 841.9 595.3;" xml:space="preserve">
<style type="text/css">
	.st0{fill:#E52822;}
	.st1{fill:#E52521;}
</style>
<path class="st0" d="M65.5,255.6c0-0.5,0.4-0.6,0.6-0.8c3.1-3.3,6.3-6.4,9.7-9.4c4-3.4,8.3-6.4,12.7-9.1c4.4-2.6,9.1-4.9,13.9-6.7
	c4.2-1.6,8.5-2.7,12.9-3.6c3.5-0.7,7.1-1.2,10.7-1.5c3.4-0.3,6.9-0.3,10.4-0.1c4.6,0.3,9.2,1,13.7,2.2c6,1.5,11.6,3.7,17.1,6.5
	c5.9,3,11.4,6.7,16.4,10.9c3.3,2.7,6.4,5.6,9.2,8.8c0.1,0.1,0.2,0.3,0.3,0.4c0,0.1,0,0.1,0,0.3c-1.1-0.9-2-1.7-3-2.5
	c-4-3.2-8.2-6.1-12.7-8.5c-5.5-3-11.3-5.4-17.3-7.2c-3.3-1-6.8-1.7-10.2-2.3c-5.3-1-10.7-1.4-16.2-1.4c-3.6,0.1-7.2,0.4-10.8,1
	c-4.8,0.8-9.5,2-14.1,3.8c-4.3,1.7-8.5,3.7-12.5,6c-5.3,3.1-10.2,6.8-14.8,10.9c-0.8,0.7-1.5,1.4-2.3,2.1c-0.2,0.2-0.3,0.4-0.7,0.2
	c-2.3-1.6-4.9-1.8-7.6-1.7C69.3,254.2,67.4,254.6,65.5,255.6z"/>
<path class="st1" d="M130.5,249.5c1.8,5.7,3.9,11.4,5.4,17.3c1.1,4.3,3,6.3,7.8,6c6.2-0.5,12.6-0.1,20.1-0.1
	c-4.9,6.1-11,8.8-16,12.8c-3.3,2.6-4.4,5-2.8,9c2.2,6.1,3.9,12.4,6.3,20.2c-6.2-4.6-11.6-8.1-16.3-12.3c-3.8-3.4-6.7-3.1-10.4,0
	c-4.6,3.9-9.7,7.2-15.1,11.2c0.2-7.4,3.2-13.4,5.4-19.4c1.4-3.9,0.6-6.1-2.5-8.4c-5.4-3.9-11.4-7.1-17.2-13.1c8,0,14.7-0.1,21.3,0
	c3.8,0.1,5.9-0.9,6.8-5.2c1.4-6.1,3.8-12,5.8-18L130.5,249.5z"/>
</svg>
