<?xml version="1.0" encoding="utf-8"?>
<!-- Generator: Adobe Illustrator 24.1.1, SVG Export Plug-In . SVG Version: 6.00 Build 0)  -->
<svg version="1.1" id="Layer_1" xmlns="http://www.w3.org/2000/svg" xmlns:xlink="http://www.w3.org/1999/xlink" x="0px" y="0px"
	 viewBox="0 0 841.9 595.3" style="enable-background:new 0 0 841.9 595.3;" xml:space="preserve">
<style type="text/css">
	.st0{fill:#010202;stroke:#FFFFFF;stroke-width:3;stroke-miterlimit:10;}
	.st1{fill:#FFFFFF;stroke:#000000;stroke-width:0.5;stroke-miterlimit:10;}
	.st2{fill:#FFFFFF;stroke:#000000;stroke-width:7;stroke-miterlimit:10;}
	.st3{fill:#010202;}
</style>
<g>
	<g>
		<g>
			<ellipse class="st0" cx="438.1" cy="166.8" rx="114.8" ry="125.6"/>
			<ellipse class="st1" cx="438.1" cy="166.8" rx="92.2" ry="100.8"/>
			<ellipse class="st2" cx="399.6" cy="166.8" rx="32.8" ry="35.8"/>
		</g>
		<path class="st3" d="M825.5,125.4v-19.2c0-2.7-2.2-4.9-4.9-4.9H532.4v24.1v106.8h38v-23.4h23.8h27.4c4.3,0,7.9-3.5,7.9-7.9v-15.7
			l19,33.7h19.2l11.3-28.8l22.8-1.5l10.3,20.2h13.9l8.3-17.3l18.4-1.7l13.1,29.3l17.6,1.1l38-73.2l-191.9-2.2h-35.3h-23.8v-19.2
			H825.5z"/>
	</g>
	<g>
		<path class="st3" d="M249.1,595.3c-23.7,0-47.4,0-71.1,0c-1.7-3.1-1.6-6.6-2.2-10c-1.2-6.5-1.1-13.4-4.1-19.4
			c-0.9-6.1-3.3-11.7-4.9-17.5c-0.7-2.4-1.4-4.7-1.9-7.2c-2-9.4-4.4-18.7-6.7-28.1c-0.4-1.4-1-3.3-2.5-3.6c-1.9-0.4-2.3,1.8-2.6,3.1
			c-3.3,12.6-6.5,25.3-9.8,38l0.1,0c-2.6,2.1-2,5.5-2.7,8.3c-2.1,3.1-1.4,6.9-1.7,10.4c-1.4,1.4-1.6,3.3-2.1,5.2
			c-1.8,7.1-3.5,14.2-6.3,20.9c-21.2,0-42.3,0-63.5,0c-0.4-1.6-0.7-3.1-1.1-4.7c0-1.2-0.1-2.3-0.1-3.5c0-0.8,0-1.6-0.1-2.4
			c-0.4-15,2-29.7,2.3-44.7c0.7-2.7,1.4-5.4,0.2-8.1c1.5-8.7-0.4-17.3-0.3-26c0-6.7-0.6-13-3-19.1c0-3.5-1.1-7.5,0.2-10.3
			c3.4-7.6,2.3-15.5,3-23.3c0.5-4.8-0.6-8.3-4.1-10.9c-0.1-1-0.2-2-1.2-2.5c0,0,0.1,0.1,0.1,0.1c-2.7-6.2-6.2-11.8-11-16.4
			c-2.6-15.8-10.3-29.2-16.3-43.5c-0.1-0.4-0.1-0.8-0.2-1.2c0.2-0.8-0.2-1.1-0.8-1.2c-1-2.4-2-4.7-3-7.1c-0.1-2.3-0.5-4.5-2.3-6l0,0
			c-2.9-9.5-5.8-19-8.6-28.4c-1.4-4.9-2.8-9.7-4.3-14.6c-2.1-7.1-3.1-14.2-1.3-21.5c3.6-12.8,7.7-25.5,9.5-38.8
			c3.6-10.5,2.5-23.3,9.1-32c8.7-11.4,8.2-28.3,19.9-37.5c0.8-0.6,1.1-2,1.4-3.1c3.3-10.9,10.7-17.5,19.8-22.3
			c9.6-5,19.4-9.4,28.8-14.9c5.7-3.3,11.5-6,17.5-8.5c12.5-5.2,20.2-17.9,12.5-32.2c0.2-0.6,0.1-1.1-0.5-1.4
			c-2-5.8-4.1-11.6-6.1-17.4c-0.2-7-3.1-13.3-4.1-20.1c0.2-4.1-0.2-8.1,0.8-12.2c1.2-4.5,2.8-8.9,2.5-13.7c1.8-4.6,3.4-9.3,5.3-13.9
			c3.6-8.8,11.3-11.7,18.6-15.1c0.7-0.5,1.4-1,2.1-1.6c0.3-0.1,0.7-0.2,1-0.3c8.2-1.9,16.5-0.3,24.8-1c1.3,0.5,2.6,0.9,4,1.4
			c0.8,2.3,2.9,2.5,4.5,3.5c5.7,3.9,11.5,7.8,17.2,11.6c3.5,6.7,8,12.8,8.7,20.9c-3.2,4.4-5.1,9.1-3.3,14.9
			c1.5,4.8,3.1,10.3,0.5,14.8c-3.6,6.1-2.7,11.7-0.5,17.7c-0.2,1.9,0.2,4.2-0.6,5.7c-3,5.9-4,12.5-5.8,18.8
			c-1.8,6.2-1,13.3-6.3,18.2c-1.4,1.3,0.3,3.1,1.3,3.9c11.7,9.1,22.1,20.9,38.8,18.6c6.4-0.9,13.3,2.4,18.3,7.4
			c3.4,3.4,6.8,6.7,10.6,9.7c7.8,6.3,15.3,13.1,21.1,21.5c6.5,9.4,13.8,17.6,22.5,24.4c1.4,2.9,4.1,4.4,6.4,6
			c6.2,4.2,12.1,9.2,19.6,10.5c5.8-2.4,10.4-6.4,14.1-11.8c3.6-1.1,6.4-3.4,8.2-7c4-4.3,6.9-10.2,13.8-9.6c1.5,0.1,2.4-1.7,2.8-3.2
			c2-6.3,6-11.4,9-17.2l-0.1-0.1c0.3-0.5,0.6-1,0.9-1.5c0.2-0.4,0.5-0.8,0.7-1.3c0.5-0.8,1.1-1.6,1.6-2.4c0.2-0.4,0.4-0.7,0.6-1.1
			c1.4-1.2,2-2.9,2.4-4.7c0,0-0.1,0.1-0.1,0.1c0.9-1.8,1.7-3.6,2.6-5.4l0,0c2-3.7,3.8-7.5,5.9-11.1c1.2-2.1,2.4-5.9,5.3-4.2
			c3,1.7,0.7,4.7-0.2,7.1c-1.8,4.8-3.9,9.6-5.3,14.5c-1.5,5.2,0.1,6.8,4.8,5.1c2.8-1,4.4,0.2,4.8,2.7c1.2,7.6-2.1,15-0.9,22.7
			c0.2,1.3-1.2,3.2-2.1,4.5c-2,3-4.3,5.8-7.2,7.7c-2.1,1.4-3.2,3.4-2.4,5.9c2.3,6.4-0.7,10.3-4.8,14c-2.2,1.9-4.2,4.2-6.2,6.3
			c-2.5,2-4.8,4.2-6.2,7.2c-3.1,5.9-7.1,11.1-11,16.4c-2.9,3.1-5.7,6.1-8.6,9.2c-6.3,8.8-14.1,13.6-24.7,11.9c-4.8-2-9.4-4.5-14.3-6
			c-7.9-2.3-15.1-6.4-22.1-10.3c-15.1-8.5-28.6-20-40.8-33.1c-5.4-5.8-8.8-5-11.4,2.9c-4.8,14.7-5.3,30.3-7.2,45.7
			c-1.1,7.3-1,14.7-1,22.1c-0.1,1.2-0.2,2.4-0.3,3.6c-1.5,4.6-3,9.2-4.5,13.8l-0.1,0.1c-1.7,1.5-1.9,3.7-2.1,5.8l0,0
			c-2.1,2.9-3.3,6.1-2.4,9.9c0,0,0,0.2,0,0.2c0.9,4.2,1.8,8.3,2.8,12.5c0.8,8.6,1.5,17.2,2.3,25.9c-0.1,8.5-1.6,17.5,5.9,23.8
			c7,13.4,11.6,27.5,10.8,43.3c-2.4,5.8-2.4,11.6-0.8,17.6c0.6,8.7,0.7,17.3-0.9,25.9c0.1,9.5-0.2,18.9,1,28.4
			c1.3,10.7,0.8,21.8,1.1,32.7c-0.1,5.9-0.1,11.8-0.2,17.7C249.1,585.9,249.1,590.6,249.1,595.3z M85.9,331.2
			c-0.1-9.4-0.1-18.7-0.2-28.1c1-1.8,0.5-3.6-0.1-5.3c0.1-9.3-1.4-18.2-5.1-26.5c-0.7-1.5-1.5-3.7-3.2-3.4c-1.5,0.2-1.9,2.4-2.7,3.9
			c-5.5,10.5-3.7,23.9-11.4,33.4c-1.2,1.5-0.2,2.8,0.4,4.2c2.9,7.4,6.1,14.7,5,23.1c0,0.2,0.1,0.4,0.2,0.5
			c4.7,17.9,11.1,35.2,17.3,53.7c1-10.2,1.8-19.2,1.6-28.2C87.4,349.4,87.4,340.2,85.9,331.2z"/>
	</g>
</g>
</svg>
