<?xml version="1.0" encoding="utf-8"?>
<!-- Generator: Adobe Illustrator 24.1.1, SVG Export Plug-In . SVG Version: 6.00 Build 0)  -->
<svg version="1.1" id="Layer_1" xmlns="http://www.w3.org/2000/svg" xmlns:xlink="http://www.w3.org/1999/xlink" x="0px" y="0px"
	 viewBox="0 0 173.5 154.3" style="enable-background:new 0 0 173.5 154.3;" xml:space="preserve">
<style type="text/css">
	.st0{fill:#FF0000;}
	.st1{fill:none;}
	.st2{fill:none;stroke:#000000;stroke-width:0.1;}
	.st3{fill:none;stroke:#000000;stroke-width:2;}
	.st4{fill:none;stroke:#000000;stroke-width:2;stroke-linecap:round;stroke-linejoin:round;}
</style>
<g transform="translate(-92 -362)">
	<path class="st0" d="M245.5,371.7c-2-5.8-7.5-9.8-13.7-9.7H125.7c-6.2,0-11.7,3.9-13.7,9.7L92,429.5v77.1c0,5.3,4.3,9.6,9.6,9.6
		h9.6c5.3,0,9.6-4.3,9.6-9.6V497h115.7v9.6c0,5.3,4.3,9.6,9.6,9.6h9.6c5.3,0,9.6-4.3,9.6-9.6v-77.1L245.5,371.7z M125.7,468.1
		c-8,0-14.5-6.5-14.5-14.5c0-8,6.5-14.5,14.5-14.5s14.5,6.5,14.5,14.5l0,0C140.2,461.6,133.8,468,125.7,468.1
		C125.8,468.1,125.8,468.1,125.7,468.1z M231.8,468.1c-8,0-14.5-6.5-14.5-14.5c0-8,6.5-14.5,14.5-14.5c8,0,14.5,6.5,14.5,14.5
		C246.3,461.6,239.8,468,231.8,468.1C231.8,468.1,231.8,468.1,231.8,468.1L231.8,468.1z M111.3,419.8l14.5-43.4h106.1l14.5,43.4
		H111.3z"/>
	<g transform="translate(185 404)">
		<circle class="st1" cx="1" cy="1" r="1"/>
		<circle class="st2" cx="1" cy="1" r="1"/>
	</g>
	<g transform="translate(184 403)">
		<circle class="st1" cx="2" cy="2" r="2"/>
		<circle class="st3" cx="2" cy="2" r="1.8"/>
	</g>
	<path class="st4" d="M186.5,405l-0.4-9.8l9.3-8.3l-3.8-9.8"/>
	<path class="st4" d="M185,404.3l-6.8-8.2l-13-0.5l-4.3-10.5"/>
	<path class="st4" d="M186,404.7l10.5-1.9l10.3,8l10.1-5.3"/>
	<path class="st4" d="M154,404.7l10.5-1.9l10.3,8l10.1-5.3"/>
</g>
</svg>
