<?xml version="1.0" encoding="utf-8"?>
<!-- Generator: Adobe Illustrator 24.1.1, SVG Export Plug-In . SVG Version: 6.00 Build 0)  -->
<svg version="1.0" id="Layer_1" xmlns="http://www.w3.org/2000/svg" xmlns:xlink="http://www.w3.org/1999/xlink" x="0px" y="0px"
	 viewBox="0 0 841.9 595.3" enable-background="new 0 0 841.9 595.3" xml:space="preserve">
<g id="AG-OUTLINE">
</g>
<g transform="translate(0.000000,753.000000) scale(0.100000,-0.100000)">
	<path fill="#272121" d="M5399.4,6753c-29.5-1.2-138-4.9-241.6-8.6c-103.1-3.7-293.2-9.2-421.5-12.3
		c-175.6-4.3-254.5-8.6-316.8-17.9c-80.5-11.7-156.8-17.9-397.3-31.4c-63.4-3.7-211-19.1-327.5-33.9
		c-208.3-26.5-334-38.8-520.8-52.4c-156.3-11.1-341.5-37.6-585.3-83.2c-63.4-11.7-197.6-35.7-298-52.4
		c-325.9-55.5-482.7-93.7-593.3-144.8c-98.8-45.6-126.7-67.8-224.4-181.8c-90.2-104.7-105.8-129.4-99.9-159
		c8.1-38.2,49.4-78.9,94.5-94.9c11.3-3.7,20.4-9.2,20.4-12.3c0-2.5-14.5-38.2-31.7-78.3c-21.5-48.1-35.4-73.9-42.4-75.8
		c-17.7-5.5-29.5-33.3-28.5-67.2c0.5-23.4-2.7-37-12.9-57.9c-25.8-49.9-29.5-48.7-29.5,13.6c0,61.6-9.7,107.2-27.4,128.8
		c-11.3,13.6-12.3,14.2-26.3,4.3c-23.6-16-33.8-42.5-36.5-95.5c-2.1-44.4-3.2-48.1-12.9-44.4c-14.5,4.9-25.8-8-25.2-30.8
		c0-17.3,0.5-17.9,4.8-5.5c3.2,8.6,11.3,14.8,23.6,17.3c21.5,4.9,24.7,12.9,24.7,72.1c0,49.3,6.4,71.5,22.6,78.3
		c15,6.2,23.6,3.1,28.5-10.5c2.7-8.6,2.1-9.2-3.2-2.5c-11.3,12.3-26.3,8.6-31.7-8.6c-7.5-22.8-6.4-82.6,3.2-162
		c8.1-69.6,7-111.5-3.8-92.4c-2.7,4.3-4.8,22.8-4.8,39.4c-0.5,39.4-10.7,73.3-22.6,75.8c-7.5,1.8-9.7-1.8-9.7-17.3
		c0-17.3,1.1-19.1,8.1-12.3c4.8,4.3,9.1,6.8,10.2,5.5c1.1-1.2,4.3-29,7-61c4.8-53.6,4.3-60.4-4.8-78.3
		c-5.9-11.1-12.9-20.3-15.6-20.3c-2.7,0-5.4,18.5-5.9,41.9c-1.1,37.6-1.1,36.4-3.8-17.3l-3.2-58.5l-4.3,49.3
		c-12.3,144.2-14,150.3-11.8,40.1l2.1-107.2l-16.1-29c-8.6-16-25.2-36.4-37-45.6c-29-22.8-51.5-65.9-63.4-120.8
		c-5.9-25.3-14.5-56.7-19.3-70.2c-5.4-13.6-15-55.5-22-93s-30.1-146.6-50.5-243.4c-20.9-96.1-43-209.5-48.9-252
		c-7-48.1-17.2-91.8-26.8-117.1c-24.2-61.6-29.5-98.6-29-200.3c0-73.9,2.7-103.5,12.3-147.9c6.4-30.2,15.6-102.3,19.9-160.2
		c3.8-57.3,9.7-130,12.9-161.4c9.7-103.5,8.6-113.4-17.7-147.3c-34.9-45-44-62.2-65.5-122.6c-29-80.1-56.4-277.3-49.4-350
		c13.4-128.8,132.6-381.4,236.8-500.9c144.4-166.4,384.5-268.6,686.2-292.7c196.5-16,395.2,18.5,587.4,100.4l90.7,38.2l36.5,43.1
		c32.2,37.6,41.9,55.5,75.7,136.2l39.2,92.4l11.8-42.5c45.6-162.7,153.6-298.2,290-364.1c186.3-90,397.3-57.3,594.4,93.7
		c182,138.6,265.3,306.2,280.3,566.2l3.8,67.8l61.7-41.9c52.6-35.7,65-41.9,84.3-40.7c12.3,0.6,25.8-2.5,30.1-6.8
		c6.4-5.5,16.1-6.2,42.4-0.6c53.7,10.5,185.8,49.9,374.8,110.9c96.1,30.8,328.1,100.4,515.5,154.7
		c338.8,98,744.8,220.6,1001.4,301.3c74.1,23.4,193.3,59.8,265.3,81.3c115.4,33.9,133.7,40.7,152,58.5
		c11.8,11.1,23.1,20.3,25.8,20.3c2.1,0,5.4-11.7,7-25.3c9.1-79.5,80-175,165.4-223.7c66-37.6,114.4-49.3,184.7-44.4
		c96.7,6.2,179.9,43.1,267.4,118.3c94.5,81.3,170.8,207,213.2,351.8c17.7,61,32.2,148.5,32.2,193.5c0,16.6,2.1,30.2,4.8,30.2
		c2.1,0,35.4-14.2,73-31.4c37.6-17.3,73-29.6,78.4-28.3c12.4,3.7,12.4,0.6,2.1-32.7c-10.2-32.7-10.2-92.4-0.5-118.9
		c9.7-26.5,34.4-51.1,55.3-56.7c23.1-5.5,82.2,13.6,155.7,50.5c66.6,33.3,100.9,67.8,127.8,129.4c32.2,72.7,18.8,131.2-49.4,211.3
		l-39.7,46.2l13.4,83.2c41.9,260,58.5,506.5,59.6,878c0.5,216.9,2.1,289,7.5,307.5c10.7,35.1,3.8,104.1-13.4,132.5
		c-10.7,18.5-12.9,29.6-12.9,66.5c0,130-56.4,449.2-102,577.3c-22,63.5-25.2,77.6-16.1,77.6c7.5,0,6.4,24.6-1.6,42.5
		c-4.3,9.9-16.1,18.5-33.8,25.3c-14.5,5.5-43.5,22.8-64.4,38.2c-187.4,142.3-519.2,240.9-1002.5,298.8c-66,8-165.4,9.9-524.6,11.1
		C5652.3,6754.2,5428.9,6753.6,5399.4,6753z M6222.5,6701.2c389.3-18.5,769.5-96.1,1007.9-204.6c100.4-46.2,196-106.6,196-123.8
		c0-6.2-44-12.3-162.2-24.6c-89.7-9.9-225.5-24-302.3-32c-142.3-15.4-656.2-70.2-1184-126.3c-161.1-17.3-343.1-36.4-405.4-43.1
		c-61.7-6.8-243.8-25.9-403.8-43.1c-160.5-16.6-422.6-45-582.6-61.6c-160.5-17.3-421.5-45-579.9-61.6
		c-158.9-17.3-419.4-44.4-578.8-61.6c-159.5-16.6-419.9-45-578.3-61.6c-274.9-29.6-296.9-30.8-458.6-30.8
		c-179.9,0-259.9,4.9-402.2,25.3c-209.9,29.6-349.6,77.6-364.6,124.5c-6.4,19.7,2.1,36.4,29.5,56.1c13.4,9.9,30.6,27.7,38.7,40.1
		c66.6,102.9,138,164.5,237.3,203.3c141.8,56.1,650.2,159.6,1118.5,228.6c150.3,22.2,400,51.1,554.1,64.7
		c62.3,5.5,187.9,19.7,279.2,31.4c91.8,11.7,217.5,24,279.2,27.1c62.3,3.7,162.2,10.5,222.8,15.4s142.8,10.5,182.6,12.3
		c39.7,1.8,100.4,6.2,134.2,9.9c205.7,19.7,317.9,24.6,684.6,30.2c218.5,3.7,436,7.4,483.3,8
		C5896.6,6707.4,6109.2,6706.8,6222.5,6701.2z M7474.1,6353.1c-1.6-1.2-29-5.5-61.2-9.2c-32.8-3.1-84.3-8.6-115.4-12.3
		c-31.1-3.7-120.3-12.9-198.7-21.6c-78.4-8-206.2-22.2-284.6-30.8c-78.4-8-219.6-23.4-314.1-33.9c-94.5-9.9-275.5-29.6-402.7-43.1
		c-221.8-24-371.6-40.1-743.7-80.1c-94.5-9.9-248.6-26.5-342-37c-764.1-81.9-1580.3-170.1-1808.5-194.7
		c-79.5-8.6-270.6-29-424.2-45.6c-248.6-27.1-290-30.2-281.4-22.8c1.1,1.2,98.8,12.3,216.9,24.6c118.1,12.9,291,31.4,383.9,41.3
		s246.5,26.5,341,37c94.5,9.9,353.3,37.6,574.5,61.6c221.8,24,479.5,51.8,573.5,61.6c93.4,10.5,247,26.5,341,37
		c93.4,9.9,351.7,37.6,572.9,61.6c221.8,24,479,51.8,571.9,61.6c92.9,9.9,374.8,40,625.5,67.2c251.3,27.1,510.6,54.8,577.2,62.2
		c66.6,6.8,125.6,13.6,131.6,14.8C7424.2,6355.6,7476.8,6356.8,7474.1,6353.1z M7491.3,6251.4c29.5-81.9,52.1-176.2,66-271.1
		c14-95.5,46.7-377.1,44.6-379.6c-4.3-4.9-186.3-43.7-189-40.7c-1.6,1.8-2.7,27.1-2.7,56.1c0,124.5-37,505.9-60.1,615.5
		c-9.1,45-15.6,82.6-14.5,84.4c4.8,4.9,72.5,14.2,100.4,12.9l28.5-0.6L7491.3,6251.4z M7326.5,6302.6
		c8.1-22.8,24.7-120.8,34.9-202.1c20.9-167,49.4-534.2,41.9-542.8c-1.6-1.8-113.8-22.8-249.1-46.2s-298-51.8-361.4-63.5
		c-63.4-11.1-116.5-19.1-117.6-18.5c-1.1,1.2,1.1,10.5,4.8,20.9c19.3,53-26.8,553.3-62.8,679.6c-12.9,46.2-13.4,30.8-1.6-36.4
		c23.1-128.2,53.7-403.6,61.7-557c3.2-64.7,3.2-64.7-12.9-93.7c-12.9-23.4-19.9-29.6-31.1-30.2c-8.6,0-12.3-1.8-9.1-3.1
		s72,9.9,153,24.6c81.1,15.4,174,32,206.2,37.6c32.8,5.5,124.6,22.2,204,37c80,15.4,162.7,30.2,184.2,32.7c37.6,4.9,39.7,4.3,44-7.4
		l4.8-12.9v12.9c0.5,11.7,8.6,14.2,95,32.7c113.8,24,111.7,24.6,108.5-40.1c-2.7-69.6-18.8-83.2-111.1-94.9
		c-30.6-3.7-61.2-9.2-68.2-12.3c-10.7-4.9-12.9-3.7-12.9,6.2c0,6.2-2.1,13.6-5.4,15.4c-3.2,2.5-5.4-3.1-5.4-11.7
		c0-8.6-1.1-16-2.7-16c-4.3,0-372.6-69.6-1796.1-338.9c-1177-222.4-1662.4-314.2-1667.8-314.2c-3.8,0-7,19.7-9.1,52.4
		c-1.6,38.8-5.9,61-15.6,83.2c-7.5,17.3-12.9,30.8-12.3,30.8c0.5,0,56.4,9.9,124,22.2c83.2,14.8,132.1,20.3,151.4,18.5
		c15-1.8,40.8-5.5,56.4-7.4c15.6-1.8,57.5,1.2,92.9,6.8c77.9,11.7,339.9,72.1,514.9,117.7c70.9,19.1,154.1,39.4,185.2,46.2
		c61.2,12.9,30.6,11.1-57.5-3.1c-27.4-4.3-49.9-7.4-49.9-6.2c0,0.6,3.8,19.1,8.6,40.7c11.8,52.4,7.5,179.9-11.3,306.2
		c-7.5,51.8-18.8,146-24.7,209.5c-5.9,62.8-15,139.9-20.4,170.1c-9.7,53-25.2,106.6-29.5,101c-1.6-1.2,3.2-29.6,10.2-63.5
		c7.5-33.3,15.6-88.7,18.8-123.2c3.2-33.9,15.6-136.8,27.4-228.6c21.5-163.3,32.2-332.1,24.2-369.1c-9.1-42.5-81.1-73.9-235.2-102.3
		c-55.3-9.9-134.8-26.5-177.2-37c-187.9-45.6-288.9-55.5-323.8-30.8c-37,26.5-56.4,94.9-67.1,237.2c-3.2,44.4-12.9,133.1-21.5,197.2
		c-36.5,274.2-45.1,396.8-30.6,435.6c4.8,12.9,15,26.5,24.2,32c30.1,17.9,189,41.3,271.7,40l43.5-0.6l-29.5-4.9
		c-16.1-3.1-67.1-8-113.3-11.7c-128.9-10.5-172.9-29-191.2-80.1c-10.2-27.1-5.4-93.7,23.1-314.9c10.2-79.5,23.1-199,29-264.9
		c15-176.8,31.1-229.8,74.1-250.8c29-14.2,93.4-6.2,285.7,35.1c45.6,9.9,145,29,220.2,42.5c153.6,28.3,169.7,32,189.5,50.5
		c31.1,27.1,30.1,68.4-9.7,387.6c-9.7,79.5-19.3,165.7-21.5,191c-11.3,153.4-31.1,229.8-63.9,247.7c-10.2,4.9-43.5,3.7-133.2-3.7
		c-184.7-16-201.4-16.6-119.7-3.7c41.3,6.2,99.3,12.9,128.9,15.4c29.5,1.8,62.8,6.8,73.6,10.5c17.2,5.5,24.2,4.9,47.8-6.8
		c32.2-14.8,38.1-13.6,18.3,4.3c-28.5,25.9-102.6,24-351.7-8c-63.4-8-149.3-17.9-190.6-21.6c-141.8-12.3-163.2-17.3-218.5-48.7
		c-45.1-25.3-51-30.8-62.3-56.7l-11.8-28.3l37.6-316.7c20.4-174.4,41.3-351.8,46.2-395c4.8-43.7,11.3-78.9,14-78.9
		c3.2,0,3.8,10.5,2.1,23.4c-6.4,45.6-78.4,691.9-81.6,733.8c-5.4,64.1,9.1,91.8,56.9,108.4c11.3,4.3,12.3,3.7,6.4-4.3
		c-20.9-29-17.7-144.8,9.1-348.7c9.1-66.5,19.9-164.5,24.7-216.9c10.7-120.8,23.1-223.7,30.6-255.7c2.7-13.6,14-37.6,24.2-53.6
		l18.8-29.6h-20.9c-14,0-27.4,4.9-39.2,15.4c-23.1,19.7-26.8,19.7-10.7,0c7-8.6,11.8-16.6,10.2-17.9c-3.2-3.7-216.4-46.2-218.5-43.7
		c-1.1,1.2-4.3,32-7,69c-4.8,72.7-19.3,198.4-39.7,343.8c-7,51.1-20.4,162-29.5,246.5c-9.1,85-19.9,168.2-24.2,185.5
		c-9.7,38.2-25.8,62.8-48.9,73.9c-26.8,12.9-108.5,10.5-241.1-6.8c-65-8.6-161.6-18.5-214.8-21.6c-137.5-8-302.3-26.5-378.6-43.1
		c-13.4-3.1-60.7-8.6-104.7-12.3c-44.6-3.7-114.4-11.1-155.7-16.6c-41.3-4.9-148.7-12.3-239.5-16.6c-161.1-7.4-164.3-8-189-23.4
		c-14-9.2-25.2-14.2-25.2-11.1c0,3.1,5.9,21.6,13.4,41.3l14,36.4l127.3,7.4c69.8,4.3,153,11.7,184.2,16
		c31.1,4.9,101.5,12.3,155.7,16c54.2,3.7,132.6,11.7,174,18.5c106.3,16,114.9,17.3,249.7,27.7c66.6,4.9,159.5,14.8,206.7,21.6
		c47.3,6.8,124.6,15.4,171.8,18.5c181,14.2,356,32,542.3,55.5c106.3,13.6,268.5,32.7,359.8,43.1c91.8,10.5,225.5,25.3,298,33.9
		c72.5,8,154.6,16.6,182.6,18.5c87,6.2,172.4,16,222.8,24.6c80,14.2,203,27.1,319.5,33.9c110.1,5.5,150.9,10.5,361.9,39.4
		c61.7,8.6,157.3,18.5,212.1,22.2c165.9,10.5,244.3,17.9,381.8,37c134.2,18.5,204.6,25.9,357.1,37c47.3,3.7,143.9,15.4,214.8,25.3
		c176.1,25.3,259.3,34.5,317.3,35.7C7315.7,6313,7323.8,6311.2,7326.5,6302.6z M4816.2,5955.7c21.5-12.9,37.6-89.3,54.2-254.5
		c6.4-57.9,14.5-129.4,18.8-158.4c12.9-88.1,28.5-233.5,32.8-303.1c5.4-98-3.8-108.4-109.5-125.7c-31.7-4.9-128.9-22.8-215.9-40.1
		c-330.8-65.3-357.6-69-385.5-52.4c-39.2,23.4-39.7,26.5-70.9,345.7c-3.8,33.9-11.8,104.7-18.8,157.1
		c-25.8,192.2-32.2,303.8-19.3,331.5c11.8,25.3,48.9,38.8,120.8,44.4c35.4,2.5,98.8,9.2,140.1,14.8
		c190.6,24.6,364.6,43.1,423.1,46.2C4797.4,5961.2,4810.9,5959.4,4816.2,5955.7z M4458.6,5939c-7-1.2-17.7-1.2-24.2,0
		c-7,1.2-1.6,2.5,11.8,2.5S4465.1,5940.3,4458.6,5939z M1495.2,5729.5c-31.7-70.9-66.6-148.5-78.4-173.1
		c-11.8-25.3-19.9-46.8-18.8-48.1c4.3-5.5,38.1,64.1,98.3,199.6c52.1,119.5,75.7,159.6,85.9,147.9c1.6-1.8-30.6-73.9-70.9-159.6
		c-40.8-86.3-103.6-223-139.6-304.4c-36-81.3-77.9-172.5-92.4-203.3c-39.7-81.3-61.7-147.9-58-175c3.8-29,16.1-39.4,67.7-59.2
		c47.3-17.9,69.8-35.1,69.8-52.4c0-11.1-1.1-11.1-27.9-1.8c-42.4,14.2-80,35.7-105.8,61L1202,4984l2.1,38.8
		c1.6,33.3,7.5,51.8,40.8,128.2c21.5,49.3,38.7,91.8,38.7,94.3c-1.1,18.5-44.6-76.4-73-156.5c-24.7-71.5-24.2-93,3.2-127.5
		c23.1-28.3,72.5-59.8,114.4-71.5c18.3-5.5,25.2-10.5,25.2-18.5c0-9.9-2.1-10.5-19.9-4.9c-27.9,8.6-92.9,38.2-142.8,64.7
		c-36,19.7-40.8,24-38.1,35.1c1.6,7.4,19.3,51.1,38.1,97.4c32.8,77.6,34.4,85,26.3,94.3c-12.3,14.2-10.7,22.8,7.5,43.1
		c20.9,22.8,25.2,16.6,10.7-15.4c-6.4-14.2-10.7-27.1-9.1-28.3c2.7-3.7,94,199,189.5,422.7c77.9,181.1,123.5,277.3,132.1,277.3
		C1550.5,5857.1,1526.9,5799.8,1495.2,5729.5z M1651.4,5839.2c17.7-3.7,81.6-13.6,141.8-22.2c60.1-8.6,141.2-22.8,179.9-30.8
		c134.2-29,132.6-28.3,138.5-45.6c10.2-30.8,0-73.3-48.3-199.6c-26.8-68.4-69.3-181.8-94.5-251.4l-46.7-126.3l-27.9,5.5
		c-51.5,10.5-94.5-14.2-102.6-57.9c-5.4-30.2-3.8-54.2,5.9-112.1c7.5-46.2,8.1-58.5,2.1-85c-5.4-24-5.4-34.5-0.5-48.1
		c5.9-16.6,4.3-20.9-19.9-59.8c-19.9-32-30.1-43.1-40.8-44.4c-8.1-1.2-34.9,8.6-63.4,23.4c-52.1,27.1-225.5,99.8-229.3,96.1
		c-1.1-1.2,16.1-9.9,37.6-19.1c21.5-9.2,78.9-35.7,127.8-58.5c118.7-56.1,127.8-58.5,146.6-43.1c11.8,10.5,14.5,11.1,14.5,3.7
		c0-14.2-37.6-40.7-57.5-40.7c-10.2,0-55.3,19.1-105.2,43.7c-47.8,24-115.4,56.7-149.8,72.1c-47.3,21.6-62.8,31.4-63.4,40
		c0,6.2,3.8,12.3,8.6,14.8c4.8,1.8,5.9,5.5,3.2,7.4c-10.7,8,5.9,97.4,49.9,268c25.2,98,46.7,179.9,48.3,181.1
		c5.4,6.8,2.1-16.6-16.1-106.6c-9.7-50.5-17.7-93-16.6-93.7c0.5-0.6,9.1-2.5,19.3-3.1l18.3-1.8l4.3,33.9
		c8.6,69.6,32.2,203.3,52.6,297c21.5,98,43,223,43,249.5c0,11.1-3.2,14.2-12.9,14.2c-12.3,0-14-4.9-26.8-65.9
		c-7.5-37-18.3-92.4-24.2-123.8c-8.6-45-14.5-62.8-27.4-78.9c-8.6-11.7-16.1-25.3-16.1-30.2c0-14.2,4.8-11.1,10.7,6.8
		c4.3,11.7,8.6,15.4,16.1,12.9c5.4-1.8,11.3,0,12.3,4.3c1.1,3.7,12.9,65.9,25.8,138c12.3,71.5,25.2,130.6,27.4,130.6
		c5.9,0,5.4-5.5-3.8-75.8c-4.3-33.3-17.7-105.4-30.1-160.2c-11.8-54.8-31.1-151.6-42.4-215.7c-11.3-63.5-22.6-118.3-24.2-121.4
		c-5.4-10.5-14.5-6.8-11.3,4.9c8.1,29,46.2,256.3,43.5,258.8c-11.3,12.9-27.4-34.5-67.1-195.9c-44.6-178.7-67.1-252.6-85.9-283.4
		l-10.7-17.3l-39.2,19.7c-54.2,27.1-81.1,44.4-89.1,55.5c-12.3,16.6-3.2,56.7,30.1,131.9c66.6,151,195.5,435,259.3,573
		c63.4,136.8,67.1,143.6,80,140.5C1612.8,5846.6,1633.7,5842.3,1651.4,5839.2z M3753.1,5833.1c10.2-6.2,23.1-17.3,27.9-25.9
		c11.8-18.5,22.6-93,39.7-273.6c7.5-77.6,24.2-227.4,37-332.7c13.4-104.7,25.8-208.9,27.4-231.1l3.8-40.7l-66.6-6.8
		c-36.5-4.3-145-22.8-241.1-41.3c-333.4-64.7-1011.6-180.5-1159.3-197.2c-92.9-10.5-259.9-22.2-323.2-22.2h-41.9v17.3v17.9l82.2,4.3
		c175,9.2,215.9,13.6,233,25.3c14.5,9.9,16.1,13.6,16.1,45.6c0,19.1,5.4,59.2,11.8,89.3c17.2,83.2,10.2,70.2-10.2-17.9
		c-9.7-42.5-19.3-77-21.5-77c-1.6,0,43,195.9,99.9,435.6c56.9,239.1,102.6,436.9,101.5,439.3c-1.1,2.5-69.8,3.7-152.5,3.7
		c-148.2-0.6-150.3-0.6-162.7-14.8c-17.2-17.9-40.8-78.9-169.7-433.8c-31.7-87.5-59.1-159-61.2-159c-14.5-0.6,4.8,77,36,147.9
		c8.1,17.9,39.7,101.7,70.3,185.5c66,181.1,99.9,260.6,116.5,273c17.2,12.9,112.2,22.2,233.6,22.2H2583l-3.2-16.6
		c-8.1-38.8-65.5-284-115.4-494.2c-29.5-123.2-52.6-224.9-51.5-226.1c2.7-3.1,64.4,231.7,94.5,361.1
		c56.9,244.6,82.7,354.9,84.8,367.8c2.7,12.3,0,12.9-45.1,17.3c-25.8,3.1-99.3,2.5-162.7-1.2c-130.5-6.8-141.2-9.9-164.8-53
		c-16.6-30.2-91.3-220-160-409.1c-26.3-72.1-50.5-131.2-54.2-131.2c-10.7,0-14,22.8-7,48.1c3.2,12.3,22,62.8,40.8,112.1
		c19.3,49.3,51.5,136.8,72.5,194.1c52.1,146.6,86.4,226.7,106.3,245.8c28.5,27.1,61.2,33.3,201.4,37c175,5.5,253.4,12.3,429.6,37
		c180.4,25.3,191.7,26.5,298,34.5c187.4,14.2,312.5,28.3,467.1,52.4C3674.1,5851.5,3727.3,5847.8,3753.1,5833.1z M2162.6,5783.1
		h54.8l-52.6-149.1c-29-82.6-77.9-217.5-109-300.7s-60.7-163.9-66.6-179.9c-5.4-16.6-11.3-29.6-12.9-29.6c-1.6,0-12.9,7.4-25.2,17.3
		l-22,16.6l32.2,86.3c17.7,47.4,59.6,157.1,92.9,243.4c63.9,165.1,72.5,192.9,72.5,228.6c0,29-15,44.4-59.1,60.4l-34.9,12.9
		l37.6-3.1C2091.2,5784.4,2132.5,5783.1,2162.6,5783.1z M1317.4,5614.9l12.9-96.7l-13.4-21.6c-7.5-11.7-14-20.9-15-19.7
		c-4.3,4.9-18.8,188.5-16.1,203.9c3.2,17.3,13.4,37,17.2,32.7C1304,5712.3,1310.5,5667.9,1317.4,5614.9z M1331.9,5675.3
		c0-4.9-2.1-9.2-5.4-9.2c-2.7,0-5.4,4.3-5.4,9.2s2.7,9.2,5.4,9.2C1329.8,5684.6,1331.9,5680.2,1331.9,5675.3z M2488.5,5637.1
		l73.6-3.7l-3.2-16c-1.6-8.6-36-150.3-76.2-314.9c-40.3-164.5-85.4-351.2-100.4-415.9l-27.9-117.1l-145-3.1
		c-79.5-1.8-147.1-2.5-150.3-1.2c-2.7,0.6-8.1,38.2-11.3,86.3c-3.8,46.2-10.2,102.9-14.5,125.1l-8.6,40.7l47.8,126.3
		c26.3,69.6,66,173.1,88.1,230.4c22,57.3,46.2,124.5,54.2,149.1c32.8,104.7,47.3,116.5,146.1,117.7
		C2390.3,5641.4,2448.3,5639.6,2488.5,5637.1z M7615.4,5151.6c0.5-115.2-1.6-221.8-5.4-268c-3.8-42.5-14-164.5-23.1-271.1
		c-23.6-284-41.3-398.7-72-468.3c-16.6-37.6-33.3-52.4-74.6-67.2c-58-20.3-67.7-21.6-67.7-8.6c0,6.2-5.4,37.6-11.8,70.2l-11.3,58.5
		l14,92.4c17.7,116.5,18.8,126.3,25.2,248.9c3.2,56.1,9.1,142.9,13.4,193.5c4.3,50.5,7.5,102.9,7.5,117.1
		c-1.1,19.1-1.6,20.9-2.7,6.8c-1.1-9.9-5.9-54.2-10.2-98.6c-4.3-43.7-10.7-128.2-13.4-186.1c-4.3-88.1-27.4-306.8-36-340.7
		c-1.6-6.2-5.9-1.8-13.4,13.6c-16.6,33.3-33.8,39.4-86.4,30.2c-42.4-7.4-98.3-22.8-458.6-129.4c-280.3-82.6-308.2-101-373.2-250.2
		c-20.9-47.4-47.3-102.3-59.1-122c-39.7-67.2-113.8-120.2-203.5-144.8c-25.2-7.4-99.3-30.2-163.8-50.5c-64.4-20.9-197.1-61-293.7-90
		c-97.2-28.3-272.2-81.3-389.3-117.1s-297.5-90-401.1-120.2c-103.1-30.8-314.7-94.3-469.8-141.1c-310.9-94.9-434.4-130-436.5-123.8
		c-1.1,1.8-2.7,60.4-3.2,130c-0.5,69.6-3.2,186.1-5.9,258.8c-3.2,72.7-5.4,161.4-5.4,196.6c0,35.1-1.6,62.8-3.2,60.4
		c-1.6-1.8,0-147.9,3.8-324.1c4.3-207.6,4.8-323.5,1.6-327.2c-3.2-3.7-20.4-4.3-40.8-1.8l-36,3.7l-3.8,25.3
		c-14,96.7-104.7,289.6-169.1,357.4c-69.3,73.3-163.2,120.8-251.8,125.7c-76.2,4.3-191.2-17.9-383.4-73.3
		c-108.5-31.4-154.1-52.4-213.7-98.6c-87-67.8-151.4-142.9-205.1-238.5c-26.8-46.8-116-264.9-137.5-334l-12.3-40.1l-67.7-0.6
		c-55.3,0-85.9-4.3-167-22.8c-54.8-12.3-118.7-25.3-142.3-29c-56.4-9.2-367.8-16-367.8-8c0,3.1,3.2,11.1,7.5,17.9
		c7.5,11.1,15.6,11.7,184.2,11.7c134.2,0.6,192.8,3.1,245.9,11.1c128.9,19.1,221.2,39.4,245.9,53c34.9,19.1,83.2,81.3,106.9,136.2
		c10.7,25.3,36.5,104.1,58,175.6c44,147.3,70.3,215.7,102,261.2c25.8,37.6,46.2,53,80,61.6c447.3,112.1,593.3,148.5,832.8,207
		c157.9,38.2,296.4,72.1,307.7,73.9l19.9,4.3V3817c0,168.8-4.8,292.1-21.5,561.3c-14.5,239.1-18.8,363.5-12.4,363.5
		c3.2,0,382.3,70.9,842.5,157.1c460.2,86.9,1035.8,194.7,1279,240.3c242.7,45.6,640.6,120.8,883.8,166.4
		c243.2,45.6,446.2,83.2,451,83.2c7.5,0,8.6-17.9,9.7-152.2l0.5-152.8l4.8,141.7c2.7,78.3,6.4,148.5,9.1,157.1
		c3.8,14.8,9.1,16.6,92.4,34.5l88.1,18.5l3.8-46.2C7612.1,5363.5,7614.8,5256.9,7615.4,5151.6z M1269.7,5367.9
		c-9.7-22.2-20.9-31.4-14.5-11.1c5.4,15.4,18.8,38.8,21.5,36.4C1277.7,5391.3,1274.5,5380.2,1269.7,5367.9z M1241.7,5301.3
		c-4.8-5.5-6.4-4.3-6.4,7.4c0,11.7,1.6,12.9,6.4,7.4C1246.6,5310.6,1246.6,5306.9,1241.7,5301.3z M1216,5267.4
		c-13.4-11.1-15.6-5.5-3.8,12.3c7.5,12.3,10.2,13.6,11.8,5.5C1225.1,5279.7,1221.3,5271.7,1216,5267.4z M1202.5,5155.9
		c5.9-13.6,4.8-17.9-7.5-31.4c-11.8-13.6-14.5-14.8-18.8-6.8c-2.7,4.9-5.4,22.2-5.4,38.2c0,29,0.5,29,12.9,22.8
		C1190.7,5175,1199.3,5164.5,1202.5,5155.9z M1925.8,5136.8c27.9-14.8,58-55.5,72.5-98.6c24.2-73.3,32.2-138.6,35.4-281l2.7-136.2
		l-14.5-19.7c-16.6-22.8-40.3-26.5-70.3-9.9c-22,11.7-35.4,32-53.7,80.7l-13.4,35.7l32.8-41.9c36.5-45.6,55.3-59.8,79.5-59.8
		c28.5,0,30.1,8,26.3,131.2c-7,224.3-36.5,336.4-99.3,378.3c-16.6,11.7-32.2,16.6-50.5,16.6c-22.6,0.6-28.5-1.8-39.7-16.6
		c-8.6-11.1-12.9-25.3-12.9-38.8c0-14.8-2.1-20.9-6.4-19.1c-4.3,1.2-7,13.6-6.4,32c0.5,42.5,17.7,58.5,62.8,58.5
		C1890.9,5148.5,1911.9,5144.2,1925.8,5136.8z M1921.5,5109.1c37-22.2,62.3-78.9,73.6-167.6c14.5-114.6,23.1-290.2,15.6-313
		c-4.3-12.9-19.9-12.3-44,0.6c-52.6,29-88.1,104.1-99.9,214.4c-2.1,17.3-4.8,37.6-6.4,46.8c-2.1,14.2-1.6,15.4,15.6,12.9
		c23.1-3.1,27.9,4.9,19.9,32.7c-8.1,27.1-29,30.8-34.4,5.5c-2.7-12.3-5.9-14.8-15.6-11.1c-6.4,1.8-12.9,4.9-14,6.8
		c-1.6,1.2-3.8,35.1-4.8,75.8c-3.2,96.1,1.1,104.7,47.8,104.7C1892.5,5117.7,1913.5,5114,1921.5,5109.1z M1165.5,5106
		c0-3.7-2.1-8-5.4-9.9c-2.7-1.8-5.4,0.6-5.4,5.5c0,5.5,2.7,9.9,5.4,9.9C1163.3,5111.5,1165.5,5109.1,1165.5,5106z M1167.6,5030.8
		c-28.5-72.1-29.5-75.8-20.4-84.4c15-13.6,101.5-58.5,148.7-78.3c38.1-16,40.8-17.9,33.3-27.7c-4.3-5.5-8.1-12.9-8.1-16
		c0-5.5,48.3-26.5,68.2-29.6c3.8-0.6,9.7-4.3,12.9-8c4.3-4.9,10.2-3.7,20.9,3.1c14.5,9.9,16.6,9.2,67.7-18.5
		c71.4-38.8,193.3-95.5,249.1-116.5l45.6-17.3l-2.1-93.7c-1.6-74.6-3.8-99.2-11.8-118.9c-7.5-19.1-10.2-40.1-10.2-85.6
		c0-51.8-1.1-60.4-9.1-63.5c-78.4-27.7-261.5-128.8-380.2-210.1c-163.8-112.8-245.4-205.8-284-324.1
		c-28.5-86.3-32.8-128.2-32.8-325.9c0-100.4-0.5-181.8-1.1-181.1c-2.7,3.1-23.6,148.5-31.1,216.3c-10.7,98-33.3,348.1-37.6,423.9
		l-3.8,59.8h18.3c18.3,0,19.3,1.8,36,42.5c38.1,95.5,60.1,250.8,60.1,425.8c0,118.9-8.1,183.6-29,236.6c-11.8,29-12.3,33.9-5.4,55.5
		c3.8,13.6,12.9,61.6,20.4,107.8c29.5,179.3,49.9,265.6,63.9,265.6c3.2,0,9.7-3.7,13.4-7.4c5.9-6.8,6.4-5.5,3.8,4.9
		c-2.7,10.5,0.5,17.3,14,29c9.7,8.6,18.3,15.4,19.3,14.2C1197.2,5107.8,1184.3,5072.7,1167.6,5030.8z M1885,4939.6
		c0-3.1,1.6-9.9,3.2-15.4c2.7-8-0.5-9.9-16.1-9.9c-16.6,0-19.3-1.8-19.3-14.2c0-16.6-9.1-29-22-29c-14.5,0-16.6,9.9-7.5,33.9
		c7,20.3,9.1,22.2,23.6,18.5c12.9-3.1,17.2-1.2,22,8.6C1874.8,4945.2,1885,4950.1,1885,4939.6z M1392.1,4895.9
		c-2.7-46.2,2.7-61.6,20.9-61.6c7,0,10.2-4.3,10.2-14.8c0-20.3-9.1-25.9-20.9-12.9c-6.4,6.2-14.5,8.6-23.6,6.2
		c-8.1-2.5-20.4,0-31.1,6.8c-18.3,11.1-18.3,11.1-4.8,14.8c10.7,3.1,14.5,9.2,19.3,33.9c6.4,33.3,21.5,70.9,27.9,70.9
		C1392.1,4939,1393.2,4919.3,1392.1,4895.9z M3915.2,4885.4c8.6-25.3,12.4-49.3,12.4-81.9l0.5-46.2l-84.3-19.1
		c-46.2-10.5-148.7-30.8-228.2-45c-646-115.8-1162.5-223-1518.5-315.5c-145-37.6-242.7-61-255.1-61c-8.6,0-9.7,6.8-10.2,57.3
		c-0.5,30.8-1.1,101.7-2.1,157.1c-1.1,111.5-1.1,112.1,33.8,112.1c16.1,0,23.6-4.9,43-28.3c27.4-32,58.5-51.1,84.3-51.8
		c24.7,0,53.7,30.8,61.2,65.3l5.9,27.1h78.9c157.9,0,294.3,14.8,545,58.5c85.9,14.8,203.5,34.5,261,43.1
		c254,38.2,367.8,58.5,641.7,114c65,12.9,147.1,27.7,182.6,33.3C3913.6,4926.1,3900.7,4927.9,3915.2,4885.4z M1839.9,4853.4
		c-8.1-10.5-11.3-42.5-21.5-219.4c-7-113.4-14-208.3-15.6-210.7c-2.1-1.8-5.4-2.5-7,0c-1.6,1.8,3.2,96.1,10.7,208.9
		s14,210.1,14,216.3s5.4,12.9,12.3,16C1849,4871.9,1851.2,4867.5,1839.9,4853.4z M1599.9,4760.9c54.2-27.7,105.2-51.8,112.8-53.6
		c21.5-4.9,47.8,19.7,69.3,64.1c10.2,21.6,19.3,37.6,20.4,36.4c1.1-1.2-0.5-36.4-4.3-77c-5.9-67.2-7.5-75.2-16.6-75.2
		c-20.4,0-75.7,19.7-124,43.7c-26.8,13.6-70.3,34.5-97.2,46.8c-26.3,11.7-57.5,27.1-68.2,33.3c-22.6,12.9-58,46.8-58,55.5
		C1434,4842.3,1482.3,4820.7,1599.9,4760.9z M1863,4722.1c5.9-29.6,11.3-56.7,11.3-60.4c0-3.1-9.7-6.2-22-6.2
		c-20.9,0-21.5,0.6-18.8,17.3c1.6,9.2,4.3,38.2,6.4,64.7c1.6,26.5,5.4,46.2,7.5,43.1C1849.6,4778.2,1856.6,4751.7,1863,4722.1z
		 M2375.8,4751.1c0-3.1-7-11.1-15-17.9c-13.4-11.7-23.6-12.9-143.4-14.2c-70.9-1.2-134.8-3.1-142.3-4.3c-10.7-2.5-14.5,0-18.8,12.9
		c-2.7,9.2-3.2,18.5-1.1,20.9c2.7,3.1,70.9,6.2,152,7.4C2389.2,4757.9,2376.3,4758.5,2375.8,4751.1z M3930.8,4697.5
		c0.5-21.6,9.7-257.6,20.9-525.6c11.3-267.4,20.4-487.4,19.9-488c-1.1-1.2-21.5-6.2-46.7-11.7c-24.7-4.9-97.2-24.6-160.5-42.5
		c-63.4-18.5-160-44.4-214.8-57.9c-54.8-13.6-146.6-37-204.6-52.4c-58-15.4-185.8-45.6-284.6-67.8
		c-230.4-51.8-253.4-57.3-274.9-67.8c-23.1-11.1-55.3-43.7-70.9-71.5c-12.3-22.8-81.1-212-135.3-372.8
		c-33.8-99.2-41.9-116.5-72-147.9c-39.7-41.3-86.4-57.9-211.6-77c-174.5-25.9-469.3-33.3-488.1-11.7c-1.6,1.8-4.3,25.3-6.4,53
		l-3.8,49.9l16.1,9.9c15,8.6,16.6,12.3,19.3,51.1c7,80.7,7.5,79.5-23.6,91.8c-15,6.8-28.5,14.2-29.5,17.9
		c-1.1,3.1-9.1,122.6-18.3,264.9c-15,232.3-16.6,275.4-13.4,425.1c3.8,199,9.7,298.2,25.2,436.9c10.2,93,13.4,107.2,27.9,134.9
		c25.2,46.8,41.9,64.7,65.5,69c23.6,4.3,278.1,63.5,517.6,119.5c198.1,46.2,585.3,126.9,942.4,194.7c150.9,29,317.3,62.2,370.5,73.9
		c113.3,25.3,185.2,38.8,213.7,39.4l19.9,0.6V4697.5z M1069.9,4582.3c4.8-23.4,7-83.2,7-185.5c-0.5-159.6-7.5-237.2-30.1-334
		c-11.3-48.1-40.8-112.1-50.5-110.9c-8.1,0.6-20.9,65.3-14,67.8c7.5,3.1,8.1,167.6,0.5,167.6c-2.7,0-5.4-11.1-5.4-24.6
		c0-13.6-2.7-24.6-5.9-24.6c-3.2,0-4.3,6.8-2.7,17.3c1.1,9.2,4.3,38.2,5.9,64.7c2.1,25.9,5.4,47.4,8.1,47.4c8.1,0,15,33.9,15,73.3
		c0.5,59.8,24.2,222.4,31.1,214.4c1.6-1.2-1.1-28.3-5.9-59.8c-4.3-32-7-59.2-5.4-60.4c3.8-4.9,13.4,5.5,13.4,14.8
		c0,4.9,5.9,25.3,13.4,45.6c16.1,44.4,16.6,63.5,2.1,79.5c-9.1,9.2-10.7,16-7.5,32.7c2.1,11.1,5.4,22.8,7,25.9
		C1051.1,4643.3,1062.9,4618,1069.9,4582.3z M1044.7,4529.9c-2.1-15.4-5.9-28.3-8.1-28.3c-3.8,0-2.7,15.4,3.2,48.7
		C1044.7,4576.1,1048.4,4558.8,1044.7,4529.9z M1825.9,4361.1c0-27.7-2.7-40.1-14-59.2c-11.8-19.7-16.1-22.8-27.9-19.1
		c-8.1,2.5-15,4.3-15.6,4.9c-0.5,0.6,0.5,24,2.1,51.8c3.2,48.7,3.8,50.5,17.2,53C1826.5,4399.3,1825.9,4399.9,1825.9,4361.1z
		 M1747.5,4216.9c-1.6-21.6-11.8-160.8-23.1-309.9l-19.3-271.1l20.9-328.4l21.5-329l-11.3-9.9c-16.1-15.4-23.1-33.9-23.1-64.1
		c0-14.8-2.7-37-5.9-50.5c-5.4-22.2-4.3-25.3,10.2-46.2c16.6-22.2,18.3-23.4,33.8-16c7.5,3.1,9.1-4.9,12.3-61.6
		c2.1-36.4,2.7-67.2,1.6-69c-5.4-6.2-154.1,31.4-215.9,54.8c-73.6,27.1-172.4,80.1-237.9,127.5c-49.9,35.7-65,38.2-24.2,4.3
		c51.5-43.7,153-98.6,254-137.4c87-33.9,95.6-38.2,67.1-35.1c-90.7,10.5-273.8,95.5-354.4,163.9c-53.2,45.6-121.9,125.7-141.2,165.1
		c-22.6,45-22,57.3,1.6,30.8c10.2-11.7,18.8-19.1,18.8-16c0,2.5-13.4,27.7-29.5,56.1c-30.1,51.8-41.3,77.6-47.8,109.7
		c-2.7,14.2-1.6,16.6,7.5,16.6c10.7,0,10.7,3.7,10.7,189.8c0,262.5,11.3,336.4,66.6,431.9c34.4,58.5,69.8,94.3,177.7,176.2
		c139.6,106,302.3,207.6,389.3,242.8C1752.4,4260,1751.3,4260.6,1747.5,4216.9z M1796.4,4248.9c1.6-3.1,0.5-6.2-2.1-6.2
		c-3.2,0-5.9,3.1-5.9,6.2c0,3.7,1.1,6.2,2.1,6.2C1792.1,4255.1,1794.8,4252.6,1796.4,4248.9z M1752.9,3980.9
		c-17.7-242.8-18.8-271.1-16.6-456c2.1-149.7,5.9-237.8,16.6-366c8.1-93,13.4-172.5,11.8-175.6c-3.8-12.3-8.6,35.7-24.7,255.1
		c-24.2,324.7-23.1,466.4,5.4,769.6c11.8,125.7,21.5,230.4,21.5,232.9c0,1.8,1.1,2.5,2.1,1.2
		C1770.6,4240.9,1763.1,4123.2,1752.9,3980.9z M7310.4,4135.5c14.5-84.4,14.5-89.3,5.9-104.7c-5.4-8.6-10.7-16-12.9-16
		c-9.7,0-118.1,57.9-120.3,64.7c-1.6,3.7-4.3,32.7-6.4,63.5l-3.8,55.5l31.1,7.4c17.7,3.7,39.2,9.2,47.8,12.3
		c9.1,2.5,22,5.5,29.5,5.5C7294.8,4224.3,7295.3,4222.4,7310.4,4135.5z M7126.7,4167.6c9.1-18.5,9.1-159.6,0-217.5
		c-40.3-253.9-177.2-454.1-357.6-524.3c-112.8-44.4-229.8-25.9-315.7,49.3c-41.3,36.4-100.9,151.6-100.9,195.3
		c0,6.8,16.1,35.1,35.4,62.2c20.9,30.2,45.1,73.9,59.6,109.1c12.9,32.7,29.5,73.3,37,90c18.3,45,37.6,63.5,88.6,83.8
		c45.1,17.9,54.2,18.5,43.5,3.7c-8.1-11.1-25.8-73.9-33.3-120.2c-3.8-20.9-5.9-69-4.3-109.7c1.6-66.5,3.2-77,18.8-114.6
		c19.9-48.1,52.1-86.3,84.8-100.4c34.4-15.4,120.3-11.1,153,7.4c75.7,43.1,152.5,155.9,189.5,277.9c13.4,44.4,16.6,65.9,18.3,124.5
		c2.1,62.2,1.1,77-10.7,120.2c-7.5,27.1-12.3,51.1-10.7,54.2c1.1,2.5,7.5,4.3,14,4.3c6.4,0,24.2,4.3,38.7,8.6
		C7112.2,4183.6,7119.2,4183,7126.7,4167.6z M7015.1,4116.4c16.6-48.1,15.6-174.4-1.1-237.2c-53.2-194.7-187.9-327.8-299.6-296.4
		c-14.5,4.3-36,14.8-47.8,24c-24.7,19.7-60.1,75.8-64.4,102.9l-3.2,18.5l9.7-20.3c4.8-11.1,11.8-19.1,15.6-17.3
		c3.8,1.8,10.7-2.5,16.1-9.2c15.6-19.7,62.3-32,103.6-27.1c19.3,1.8,44,6.8,54.2,10.5c27.9,9.9,73,51.1,87,78.9
		c9.1,17.9,15.6,24.6,23.1,23.4c7.5-1.2,10.2-6.2,9.7-16c-1.1-7.4,0-13.6,1.1-13.6c8.6,0,47.8,83.2,59.6,125.7
		c15.6,56.1,22,141.1,14,179.3c-4.8,20.9-5.4,15.4-5.9-40.7c-0.5-43.1-4.3-81.3-11.3-114c-11.8-52.4-31.1-101.7-41.9-106
		c-11.8-4.3-7,29.6,13.4,90.6c19.9,57.3,20.4,61,19.9,139.3c0,61-2.1,85.6-8.6,103.5c-11.3,28.3-2.7,30.2,12.4,3.1l10.7-20.3
		l-3.2,20.9c-2.7,14.2-1.6,22.2,3.2,25.9C6995.2,4155.3,7004.3,4147.3,7015.1,4116.4z M7599.3,4127.5
		c32.2-40.1,41.9-64.7,41.9-104.1c0-31.4-2.7-41.3-15.6-62.2c-27.9-44.4-94-93-160-118.3c-66.6-25.9-90.7-11.7-90.2,51.8
		c0.5,65.3,31.7,102.3,139.1,166.4l62.3,37v23.4C7576.7,4148.5,7581,4149.7,7599.3,4127.5z M6944.2,4121.4
		c5.4-5.5,9.7-17.3,9.7-25.9c0-15.4-0.5-14.8-13.4,6.8C6922.2,4133.7,6923.8,4142.9,6944.2,4121.4z M6936.1,4073.3
		c29.5-65.3,20.9-147.3-26.8-252c-23.1-51.1-70.3-115.2-95.6-130.6c-34.9-20.3-97.7-6.2-126.7,29.6
		c-34.4,42.5-47.3,128.2-31.7,210.1c9.7,48.7,34.9,114,49.4,128.2c4.8,4.3,52.1,20.9,105.8,37
		C6921.1,4128.2,6910.9,4130,6936.1,4073.3z M977.6,4064.1c0-6.8-1.1-12.3-2.1-12.3s-3.2,5.5-4.8,12.3c-1.6,6.8-0.5,12.3,2.1,12.3
		S977.6,4070.8,977.6,4064.1z M6674.6,4043.1c0-1.2-7.5-20.3-16.1-42.5c-20.9-51.1-28.5-104.7-24.2-170.7
		c4.3-65.9,17.2-97.4,49.9-125.7c14-11.7,29.5-26.5,34.9-33.3c9.7-12.3,9.7-12.3-9.7-7.4c-70.3,18.5-128.3,110.9-118.1,189.8
		c4.3,35.7,16.6,85.6,32.2,133.7c7,20.3,14,41.9,15.6,48.1c1.6,6.8,8.6,10.5,19.3,10.5C6667.1,4045.6,6674.6,4044.4,6674.6,4043.1z
		 M979.7,3430.7c9.7-80.1,11.3-199.6,2.7-237.8c-5.4-25.9-4.8-29,26.3-99.8c40.8-93,69.8-138.6,136.4-213.8
		c61.2-69,158.9-146,222.3-176.8c117.6-56.1,313.6-104.7,467.1-115.8c76.2-6.2,243.2,0,314.1,11.1c24.7,3.7,91.3,16.6,147.1,28.3
		c56.4,11.7,123.5,23.4,149.8,25.3l47.8,3.7l-3.2-34.5c-8.6-96.1-65-150.3-218.5-210.7c-161.6-63.5-241.6-76.4-462.9-77
		c-183.6,0-292.1,19.7-425.8,77c-158.9,68.4-251.8,137.4-325.9,242.1c-77.3,110.3-142.8,242.8-164.8,333.3
		c-21.5,88.7-23.6,131.9-11.3,229.8c18.8,151.6,40.3,230.4,74.1,271.1c7.5,9.2,14.5,16.6,15,15.4
		C970.6,3500.9,975.4,3468.9,979.7,3430.7z M3541.5,3426.4c49.4-14.2,126.7-61,160.5-96.1c51-53.6,118.1-184.8,145.5-284
		c12.9-47.4,17.7-88.1,9.1-83.8c-2.1,1.2-27.4,16.6-55.8,35.1l-52.1,33.3l-5.9,31.4c-8.6,40.7-46.7,133.7-74.1,179.9
		c-29.5,50.5-87.5,111.5-141.2,149.1c-66.6,46.8-64.4,44.4-39.7,44.4C3500.2,3435.6,3524.3,3431.3,3541.5,3426.4z M3392.8,3408.5
		c139.6-43.1,262-185.5,302.8-353.1c14.5-61,15-161.4,1.6-229.8c-47.8-237.8-220.2-441.8-434.9-515.1
		c-43.5-14.8-59.1-17.3-155.2-19.7c-144.4-3.7-184.2,7.4-274.9,76.4c-68.2,51.8-138.5,143.6-178.3,234.1
		c-40.3,91.2-46.7,183.6-18.3,260c24.7,67.8,85.4,192.9,116,239.7c37.6,57.3,99.9,126.3,147.1,162.7
		c68.2,52.4,111.7,72.1,228.2,104.7C3303.1,3418.3,3341.2,3423.9,3392.8,3408.5z M1788.4,2946.4l29.5-0.6l1.6-43.1
		c2.1-56.7-1.1-68.4-20.4-75.8c-8.6-3.7-16.1-9.9-16.1-14.2c0-5.5-1.6-5.5-7.5,0c-5.4,5.5-10.7,5.5-20.9,0
		c-26.8-14.2-32.2-4.9-29,48.7c3.8,64.7,12.3,96.1,24.2,90C1754.5,2948.8,1772.2,2946.4,1788.4,2946.4z M1788.4,2748.6
		c0-22.8-2.1-40.1-5.4-40.1s-5.4,17.3-5.4,40.1c0,22.8,2.1,40.1,5.4,40.1S1788.4,2771.4,1788.4,2748.6z"/>
	<path fill="#272121" d="M6416.9,6179.3c-10.2-1.2-61.2-7.4-112.8-14.2c-51.5-6.8-129.9-14.8-174-18.5
		c-126.7-9.9-164.3-35.1-164.3-108.4c0-67.8,46.2-412.2,48.3-359.8c1.6,31.4,1.6,31.4,22-163.3c11.3-111.5,16.6-135.6,32.2-144.8
		c23.6-14.8,115.4-3.7,310.9,37c63.4,13.6,140.1,28.3,169.7,33.9c64.4,10.5,80,16.6,87.5,33.3c8.1,16.6,7,81.9-2.1,170.1
		c-4.8,40.7-14,134.3-21.5,208.3c-22.6,228.6-27.4,253.2-53.2,272.3c-17.2,12.9-59.6,11.1-234.1-11.7
		c-69.3-9.2-155.2-19.1-190.6-22.2c-99.9-9.2-143.4-20.9-149.3-38.8c-1.1-4.3,3.2-67.2,10.2-139.9c16.1-172.5,15-184.2-3.8-40.1
		c-19.3,149.1-19.9,193.5-3.2,210.7c17.7,18.5,24.7,20.3,116.5,29.6c87.5,9.9,144.4,19.7,116,20.9c-8.6,0.6-53.7-3.7-100.9-9.2
		s-87-8.6-88.1-6.8c-4.3,4.3,128.3,22.2,239.5,32c57.5,5.5,125.1,12.3,150.3,16c25.2,3.7,74.6,6.8,110.1,6.8c37,0.6,58.5,2.5,51,5.5
		C6569.9,6182.4,6451.8,6183.6,6416.9,6179.3z M6564.6,6102.3c12.4-33.9,22.6-105.4,43.5-291.4c12.4-110.9,19.9-207.6,20.4-255.7
		l0.5-77l-18.8-9.9c-19.3-10.5-470.9-98-505.3-98c-17.7,0-33.3,11.7-44,34.5c-2.1,4.3-9.7,66.5-17.2,138.6
		c-7.5,72.7-22,208.9-32.2,302.5c-23.6,214.4-23.6,205.8-1.1,213.8c30.1,11.1,78.9,18.5,162.2,25.3c44.6,3.7,134.8,13.6,201.4,20.9
		c66.6,8,134.8,14.8,152,15.4C6556,6122,6557,6121.4,6564.6,6102.3z M6012.6,5720.3c-1.1-8-2.1-3.1-2.1,10.5
		c-0.5,13.6,0.5,19.7,2.1,14.2C6013.6,5738.8,6013.6,5727.7,6012.6,5720.3z"/>
	<path fill="#272121" d="M6457.2,6161.5c-5.9-0.6-43-4.9-82.2-9.2c-39.2-3.7-70.3-8-69.3-9.9c1.6-1.2,50.5,1.8,109,6.8
		c59.1,5.5,118.1,9.9,131.6,9.9c24.2,0,25.8-1.2,33.3-23.4c29.5-84.4,78.9-476.3,78.9-624.2c0-35.7-1.6-43.7-11.8-54.8
		c-18.3-19.7-72-35.7-175.6-52.4c-52.1-8.6-127.3-22.2-167-30.2c-203.5-41.9-240.6-42.5-252.9-5.5c-10.7,32.7-21.5,102.3-29,192.2
		l-7.5,90l2.1-107.8c1.6-110.9,11.3-168.8,31.7-200.3c4.8-6.8,8.6-15.4,8.6-19.1s-19.9-9.9-44-14.2c-24.7-4.3-48.3-8.6-53.2-10.5
		c-8.1-2.5-9.1,9.9-11.8,112.8c-3.8,166.4-52.1,600.1-71.4,647c-23.6,56.7-70.9,69-186.3,48.7c-26.8-4.9-97.7-14.8-156.8-22.2
		c-272.8-33.3-403.8-55.5-443.5-76.4c-12.9-7.4-14.5-9.2-4.8-6.8c60.1,15.4,120.8,27.7,133.2,27.1c8.1-0.6-4.8-4.3-28.5-8.6
		c-52.1-9.9-103.1-27.1-110.1-37c-3.2-4.3,5.9-3.1,23.1,3.7c58,22.2,694.3,105.4,721.7,94.9c30.1-12.3,47.3-80.7,65.5-260
		c5.9-56.7,16.6-150.3,24.2-208.3c8.1-57.3,14.5-115.8,14.5-129.4c1.1-18.5,1.6-20.3,3.2-7.4c2.7,20.3-20.9,244-52.6,503.4
		c-7,53-20.4,87.5-40.3,102.3c-18.3,14.2-114.4,8.6-278.7-15.4c-67.7-9.9-143.9-19.7-169.1-21.6l-45.6-3.1l40.3,6.2
		c52.6,8,194.9,28.3,276.5,39.4c35.4,4.9,89.1,9.2,119.7,9.2c54.2,0,55.8-0.6,70.9-17.9c17.7-20.3,29.5-62.2,37.6-136.2
		c3.2-29,9.1-78.9,13.4-110.9c14-106.6,40.3-390.6,40.3-438.7c0-35.1-2.1-49.9-8.6-57.3c-4.8-4.9-7-13.6-5.4-18.5
		c1.6-6.2,0-7.4-5.9-4.9c-6.4,3.1-8.1,1.2-5.4-5.5c5.4-17.9-29-29-161.1-54.2c-181.5-33.9-443.5-78.9-484.9-83.2
		c-19.3-1.8-47.8-4.9-62.8-6.8c-18.8-2.5-28.5-1.2-28.5,3.1c0,3.7,10.2,6.8,23.1,6.8c70.9,0,613.2,94.3,672.3,117.1
		c16.1,6.2,16.1,6.2-2.7,2.5c-10.2-1.8-59.6-11.1-110.1-20.9c-49.9-9.9-156.3-27.7-236.3-40c-79.5-12.3-179.9-29-222.3-37
		c-42.4-8.6-87-15.4-98.3-15.4c-57.5,0-77.3,46.2-87.5,203.3c-5.4,78.3-16.6,181.8-40.8,366.6c-20.4,156.5-22,184.8-12.3,231.1
		l3.2,15.4l-11.3-14.8c-16.1-20.3-14.5-65.9,4.8-173.8c15-85,30.6-226.7,51.5-473.2l9.7-114l20.9-30.2c11.3-16.6,19.9-30.8,18.8-32
		c-1.1-1.2-16.1-4.9-33.8-8c-27.4-4.9-22.6-5.5,32.2-3.1c110.6,4.3,187.9,14.2,354.4,45.6c88.6,17.3,194.9,36.4,236.3,43.1
		s122.4,25.9,180.4,42.5c66.6,19.1,138,34.5,196,42.5c116,16.6,489.7,83.2,479,85.6c-4.3,1.2-103.1-14.8-219.6-35.1
		c-208.3-36.4-289.4-48.7-284-41.9c1.6,1.2,24.7,6.2,51,9.9c26.8,4.3,114.9,19.7,196,34.5c81.1,14.8,170.8,30.2,198.7,33.9
		c80.5,11.7,107.4,30.2,115.4,80.1c5.4,35.7-41.9,508.3-59.1,590.9c-9.1,41.3-21.5,74.6-31.7,81.9
		C6570.5,6164.5,6480.8,6165.8,6457.2,6161.5z M5330.6,6038.2c-1.6-1.8-6.4-2.5-10.2-0.6c-4.3,1.8-2.7,3.7,3.2,3.7
		C5329.6,6041.9,5332.8,6040.1,5330.6,6038.2z M5258.7,6031.5c-3.8-1.2-10.2-1.2-13.4,0c-3.8,1.8-1.1,3.1,6.4,3.1
		C5259.2,6034.5,5261.9,6033.3,5258.7,6031.5z"/>
	<path fill="#272121" d="M6281.6,6136.2c3.8-1.8,8.6-1.2,10.2,0.6c2.1,1.8-1.1,3.7-7,3.1C6278.9,6139.9,6277.3,6138.1,6281.6,6136.2
		z"/>
	<path fill="#272121" d="M5777.4,6058c-1.1-1.2-41.9-7.4-90.7-12.9s-131-14.8-182.6-21.6c-51.5-6.2-126.7-14.8-166.5-18.5
		c-135.3-12.3-214.2-29.6-244.3-51.8c-11.3-8.6-13.4-14.8-13.4-43.1c0-41.3,12.9-194.7,26.8-314.9c5.9-50.5,14.5-135.6,18.8-187.9
		c12.3-141.1,25.8-186.1,59.1-196.6c18.8-6.2,20.9-5.5,107.4,11.7c32.8,6.8,124.6,22.2,204,33.9c183.1,27.7,373.7,62.2,391.4,71.5
		c19.3,10.5,26.3,40.1,22,93.7c-9.7,125.7-52.6,450.4-48.9,370.9c1.6-27.1,7.5-85,14-128.8c26.8-192.9,32.8-293.9,17.7-313
		c-17.7-22.8-89.1-37.6-471.4-96.7c-207.3-32.7-232-35.1-243.2-27.1c-25.2,17.9-39.7,84.4-49.4,220.6c-3.2,47.4-11.8,133.1-18.8,191
		c-7.5,57.3-16.1,147.3-19.9,199l-6.4,94.9l13.4,11.7c21.5,19.1,61.7,29.6,155.2,39.4c48.9,4.9,127.3,15.4,174.5,22.2
		c74.1,10.5,137.5,18.5,335.6,40.1c32.2,3.7,37,2.5,50.5-10.5c8.1-8.6,19.3-30.2,24.7-48.7c12.4-40.7,14-27.7,2.1,17.9
		c-9.7,38.2-23.6,56.1-44,56.1C5786.5,6060.4,5778.5,6059.2,5777.4,6058z"/>
	<path fill="#272121" d="M5935.2,5401.1c0-25.3,1.1-35.7,2.1-22.8c1.1,12.3,1.1,33.3,0,46.2
		C5936.3,5436.9,5935.2,5426.4,5935.2,5401.1z"/>
	<path fill="#272121" d="M4736.2,5926.7c-13.4-1.2-150.9-16-306.1-32.7l-281.9-30.2l-14.5-18.5c-8.1-10.5-16.1-27.7-17.7-39.4
		c-2.1-12.3,3.2-78.3,12.9-155.9c9.1-74.6,18.8-161.4,22-193.5s10.2-97.4,16.1-144.8c5.4-47.4,11.3-105.4,13.4-129.4
		c5.4-70.2,13.4-106.6,27.9-126.3c11.8-16.6,16.6-18.5,43-18.5c41.9,0,122.4,14.2,278.1,49.3c74.1,16.6,178.8,38.8,233.6,49.9
		c95.6,18.5,127.8,30.2,133.2,48.1c1.1,4.3-2.7,2.5-8.6-4.3c-6.4-7.4-19.3-14.2-29-16c-9.7-1.8-52.6-9.2-95.6-16.6
		c-43-6.8-131-25.3-196-40c-65-15.4-148.7-34.5-186.3-42.5c-81.1-17.9-149.3-22.2-162.2-9.9c-14.5,14.2-24.2,65.9-37.6,210.1
		c-7.5,76.4-18.3,178.7-24.7,228c-18.8,151.6-32.2,301.3-29,319.8c4.3,24.6,18.8,38.2,43.5,41.3c65,8,201.9,23.4,347.9,39.4
		c91.8,9.9,180.4,19.7,197.1,22.2c40.3,4.9,83.8-2.5,95-15.4c7-8,16.6-71.5,43-287.7c18.8-152.2,37-300.1,41.3-329l7-52.4l-2.1,64.7
		c-1.1,35.7-14.5,157.7-29,271.1c-22.6,171.3-38.1,300.7-38.1,321.6c0,1.8-6.4,12.3-14,22.8
		C4804.4,5932.3,4801.2,5932.9,4736.2,5926.7z"/>
	<path fill="#272121" d="M1304.6,5308.1c-11.8-27.7-20.4-51.1-18.8-53c2.7-3.1,31.1,58.5,40.8,88.1
		C1336.8,5374,1326,5356.1,1304.6,5308.1z"/>
	<path fill="#272121" d="M3445.9,5783.8c-132.1-16.6-241.6-31.4-243.2-33.3c-4.3-4.9,7-159,19.9-272.3c5.9-50.5,15-142.3,20.9-203.3
		s17.2-167.6,24.2-237.2c7.5-69.6,13.4-133.7,13.4-142.3c0-30.8,8.6-32.7,95-18.5c44,7.4,114.4,18.5,157.3,25.3
		c103.6,16.6,198.7,35.1,185.2,36.4c-5.9,0.6-103.1-13.6-215.9-31.4c-112.8-17.3-206.7-30.2-208.9-27.7
		c-1.6,1.8-15,128.2-29.5,279.7c-14,151.6-32.8,343.8-41.3,427c-8.6,83.2-15,151.6-14.5,152.8c3.2,3.7,70.3,14.2,176.1,25.9
		c62.8,7.4,146.6,18.5,186.3,24.6c103.6,17.3,154.6,14.8,171.3-8.6c3.8-4.9,13.4-70.9,22-146.6c65-572.4,75.7-671.6,73.6-674.1
		c-1.1-1.2-16.6-5.5-33.8-8.6l-31.7-5.5l37,2.5c20.4,1.8,38.1,4.3,39.7,5.5c3.8,4.9-8.1,124.5-25.8,253.2
		c-8.6,64.7-19.3,154.7-24.2,200.3c-4.8,45.6-10.7,99.8-13.4,120.8c-3.2,20.9-9.1,77-13.4,125.7c-11.3,121.4-24.2,152.8-65.5,157.1
		C3695.6,5812.1,3578.6,5799.8,3445.9,5783.8z"/>
	<path fill="#272121" d="M2904.1,5709.8c-141.2-16-258.8-31.4-261.5-34.5c-2.7-3.7-7.5-20.3-10.2-37.6
		c-5.4-27.1-136.4-575.5-194.9-812.1c-11.3-46.8-20.9-86.9-20.9-88.7c0-5.5,87,4.9,171.8,20.3c45.6,8.6,131,22.2,189.5,30.8
		c58.5,8.6,172.4,26.5,252.4,40.1c80.5,13.6,166.5,26.5,191.2,29l44.6,3.7l-2.7,25.3c-1.6,14.2-21.5,208.3-44,431.9
		c-22.6,223.7-41.9,410.4-43,414.7c-1.6,3.7-5.4,6.8-9.1,6.8C3163.5,5738.8,3044.8,5725.8,2904.1,5709.8z M3186.6,5544.7
		c27.4-253.9,66.6-622.3,68.7-651.9l1.6-24.6l-40.3-4.9c-35.4-4.3-280.3-41.3-523.5-79.5c-182.6-28.3-261.5-39.4-263.1-35.7
		c-2.1,3.7,5.4,36.4,66.6,283.4c27.4,110.3,62.8,255.7,77.9,323.5c15.6,67.8,38.7,166.4,51.5,219.4l23.1,96.1l56.9,4.3
		c50.5,3.7,171.8,17.9,373.7,43.1c35.4,4.9,69.3,8.6,75.7,9.2C3165.6,5727.7,3167.3,5719.1,3186.6,5544.7z"/>
	<path fill="#272121" d="M3741.8,4940.9c6.4-1.2,16.1-1.2,21.5,0c4.8,1.8-0.5,3.1-12.3,2.5
		C3739.1,4943.3,3734.8,4942.1,3741.8,4940.9z"/>
	<path fill="#272121" d="M7286.8,5326.6c-27.9-6.8-77.3-16-110.1-21.6c-96.7-14.8-141.8-35.1-117.6-50.5c6.4-4.3,11.3-3.7,15.6,1.2
		c6.4,7.4,296.9,69,301.2,64.1c1.1-1.8-1.1-7.4-4.8-12.9c-4.8-8-36-15.4-132.6-32c-162.7-27.7-162.2-27.1-158.4-33.9
		c3.2-6.2,11.8-4.9,118.1,15.4c41.3,8,89.7,16,107.4,18.5c53.2,6.8,97.7,37,85.9,58.5C7386.6,5342.6,7343.7,5339.5,7286.8,5326.6z"
		/>
	<path fill="#272121" d="M7226.1,5244.6c-87.5-17.9-161.1-33.9-162.2-35.7c-1.6-1.8,2.7-10.5,9.1-20.3
		c11.3-16.6,12.9-16.6,47.8-12.9c19.9,1.8,54.2,8,75.7,12.9c21.5,5.5,62.3,13.6,91.3,18.5c65.5,11.7,93.4,24,103.6,46.8
		c9.7,20.9,9.7,24,1.6,23.4C7389.3,5277.3,7314.1,5262.5,7226.1,5244.6z M7380.7,5253.3c-9.7-18.5-97.2-41.9-214.2-58.5
		c-72-10.5-94.5-9.2-45.1,2.5c15.6,3.7,79.5,19.1,141.2,33.9C7393.6,5262.5,7385,5261.3,7380.7,5253.3z"/>
	<path fill="#272121" d="M7367.3,5210.1c-10.2-2.5-84.3-19.1-164.8-37l-146.1-32l8.1-17.9c7-16,10.7-17.9,33.3-17.9
		c14,0.6,44.6,4.3,68.2,9.2c23.6,5.5,72,14.8,107.4,22.2c78.4,14.8,89.7,19.7,110.1,46.8C7408.1,5215.7,7406,5220,7367.3,5210.1z
		 M7370,5179.3c-11.8-14.8-31.1-21.6-102-33.3c-30.1-5.5-72-13.6-93.4-19.1c-43-10.5-89.7-12.3-94-3.7c-1.6,2.5,25.2,11.1,60.1,18.5
		c34.4,7.4,99.3,21.6,143.4,31.4C7384.5,5194.7,7382.3,5194.7,7370,5179.3z"/>
	<path fill="#272121" d="M7220.7,5112.8c-127.3-27.7-159.5-37-158.4-44.4c4.3-24,44.6-30.2,99.3-15.4c18.3,4.9,60.7,14.8,94.5,21.6
		c71.4,14.2,103.6,25.9,120.3,44.4c11.8,12.9,16.6,30.2,8.6,29C7382.3,5147.9,7308.8,5131.9,7220.7,5112.8z M7365.7,5117.1
		c-23.6-15.4-240-65.9-256.1-59.8c-5.9,1.8,239.5,64.7,257.7,65.9C7373.2,5123.2,7373.2,5122,7365.7,5117.1z"/>
	<path fill="#272121" d="M7284.1,5068.4c-23.6-6.8-72.5-17.3-107.9-24c-86.4-16.6-114.9-30.2-114.9-54.8c0-19.7,163.2,3.1,266.3,37
		c41.3,13.6,70.9,35.1,64.4,46.8C7386.1,5083.8,7334,5081.3,7284.1,5068.4z M7380.2,5061.6c-6.4-12.3-41.9-25.3-109.5-40
		c-37-7.4-83.8-18.5-104.7-23.4c-40.3-10.5-84.3-12.9-90.7-5.5c-2.1,3.1,63.4,20.3,145.5,39.4
		C7388.8,5071.5,7385.6,5070.9,7380.2,5061.6z"/>
	<path fill="#272121" d="M7310.9,5008.6c-5.9-1.2-44.6-11.1-85.9-21.6c-41.3-10.5-94.5-22.2-118.1-25.9c-37.6-6.2-43-9.2-44.6-20.3
		c-1.1-9.2,3.2-17.3,12.9-24c14-11.1,17.7-10.5,146.6,18.5c135.3,30.8,143.9,33.3,158.4,50.5c17.7,19.7,10.7,27.1-24.7,26.5
		C7336.7,5011.7,7316.8,5010.5,7310.9,5008.6z M7359.8,4987.1c-40.8-24-230.9-70.9-269.6-65.3c-40.8,5.5-9.7,16.6,127.8,46.2
		c80.5,17.3,150.3,31.4,154.6,32C7377,5000,7371.1,4994.5,7359.8,4987.1z"/>
	<path fill="#272121" d="M7223.4,4923c-86.4-20.9-158.9-39.4-160.5-41.9c-5.9-6.8,21.5-34.5,34.4-34.5c20.4,0,232,48.7,251.3,57.9
		c9.7,4.9,22,16,26.8,24.6C7395.2,4963.7,7389.8,4963.7,7223.4,4923z M7372.7,4935.3c0-9.2-63.9-34.5-123.5-48.1
		c-69.8-16-155.7-28.3-155.7-22.8c0,3.7,253.4,73.3,270.1,73.9C7368.4,4939,7372.7,4937.8,7372.7,4935.3z"/>
	<path fill="#272121" d="M7324.3,4882.9c-27.9-6.8-93.4-21.6-145-33.3c-110.1-24.6-125.1-29.6-122.4-44.4
		c4.3-27.7,41.3-25.3,176.1,10.5c37,9.2,81.1,20.9,97.7,24.6c31.7,7.4,67.7,36.4,60.7,49.3
		C7387.2,4897.1,7387.2,4897.1,7324.3,4882.9z M7364.6,4871.9c-9.1-17.3-221.2-74.6-274.9-74.6c-43.5,0-7.5,12.9,126.2,44.4
		C7381.3,4881.7,7368.9,4879.2,7364.6,4871.9z"/>
	<path fill="#272121" d="M7217.5,4797.3c-135.8-32.7-155.7-40.1-156.3-57.3c0-2.5,6.4-7.4,15-11.1c17.7-8,58.5-3.1,114.9,13.6
		c23.1,6.2,61.7,16,85.9,21.6c24.7,5.5,52.6,13.6,63.4,18.5c33.3,16,57.5,53,33.8,51.1C7368.9,4833,7298.6,4817,7217.5,4797.3z
		 M7361.9,4807.2c-12.4-13.6-54.8-26.5-150.3-46.8c-48.9-10.5-96.7-21.6-106.3-25.3c-13.4-4.9-19.9-4.9-24.2,0
		c-3.2,3.7-4.8,6.8-3.2,7.4c1.1,0,66,16.6,144.4,36.4s143.4,36.4,145,36.4C7368.4,4815.8,7366.2,4812.1,7361.9,4807.2z"/>
	<path fill="#272121" d="M7278.7,4750.5c-26.3-8-81.1-22.8-120.8-32.7c-84.3-20.9-103.6-28.3-100.9-39.4
		c3.2-10.5,25.8-22.8,41.9-22.8c7.5,0,33.8,5.5,59.1,12.9c25.2,6.8,76.2,20.3,113.3,30.2c76.2,19.7,113.8,38.2,111.1,54.2
		C7379.6,4769,7335.1,4768.3,7278.7,4750.5z M7367.3,4748.6c0-16-174-64.1-255.1-70.9c-48.3-4.3-47.3-3.7,115.4,38.8
		c75.2,19.7,137.5,36.4,138.5,37C7366.8,4753.5,7367.3,4751.7,7367.3,4748.6z"/>
	<path fill="#272121" d="M3674.1,4414.7c-28.5-12.9-81.6-63.5-103.6-98.6l-10.7-17.3l19.9-25.3c25.8-32.7,58.5-54.2,88.6-59.2
		c52.6-8,141.2,29.6,161.6,69c9.1,18.5,12.4,19.7,45.6,22.2c40.8,3.1,51.5,12.9,46.2,44.4c-6.4,41.3-12.9,49.9-40.3,51.8
		c-27.9,1.8-47.3-6.2-47.3-20.3c0-12.9-7.5-11.7-19.3,3.7c-16.1,20.9-61.2,42.5-88.1,41.9C3713.3,4427,3689.7,4421.4,3674.1,4414.7z
		 M3801.4,4386.3l19.3-22.2l-13.4-4.9c-11.8-4.3-201.9-42.5-212.1-42.5c-7,0,4.3,28.3,18.3,45c27.9,35.1,56.4,46.2,120.8,46.8
		l47.3,0.6L3801.4,4386.3z M3880.3,4367.8l-20.4-2.5l2.7-24.6c1.6-12.9,0.5-24-2.1-24c-5.4,0-6.4,45-1.1,51.1
		c1.6,2.5,11.8,3.7,22.6,3.1l19.3-0.6L3880.3,4367.8z M3908.2,4350.6c1.1-1.2,0.5-8-1.6-14.8c-4.3-15.4-28.5-17.9-32.8-3.7
		c-6.4,17.9,2.1,29.6,18.3,24.6C3900.2,4354.3,3907.7,4351.8,3908.2,4350.6z M3839.5,4331.5c-12.3-16.6-24.2-20.3-104.2-36.4
		c-85.9-17.3-126.7-19.1-144.4-8c-10.2,6.2,4.8,10.5,103.6,30.2c63.4,12.3,123.5,22.8,133.7,23.4
		C3843.8,4341.3,3845.4,4340.1,3839.5,4331.5z M3810,4269.9c-29-29.6-84.8-48.7-126.2-43.7c-28.5,3.7-80.5,25.9-80.5,35.1
		c0,1.8,40.3,8.6,90.2,14.8c49.4,6.2,99.3,13.6,111.1,15.4c11.8,2.5,22.6,3.7,24.2,1.8C3830.4,4292,3821.8,4281.6,3810,4269.9z"/>
	<path fill="#272121" d="M1037.2,4383.2c-19.3-70.2-24.2-99.2-26.3-147.9c-1.6-33.3-1.1-60.4,0.5-60.4c4.8,0,36.5,106.6,49.9,169.4
		c14.5,68.4,16.6,109.1,5.9,118.9C1061.9,4468.3,1055.4,4451,1037.2,4383.2z M1050.6,4331.5c-7.5-32-18.8-70.2-24.7-84.4l-10.7-25.9
		l3.2,33.9c3.8,43.1,15.6,98,30.6,144.8l11.8,37l1.6-22.8C1063.5,4401.1,1058.1,4364.1,1050.6,4331.5z"/>
	<path fill="#272121" d="M1051.1,4232.3c-4.3-8.6-52.1-203.9-52.1-212.6c0-4.3,6.4-0.6,13.4,9.2c17.2,22.2,34.4,86.9,39.7,152.2
		C1057,4231.7,1056.5,4242.8,1051.1,4232.3z M1036.6,4114c0-3.7-2.1-8-5.4-9.9c-2.7-1.8-5.4,0.6-5.4,5.5c0,5.5,2.7,9.9,5.4,9.9
		C1034.5,4119.5,1036.6,4117.1,1036.6,4114z"/>
	<path fill="#272121" d="M1487.7,4105.4c-29.5-17.9-41.3-30.2-54.2-54.8c-10.7-22.8-12.9-34.5-12.9-81.9c0.5-48.1,2.1-59.8,15-87.5
		c45.1-99.2,119.7-136.2,184.2-91.2c52.6,37.6,69.8,116.5,45.1,207c-19.9,74.6-66.6,116.5-129.9,116.5
		C1516.1,4113.4,1495.2,4109.7,1487.7,4105.4z M1575.2,4092.4c24.7-11.7,60.7-60.4,72-98c13.4-45.6,13.4-123.8-1.1-151.6
		c-19.3-37.6-36-46.8-83.2-46.8c-26.8,0-45.1,3.1-49.4,8c-8.1,9.2-2.1,9.2,22,1.2c41.3-13.6,74.1,27.7,79.5,99.2
		c5.4,63.5-23.1,133.1-60.7,151c-9.7,4.9-20.9,8.6-24.7,8.6c-3.8-0.6,0.5-4.3,9.1-8.6c24.2-12.3,48.9-43.1,59.1-74.6
		c12.3-35.7,9.1-115.2-4.8-139.9c-14.5-25.3-39.7-32.7-74.6-20.9c-48.9,16-78.9,64.7-83.2,133.1c-2.1,33.3,0,45.6,9.1,66.5
		c6.4,14.8,17.7,29.6,24.7,33.3c9.7,4.9,11.8,9.2,8.1,14.2c-4.3,5.5,0.5,11.1,17.2,20.9C1520.4,4102.9,1550,4104.7,1575.2,4092.4z"
		/>
	<path fill="#272121" d="M1258.9,3764.6c-27.4-11.1-56.9-43.1-73-78.3c-10.2-22.2-12.3-37.6-14-109.7c-1.6-71.5-0.5-91.2,9.1-131.2
		c34.9-145.4,127.3-257.6,224.4-272.3c59.1-8.6,90.7,12.9,117.6,78.9c14.5,37,15.6,43.1,15.6,122c0,77.6-1.1,86.9-17.2,137.4
		c-31.7,102.3-97.7,207-152,240.9C1335.7,3773.2,1291.1,3778.8,1258.9,3764.6z M1343.8,3749.8c83.8-27.1,182-233.5,183.1-385.1
		c0-60.4-7.5-93.7-32.2-134.3c-27.9-46.2-64.4-53-128.3-22.2c-42.4,20.3-55.3,35.1-16.6,19.7c37.6-15.4,84.3-8.6,84.3,11.7
		c0,5.5-1.6,5.5-6.4,0c-3.8-4.3-21.5-7.4-41.3-7.4c-113.8,0-200.3,143.6-201.4,332.7c-0.5,55.5,1.1,69,11.8,93.7
		c29,67.2,82.2,70.2,141.2,7.4c17.2-18.5,32.8-33.3,34.4-33.3c6.4,0-8.6,24-28.5,44.4c-36,37.6-82.2,49.9-121.9,33.3
		c-7.5-3.1-5.9,0,5.4,11.1C1257.8,3751.7,1303,3762.8,1343.8,3749.8z"/>
	<path fill="#272121" d="M1323.9,3603.8c8.6-128.2,22-200.3,47.3-257.6c17.2-40.1,47.3-91.2,50.5-86.9c1.6,1.8-8.1,22.2-22,45
		c-39.7,67.8-59.1,147.9-65.5,274.8c-2.1,39.4-5.9,72.1-8.6,72.1S1322.3,3630.3,1323.9,3603.8z"/>
	<path fill="#272121" d="M1384.6,3608.1c5.9-11.7,19.3-38.2,30.1-58.5c45.6-87.5,62.8-215,36.5-272.3c-6.4-14.8-9.7-26.5-6.4-26.5
		s10.7,12.9,17.2,29c29,74.6-8.6,250.8-69.3,326.6l-18.8,23.4L1384.6,3608.1z"/>
	<path fill="#272121" d="M1248.2,3550.2c-9.7-43.7,32.8-64.7,53.7-26.5c4.3,7.4,2.7,12.9-4.3,22.2c-5.9,7.4-12.9,12.9-16.1,12.3
		c-3.2,0-3.2-1.8,1.1-3.7c3.8-1.2,9.1-8.6,12.3-15.4c7-15.4-2.1-29.6-19.3-29.6s-26.3,14.8-22,37
		C1257.3,3568.7,1253,3571.1,1248.2,3550.2z"/>
	<path fill="#272121" d="M1213.3,2923c22-26.5,41.3-46.2,43-45c1.1,1.8,1.1,3.7,0,4.9c-1.6,0.6-20.4,20.3-42.4,44.4l-40.3,43.1
		L1213.3,2923z"/>
	<path fill="#272121" d="M6862,3688.2c-48.9-45.6-76.8-61-119.7-65.9c-41.9-4.3-67.1,4.9-96.1,34.5l-22,22.2l11.3-21.6
		c15-27.7,49.9-49.3,80-49.3c49.4,0,132.6,43.1,174,89.3C6920.6,3733.2,6903.9,3727.7,6862,3688.2z"/>
	<path fill="#272121" d="M6843.2,3939.6c-9.1-11.7-9.1-12.9-0.5-9.2c10.7,4.3,12.4-1.8,2.7-12.9c-4.8-5.5-4.8-7.4,0-7.4
		c3.8,0,6.4-8,6.4-18.5c0-9.9,2.1-18.5,4.3-18.5c2.7,0,4.3,12.9,4.3,29c-0.5,24,1.1,29.6,9.7,31.4c8.6,1.8,9.7-0.6,7.5-16.6
		c-1.6-13.6-0.5-17.3,3.8-12.9c3.8,3.1,7.5,5.5,8.6,4.3c1.1-0.6,0.5,1.2-1.6,4.9c-2.7,3.1-4.3,11.7-4.3,19.7
		c0,14.2-12.3,19.7-18.8,8c-5.4-9.9-13.4-7.4-10.2,3.1C6859.3,3956.9,6855,3955.6,6843.2,3939.6z"/>
	<path fill="#272121" d="M6905.5,3947c0-3.1,2.7-6.2,5.9-6.2c2.7,0,3.8,3.1,2.1,6.2c-1.6,3.7-4.3,6.2-5.9,6.2
		C6906.6,3953.2,6905.5,3950.7,6905.5,3947z"/>
	<path fill="#272121" d="M6896.9,3878.6c-7.5-9.9-8.1-14.2-3.2-16c3.2-1.8,6.4-6.8,6.4-11.7c0-4.9-3.2-6.8-8.1-4.9
		c-12.9,5.5-19.3-3.1-12.3-16c5.4-9.2,8.1-10.5,14-4.3c6.4,6.2,27.9,54.8,27.9,63.5C6921.6,3896.5,6906.1,3889.7,6896.9,3878.6z"/>
	<path fill="#272121" d="M6867.9,3869.4c0-17.3,8.1-15.4,12.4,3.7c1.6,8,0,12.3-4.8,12.3C6871.2,3885.4,6867.9,3879.2,6867.9,3869.4
		z"/>
	<path fill="#272121" d="M6841.1,3852.1c0-5.5,3.8-11.7,8.1-14.2c13.4-5.5,14.5,1.2,2.7,13.6C6842.2,3862,6841.1,3862,6841.1,3852.1
		z"/>
	<path fill="#272121" d="M6830.3,3837.9c0-8,15.6-23.4,18.8-19.1c1.6,1.8-2.1,8-8.1,14.2C6835.2,3839.2,6830.3,3841,6830.3,3837.9z"
		/>
	<path fill="#272121" d="M3204.8,3263.1c-112.2-21.6-239.5-119.5-310.4-237.2c-23.1-38.8-56.4-122-65-163.3
		c-11.3-56.1-9.1-173.8,4.8-224.9c23.6-88.7,80.5-165.1,154.1-205.8c51.5-29,84.8-37.6,146.6-37.6c116.5,0,242.7,65.3,327,168.8
		c85.9,104.7,125.6,213.2,125.6,343.8c0.5,109.7-25.8,183-94,260.6c-43,48.7-87.5,78.3-138,92.4
		C3319.2,3269.8,3247.3,3271.1,3204.8,3263.1z M3348.2,3241.5c100.4-30.2,177.7-111.5,211-221.2c24.7-82.6,16.1-200.9-22.6-295.8
		c-56.4-140.5-161.1-248.3-285.1-293.3c-47.8-17.3-138.5-23.4-186.3-12.9c-106.9,24-194.9,125.1-221.8,253.9
		c-39.7,195.9,68.7,423.9,252.9,531.1c27.4,16,84.3,38.2,109.5,43.1C3239.7,3253.2,3318.7,3250.1,3348.2,3241.5z"/>
	<path fill="#272121" d="M3169.4,3219.9c-87.5-26.5-182-99.8-236.3-181.8c-78.9-120.8-98.3-292.7-46.2-410.4
		c31.7-72.1,113.3-139.9,185.8-154.7c70.9-14.2,219.6,27.7,274.4,77c19.3,17.9,7.5,14.8-37-9.2c-77.9-41.9-117.6-54.8-175-58.5
		c-57.5-3.7-88.1,2.5-129.9,26.5c-59.1,33.9-105.2,94.9-126.2,167.6c-19.3,64.7-11.8,213.8,12.9,251.4c6.4,10.5,7,8.6,2.7-12.9
		c-9.1-43.7-4.8-56.7,4.8-15.4c12.9,56.1,23.6,77,65.5,126.9c20.4,24,49.9,62.8,65,86.3c23.6,35.1,34.9,46.2,66,64.1l37.6,21.6h77.9
		c76.8,0,78.4-0.6,114.4-19.7c47.3-25.9,100.4-83.8,121.9-133.1c27.4-62.8,19.3-65.9-17.2-7.4c-55.8,90-82.7,104.1-192.8,101
		l-73-2.5l-47.3-27.1c-85.4-48.7-155.7-147.3-177.7-248.3c-12.3-58.5-8.6-152.2,7.5-187.3c17.7-40.1,36.5-61.6,80.5-94.9
		c44-33.3,39.2-42.5-8.1-15.4c-39.2,22.8-83.8,79.5-107.9,136.8c-16.6,40.7-20.4,56.1-22.6,103.5l-3.2,55.5l-4.3-40.1
		c-11.8-109.1,38.1-215.7,121.9-261.2c59.6-32,158.9-43.7,221.2-25.3c109.5,32,201.4,138.6,235.7,274.2
		c23.1,90,20.9,198.4-4.8,263.1c-33.8,85-119.2,143.6-209.4,143.6c-14.5,0-24.2,3.1-24.2,6.8c0,10.5,92.9,0.6,123.5-12.3
		c13.4-5.5,38.1-20.9,55.8-33.9c17.2-12.3,32.2-21.6,33.8-20.3c4.3,5.5-40.3,41.3-72,57.9c-27.4,14.8-38.7,17.3-92.9,18.5
		C3222.6,3231.6,3200,3229.8,3169.4,3219.9z M3331,3109.6c40.3-17.9,89.7-70.2,109-115.2c56.9-133.7-25.8-340.7-169.7-425.8
		c-27.9-16.6-32.8-17.3-102-17.3c-71.4,0-73,0-106.3,20.3c-91.3,54.8-134.8,161.4-111.7,274.8c26.3,128.8,118.7,235.4,234.1,271.7
		C3225.2,3131.2,3290.8,3126.9,3331,3109.6z M2975,3062.8c-7-8.6-14-14.2-15-12.3c-3.8,4.3,15.6,27.7,22,27.7
		C2985.2,3078.2,2982,3071.4,2975,3062.8z"/>
	<path fill="#272121" d="M3237.1,2864.4c3.2-1.2,9.7-1.2,13.4,0c3.2,1.8,0.5,3.1-7,3.1S3233.3,2866.3,3237.1,2864.4z"/>
	<path fill="#272121" d="M3274.6,2864.4c3.2-1.2,9.7-1.2,13.4,0c3.2,1.8,0.5,3.1-7,3.1S3270.9,2866.3,3274.6,2864.4z"/>
	<path fill="#272121" d="M3297.2,2857.6c0-2.5,4.8-8,10.7-12.3c6.4-4.3,13.4-14.2,16.1-21.6c2.7-7.4,4.8-9.2,4.8-4.3
		s-5.9,16.6-12.9,26.5C3303.1,2862.6,3297.2,2866.3,3297.2,2857.6z"/>
	<path fill="#272121" d="M3195.7,2836.7c-7.5-14.2-7.5-14.2,4.3-2.5c11.8,12.3,13.4,16,7,16
		C3204.8,2850.2,3200,2844.1,3195.7,2836.7z"/>
	<path fill="#272121" d="M3230.1,2844.1c-10.2-4.9-10.2-5.5,1.6-5.5c6.4-0.6,11.8,2.5,11.8,5.5c0,3.7-0.5,6.2-1.1,5.5
		C3241.4,2849.6,3236,2847.2,3230.1,2844.1z"/>
	<path fill="#272121" d="M3275.7,2838.5c0-3.7,2.7-8,5.4-9.9c3.2-1.8,5.4,0.6,5.4,5.5c0,5.5-2.1,9.9-5.4,9.9
		C3278.4,2844.1,3275.7,2841.6,3275.7,2838.5z"/>
	<path fill="#272121" d="M3267.7,2813.3c-1.6-3.1-0.5-6.2,2.1-6.2c3.2,0,5.9,3.1,5.9,6.2c0,3.7-1.1,6.2-2.1,6.2
		C3272,2819.4,3269.3,2817,3267.7,2813.3z"/>
	<path fill="#272121" d="M3191.4,2794.8c-3.2-9.9-3.8-18.5-1.1-18.5s3.2-9.2,1.6-19.7l-3.2-20.3l8.6,17.9c4.8,9.9,7.5,19.1,5.9,20.9
		c-4.8,6.2,8.6,19.1,16.6,15.4c4.3-1.8,7.5,0,7.5,3.7c0,9.2-12.3,8.6-20.9-0.6c-5.9-6.8-6.4-5.5-3.2,6.2
		C3208.6,2820.1,3198.4,2816.4,3191.4,2794.8z"/>
	<path fill="#272121" d="M3262.3,2776.3c-1.6-3.1-0.5-6.2,2.1-6.2c3.2,0,5.9,3.1,5.9,6.2c0,3.7-1.1,6.2-2.1,6.2
		C3266.6,2782.5,3263.9,2780,3262.3,2776.3z"/>
	<path fill="#272121" d="M3325.1,2770.1c0-8.6,1.1-11.7,2.7-7.4c1.1,3.7,1.1,11.1,0,15.4C3326.2,2781.9,3325.1,2778.8,3325.1,2770.1
		z"/>
	<path fill="#272121" d="M3169.4,2764c0-8.6,1.1-11.7,2.7-7.4c1.1,3.7,1.1,11.1,0,15.4C3170.5,2775.7,3169.4,2772.6,3169.4,2764z"/>
	<path fill="#272121" d="M3224.7,2750.4l-21.5-26.5l23.1,24.6c12.3,12.9,22.6,24.6,22.6,25.9
		C3248.9,2779.4,3244,2774.5,3224.7,2750.4z"/>
	<path fill="#272121" d="M3297.2,2757.2c0-3.1,2.7-4.3,5.4-2.5c3.2,1.8,5.4,4.9,5.4,6.8c0,1.2-2.1,2.5-5.4,2.5
		C3299.9,2764,3297.2,2760.9,3297.2,2757.2z"/>
	<path fill="#272121" d="M3261.8,2739.3c0.5-17.3,2.7-21.6,11.3-21.6c6.4,0,11.3,4.9,12.4,12.3c1.6,9.9,0.5,11.1-4.8,4.9
		c-10.7-11.7-14.5-9.9-17.2,9.2C3261.2,2756.6,3261.2,2755.4,3261.8,2739.3z"/>
	<path fill="#272121" d="M3227.4,2736.3c-14.5-17.3-11.3-33.9,6.4-33.3h12.3l-12.3,6.8l-11.8,6.8l11.3,14.8
		c7,7.4,10.7,15.4,9.1,17.3C3241.4,2750.4,3234.4,2744.9,3227.4,2736.3z"/>
	<path fill="#272121" d="M3297.7,2717.8c-10.2-11.7-15.6-21.6-12.9-21.6c5.4,0,23.6,21.6,30.6,35.7
		C3321.9,2744.3,3317.1,2740.6,3297.7,2717.8z"/>
	<path fill="#272121" d="M3184.4,2709.8c0-7.4,10.2-16,14-11.7c1.1,1.2-1.1,6.2-5.9,10.5C3187.7,2713.5,3184.4,2713.5,3184.4,2709.8
		z"/>
	<path fill="#272121" d="M3442.2,3144.8c0-2.5,8.6-17.9,19.3-33.3c42.4-64.7,58.5-125.7,54.2-205.8c-5.9-98-31.1-162-106.9-268.6
		c-42.4-59.8-49.9-77-22-52.4c47.8,43.1,117.1,186.7,133.7,277.3c15,82.6,7,142.3-29.5,210.7
		C3472.8,3108.4,3442.7,3152.2,3442.2,3144.8z"/>
</g>
</svg>
