<?xml version="1.0" encoding="utf-8"?>
<!-- Generator: Adobe Illustrator 24.1.1, SVG Export Plug-In . SVG Version: 6.00 Build 0)  -->
<svg version="1.0" id="Layer_1" xmlns="http://www.w3.org/2000/svg" xmlns:xlink="http://www.w3.org/1999/xlink" x="0px" y="0px"
	 viewBox="0 0 841.9 595.3" enable-background="new 0 0 841.9 595.3" xml:space="preserve">
<g>
	<path fill="#020203" d="M82.8,389.2c-1-7.6,2.4-14.3,4.4-21.3c2.1-7.4-3.7-22.1-10.2-24.8c-2.6-1.1-2.7,0.8-2.4,2.4
		c2.5,13.8,4.6,27.6,5.4,41.5c0.1,1.7,0.5,3.5,2.9,3.6C82.8,390.2,82.8,389.7,82.8,389.2z"/>
	<path fill="#020203" d="M78.7,337.2c3-2.8,1.5-5.6-0.2-8.3c-2.8-4.4-0.4-9.6-1.9-15.2c-3.6,9.1-0.3,16.9,1.2,24.7
		C78.1,338,78.4,337.6,78.7,337.2z"/>
	<path fill="#020203" d="M83.9,290.8c2.9-0.3,2.3-2.8,3.1-4.6c0.7-1.4,1-4.5,4-2.4c0,0-0.2,0.2-0.2,0.2c-1.1-2.7-0.1-5.5,0.2-8.2
		c-0.3-0.4-0.6-0.8-0.9-1.2c-3.3,4.4-4,9.8-6.2,14.6C83.9,289.8,83.9,290.3,83.9,290.8z"/>
	<path fill="#020203" d="M91,275.8c0.4-0.4,0.9-1.3,1.3-1.3c2.4,0.2,1.2,1.5,0.6,2.5c-0.8,1.4-1.1,2.7,0.8,3c1.8,0.3,1-1.5,1.3-2.3
		l0.6-4.8c-2.7-1.1-3.5-0.8-5.5,1.8C90.4,275,90.7,275.4,91,275.8z"/>
	<path fill="#020203" d="M88.7,354.6c2,5.6,3.5,9.6,4.8,13.6c0.4,1.3,0.9,2.3,2.1,1.7c0.6-0.3,0.9-2.7,0.6-2.9
		C92,364.3,93.6,358.5,88.7,354.6z"/>
	<path fill="#020203" d="M84,296.4c-1.6,4-1.3,5.1,3.1,13c0.4-0.3,0.8-0.6,1.1-0.9c-0.5-4.4-4.7-7.5-4.4-12.2L84,296.4z"/>
	<path fill="#020203" d="M108.1,262.4c-5.3-1-7.4,2.4-10.4,3.3C101.5,266.9,103.8,263.9,108.1,262.4z"/>
	<path fill="#020203" d="M83.9,296.2c1.4-0.8,4.4-0.9,2.6-3.3c-2-2.8-2.8-0.7-2.2,1.4c0.2,0.9,0.7,1.4-0.3,2.1
		C84,296.4,83.9,296.2,83.9,296.2z"/>
	<path fill="#020203" d="M96.5,412.5c-1.3-1.5-2.9-2.3-4.9-2.6c-0.3,3.1,2.7,2.3,3.8,3.5C95.7,413.1,96.1,412.8,96.5,412.5z"/>
	<path fill="#020203" d="M77.8,338.4c0.6,0.4,1.2,0.8,1.8,1.2c0.5-1.1,0.3-2-1-2.4C78.4,337.6,78.1,338,77.8,338.4z"/>
	<path fill="#020203" d="M82.8,390.7c0.3-0.2,0.7-0.3,1-0.5c-0.3-0.3-0.7-0.7-1-1C82.8,389.7,82.8,390.2,82.8,390.7z"/>
	<path fill="#020203" d="M83.9,289.3c-0.3,0.3-0.7,0.7-1,1c0.3,0.2,0.7,0.3,1,0.5C83.9,290.3,83.9,289.8,83.9,289.3z"/>
	<path fill="#FFFFFF" d="M100.6,295c5.3,10.7,0.8,21.7,0.6,32.6c-0.1,6.4,0.9,11.5,6.3,15.3c2.4,1.7,2.5,5.5,5.8,6.6
		c0.7,0.2,0.9,1.8,2.1,1c1-0.7,0.9-1.3,0.6-2.7c-3.4-13.6-1-27.5-1.7-41.2c-0.2-3,1.2-5.4,3-6.8c0.1,15.9-1.7,32.1,1.1,48.2
		c0.8,4.7,3.8,5.5,7.6,4.1c-3.3-17.2-3.3-34.2,0.6-51.1c0.3,18.1-2.7,36.5,4.8,54c-3.2-12.1-3.7-24.5-3.6-37
		c0.1-5.7,1.9-10.8,2.9-16.3c0.2-1.2,2.4-3.8,0.3-3.4c-2.1,0.4-4.1-3.1-5.9,0.1c-2.2,3.8-5.4,7.5-5.3,11.9
		c0.2,9.2-1.5,18.5,1.1,27.7c0.6,2.1,0.1,4.5,0.1,7.6c-3.5-10-3.6-34.8-0.7-43.9c0.7-2.1,3.8-5-0.3-6.5c-3.2-1.2-4.5,1.8-5.9,4.2
		c-6.3,10.2-4.2,21.3-3.3,32.1c0.2,3.1,0,6.2,1,10.1c-2.8-2.1-0.5-5.8-3.8-6.5c-2.6,1.9,1.9,4.1,0,6.3c-2.9-3.8-2.9-37.4-0.1-43.2
		c1.8,1.6,0,3.9,1.5,6c0.9-2.8,1.7-5.3,2.7-7.8c0.5-1.1,1.1-2-0.3-2.8c-1.8-1.1-4.2,0.7-8.1,6.4c-2-2.9,3.9-7.2-1.6-9.1
		c-2.3-0.8-1.4,2.5-2.8,3.1C99.8,294.4,100.2,294.7,100.6,295z"/>
	<path fill="#FFFFFF" d="M136.7,299.3c-4.3,3.7-5.7,8.4-6.2,14.1c-1.1,12.9-0.7,25.6,2.9,38c0.4,1.3-0.9,3.9,1.7,3.4
		c1.9-0.4,0.7-2.4,0.4-3.9c-2.2-14.4-3.5-28.8-0.7-43.2c0.5-2.5,1.8-4.9,2.8-7.3C137.3,300.1,137,299.7,136.7,299.3z"/>
	<path fill="#FFFFFF" d="M139.1,300.1c-2.2,18.9-3.4,37.8,1.2,56.3c0.8-0.1,1.6-0.1,2.4-0.2c-0.8-4-1.6-8.1-2.4-12.1
		c-2.5-14.2-2.2-28.4,1.4-42.5c0.6-2.4,0.4-2.5-2.8-1.3L139.1,300.1z"/>
	<path fill="#FFFFFF" d="M99.4,294c-3.3,1.6-0.5-2.9-3.2-2.6c1,12.4-1.7,24.9,2.1,38.3c2.7-12.3,0.9-23.6,2.2-34.7
		C100.2,294.7,99.8,294.4,99.4,294z"/>
	<path fill="#FFFFFF" d="M138.9,300.3c-0.1-0.8-0.2-1.6-0.3-2.4c-0.6,0.4-1.2,0.9-1.8,1.3c0.3,0.4,0.6,0.8,0.9,1.2
		c0.5-0.1,1-0.2,1.5-0.3C139.1,300.1,138.9,300.3,138.9,300.3z"/>
	<g>
		<path fill="#020203" d="M294.9,276.5c-0.8-1.7,0.3-1.7,1.5-1.9c4.1-0.8,8.2-2.2,12.3-2.4c10.2-0.3,20.6-6.8,30.7,0.7
			c0,0.2,0.1,0.6,0,0.7c-6.7,5.9-16.2,8.4-20.7,17c-7.2-1.4-12.1,4.3-18.3,5.8c-14.1,3.4-28.5,5.9-42.8,8.8l0.1,0.1
			c-0.3-2.2,0.7-4.2,1.6-6.2c1.1-2.6,0.8-4.6-1.3-6.7c-2.1-2.1-3.8-1.2-6-0.2c-3.8,1.7-7.7,3-11.7-0.7c-1.5-1.4-4.8-1.4-6.9,0.6
			c-1.7,1.7-1.2,4-0.8,5.8c0.6,2.9,3.3,2.5,5.6,2.6c1.3,0.1,3.3-1,4.1,2.5c-4.8-1.2-9.6,2.1-13.5-0.8c-1.7-1.3-2.6-2.1-4.2-1.2
			c-1.9,1-2.3,3.4-1.4,4.8c2,3.2,0,4.7-1.9,6.7c-1.2,1.2-2.3,2.8-3,4.3c-6.7,14.4-16.5,25.7-30.6,33.5c-5.4,3-10.9,4.5-16.6,3.3
			c-3.1-0.6-6.2-0.8-9.3-1.2c-9.1-0.9-18.3-1.6-27.3-3.1c-13.9-2.3-27.9-4.7-41.6-8c-6.6-1.6-14.7-1.7-19.1-7.7
			c-10.3-14.1-12.9-30.4-11.5-47.6c0.5-6.1,4.7-13.1-2.3-18.6c-0.4-0.3,0-1.7,0.1-2.6c0,0-0.2,0.2-0.2,0.2c6,3.1,12.4,5.4,19,6.7
			c21.2,4.2,42.4,7.4,63.9,9.9c31.7,3.6,63.4,5.9,95.3,5.2c2,0,4.1,0.1,6.1-0.3c9.5-2,19.1-2.8,28.8-2.4c6,0.3,12-0.4,17.1-4.3
			c1.4,2.3-1.3,5.2,1.1,7.4c-0.4,0.3-0.7,0.7-1.1,1c-1.7,0.4-1.4,3.7-4.1,2.9c-0.5-5.3-1.9-5.4-9.6-0.2c-7.6-1.7-9.3,4.2-11.9,9.1
			c11.3-0.3,11.3-0.3,11.7-9.3c3.2,2.4,6.6-0.4,9.9,0.3c-2.1,5.8,3.1,4.8,5.2,4.6c3.2-0.2,6.2-1.9,9.6-2.1c2.4-0.2,4.2-2.1,1.5-4.6
			c-2.1-1.9,0-2.6,1-3.6c2.1-2.1,1.6,0.8,2.3,1.3c3.2,2.3,6.9,2.5,10.4,1.5c2.8-0.8,1.8-3.9,1.2-5.2c-2.2-5.3-7.7-3.8-10.4-2.1
			c-3.1,2-4.9,1.4-7,0c-3.3-2.2-6.8,0.3-10.1-0.8c2.7-2,6.1-3.1,9.1-2.6c10.5,2,20.6-2.4,31-1.8c1.1,0.1,4.3-0.7,3.7-2.7
			c-0.5-1.4-2.6-2.4-5.3-1.9c-11.1,2.1-22.4,3.5-33.6,5.2L294.9,276.5z M198.2,319c0.1-5.9,0.1-11.8,0.1-19.2
			c-3.8,8.2-1.1,15.3-1.8,22.3c-2,4.1-0.5,8.4-0.9,12.6c-0.1,1.2,1.2,2.6,1.7,2.3c1.3-0.5,2.5-2.2,1.5-3.5
			c-2.7-3.5-1.2-7.8-2.4-11.5C199.3,322.5,198.2,320.1,198.2,319z M221.3,308.3c0.5-1.1,0.3-2-1-2.4c-0.1-3.1-1.4-6.5,3.7-7.5
			c2.6-0.5,2.1-4,1.5-6c-0.9-3.1-2.8-1.1-4.7-0.4c-1.5,0.6-3.6,0.8-5.1-0.7c-4.6-1.4-8.6,1.7-9.1,8.2c-0.6,8.6-0.2,17.3-0.1,25.9
			c0,1.1,0,2.6,1.6,2.2c1.6-0.4,2.5-1.7,2.5-3.6c-0.1-6.6,0.1-13.2-0.1-19.8c-0.1-4.6,0.8-8.6,4.1-12c-0.4,5.6,0.3,10.7,4.8,14.7
			C220.1,307.5,220.7,307.9,221.3,308.3z M107.5,279c-0.6,0.4-1.2,0.9-1.8,1.3c-4.3,3.7-5.7,8.4-6.2,14.1c-1.1,12.9-0.7,25.6,2.9,38
			c0.4,1.3-0.9,3.9,1.7,3.4c1.9-0.4,0.7-2.4,0.4-3.9c-2.2-14.4-3.5-28.8-0.7-43.2c0.5-2.5,1.8-4.9,2.8-7.3c0.5-0.1,1-0.2,1.4-0.3
			c-2.2,18.9-3.4,37.7,1.2,56.3c0.8-0.1,1.6-0.1,2.4-0.2c-0.8-4-1.6-8.1-2.4-12.1c-2.5-14.2-2.2-28.4,1.4-42.5
			c0.6-2.4,0.4-2.5-2.8-1.3C107.7,280.6,107.6,279.8,107.5,279z M168.2,331.6c-0.1,5.5,1.1,10.7,3.7,15.9c2.5-1.5,1.9-3.5,1.5-5
			c-4.6-17.3-3.8-34.6-0.1-51.9c0.3-1.3,0.9-3-0.6-3.4c-1-0.3-2.3,0.9-3.5,1.4c0.3-2.5-1.2-2-2.3-1.1c-4.8,3.8-7.4,8.9-7.8,14.8
			c-1,12.7,0.1,25.3,2.2,37.8c0.4,2.3,1.5,3.9,2.4,5.7c2.5-0.7,2-2.4,1.7-3.5c-3.3-14.3-3.4-28.7-1.3-43.2c0.6-4.1,2.2-7.8,5.3-10.8
			C167.2,302.8,168.4,317.2,168.2,331.6z M142.1,329c-0.1,5.1,1.1,9.8,4.3,15c2.5-5.6-1.3-9.2-1.8-13.3c-1.7-14.6-1.2-29,1.8-43.3
			c0.5-2.5,0.2-2.5-3.2-1.5c0.4-1.7-0.9-2.3-1.8-1.4c-3.7,3.8-7.5,7.6-7.5,13.5c0.1,13.7-0.9,27.4,2.7,40.9c0.4,1.6,0.6,3.7,2.1,3.5
			c1.9-0.3,1.8-1.8,1.2-4.1c-3.9-14.2-1.4-28.8-1.6-43.2c0-3.1,2.3-6.9,5-9.5C141.1,300,142.4,314.6,142.1,329z M154.4,329
			c0,5.5,1.2,10.6,3.6,16c3.8-3.1,0.6-5.5,0.4-7.7c-1.6-16.3-3-32.5,1.4-48.6c0.3-1,0.6-2.5-0.7-3c-2.6-0.9-1.6,3-3.7,2.9
			c0.6-3.9-0.8-4.3-3.2-1.6c-3.1,3.5-6,7.4-6,12.1c0,13.6-1.2,27.4,2.6,40.8c0.6,2.1,0.9,4.8,3.2,4c2.7-0.9-0.2-3-0.5-4.4
			c-2.6-14.1-0.9-28.4-1-42.5c0-3,1.4-6.9,5.1-8.6C154,301.9,154.5,315.4,154.4,329z M70.1,308.6c-0.1,6.4,0.9,11.5,6.3,15.3
			c2.4,1.7,2.5,5.5,5.8,6.6c0.7,0.2,0.9,1.8,2.1,1c1-0.7,0.9-1.3,0.6-2.7c-3.4-13.6-1-27.5-1.7-41.2c-0.2-3,1.2-5.4,3-6.8
			c0.1,15.9-1.7,32.1,1.1,48.2c0.8,4.7,3.8,5.5,7.6,4.1c-3.3-17.2-3.3-34.2,0.6-51.1c0.3,18.1-2.7,36.5,4.8,54
			c-3.2-12.1-3.7-24.5-3.6-37c0.1-5.7,1.9-10.8,2.9-16.3c0.2-1.2,2.4-3.8,0.3-3.4c-2.1,0.4-4.1-3.1-5.9,0.1
			c-2.2,3.8-5.4,7.5-5.3,11.9c0.2,9.2-1.5,18.5,1.1,27.7c0.6,2.1,0.1,4.5,0.1,7.6c-3.5-10-3.6-34.8-0.7-43.9c0.7-2.1,3.8-5-0.3-6.5
			c-3.2-1.2-4.5,1.8-5.9,4.2c-6.3,10.2-4.2,21.3-3.3,32.1c0.2,3.1,0,6.2,1,10.1c-2.8-2.1-0.5-5.8-3.8-6.5c-2.6,1.9,1.9,4.1,0,6.3
			c-2.9-3.8-2.9-37.4-0.1-43.2c1.8,1.6,0,3.9,1.5,6c0.9-2.8,1.7-5.3,2.7-7.8c0.5-1.1,1.1-2-0.3-2.8c-1.8-1.1-4.2,0.7-8.1,6.4
			c-2-2.9,3.9-7.2-1.6-9.1c-2.3-0.8-1.4,2.5-2.8,3.1c-3.3,1.6-0.5-2.9-3.2-2.6c1,12.4-1.7,24.9,2.1,38.3c2.7-12.3,0.9-23.6,2.2-34.7
			C74.9,286.8,70.3,297.8,70.1,308.6z M133.6,341.5c2.1-5.2-0.7-10-1.4-14.8c-1.7-11.5-1.6-22.7,0.3-34.1c0.5-3.1,4.5-7.2,0.2-9.1
			c-5.7-2.6-8.5,3.6-9.3,7.1c-3.9,15.7-1.3,31.5,1.1,47.3c0.2,1.3,1.6,2.8,2.9,2.2c1.8-0.8,0.7-2.4,0.4-4
			c-2.9-14.7-3.2-29.4-0.7-44.2c0.5-2.8,1-3.1,2.7-5C130.9,304.5,127,323.4,133.6,341.5z M119.8,318.5c-0.4-11,0.2-21.7,1.6-32.5
			c0.2-1.4,3.4-3.3,0.3-4.3c-1.9-0.6-4.4-1-6.3,1.1c-2.4,2.7-4.7,5.8-4.7,9.3c0.2,15.6-2,31.5,4.1,46.8c-0.7-18.2-4.9-36.6,2.5-54.2
			c0.5,18.6-2.3,37.4,4.3,55.5C122.6,332.8,120.1,325.8,119.8,318.5z M172.5,312.1c-1.3,10,1.4,20,2.5,30c0.3,2.4,1.8,3.4,3.9,4.8
			c-1.5-19.8-6.4-39.6,4.6-59.2C171.3,293.1,173.6,303.6,172.5,312.1z M188.2,311.7c0.2,10.2-0.9,21,4.6,31.9c2.5-19-5.4-38,7-55.4
			C187.3,293.1,188,303.2,188.2,311.7z M183.2,297.4c0.1,11.6,0.1,23.1,0,34.7c0,2.8,0.8,5.2,1.4,7.8c0.3,1.2-0.5,3.2,1.6,2.9
			c1.5-0.2,2.9-1.4,2.3-3.4c-4.4-15-2.8-30.1-1.2-45.2c0.2-1.9-0.1-3.9-0.2-5.9C184.2,291.1,183.1,294,183.2,297.4z M203.7,293.8
			c0-1.5,1.3-4.1-1.8-4.1c-3.6-0.1-2.5,3.1-2.1,4.5c2.4,7.6,0.9,15.2,1.1,22.8c0.1,3.5-1,7-1.2,10.6c-0.1,1.6-1.4,4.6,2.2,4.5
			c3-0.1,1.7-2.7,1.8-4.2c0.2-5.7,0.1-11.3,0.1-17C203.8,305.1,203.9,299.4,203.7,293.8z M245.5,288.3c-0.9,0-1.9,0.2-1.8,1.4
			c0.1,1.1,1,1.5,1.9,1.2c7.1-2.7,14.8-1.9,23.7-3.1C260.1,285.5,252.9,288.4,245.5,288.3z"/>
		<path fill="#020203" d="M134.7,380.4c-20.3-3.5-40.5-7.2-60.3-12.7c-1.4-0.4-3.6-0.9-5.3,1.4c6.5,4.3,14,4.9,21.1,6.5
			c23.1,5.2,46.4,9.5,70,12.7c8.7,1.2,17.2,2.9,26,2.6c1.9-0.1,4.4,0.6,3.8-2.9c5.2,1.7,10.5,3.3,13,8.9c-3.1-1.3-6.3-1.9-9.8-2
			c-17.7-0.3-35-3.8-52.4-6.6c-21.2-3.4-42.3-7.4-63.1-12.4c-2.2-0.5-4.1-1.5-6.1-2.5c-1.2-0.6-2.9-0.9-3.4,0.7
			c-0.5,1.6,0,2.4,2.2,3.2c10.4,3.6,21.2,5.8,32,8c21,4.4,42.1,8.5,63.5,11.1c9.4,1.2,18.6,2.8,28.1,2.6c3.2-0.1,6.2-0.3,8.8-2.4
			c3.7,1.3,7,3.4,11.8,7.2c-9.9-2.6-17.9-1.1-25.8-1.5c-17.5-0.9-34.8-4.3-52.1-7.2c-20.7-3.5-41.3-7.7-61.6-13
			c-3.2-0.8-13.1,1.1-9.8-9.1c-3.8,2.4-5.2,6.6-4.4,9.3c1.2,4.2,2.2-3.6,4.5-1c0.3,0.3,0.8,0.3,1.2,0.5c16.9,8.9,35.7,10.6,54,14.4
			c14.5,3.1,29.2,5.5,43.9,7.7c11.5,1.7,23.1,4.2,34.8,3.1c4.6-0.4,9.3-1.2,14-1.3c4.8-0.1,9.7,0.4,9.9,7.1c0,0,0.2-0.2,0.2-0.2
			c-3.4-0.9-6.4-2.8-10.1-2.6c-23.7,1.2-47-2.1-70.2-6.7c-25.3-4.9-51-7.9-75.1-17.6c-1-0.4-1.8-0.3-2.4,0.4
			c-1.9,2.3-3.7,2.1-6.5,0.9c-4.2-1.8-6.3,1.7-7.1,5c-0.9,4.1,1.7,4,4.8,3c1.5-0.5,2.2,1.3,3.3,2c4.7,2.9,9.4,5.2,15,6.5
			c5.5,1.2,11.1,2.8,16.4,4.7c17.1,6.1,34.6,10.1,52.5,13c7.2,1.1,15.2,1.2,20.9,6.9c2.2,2.2,4.9,1.8,7.2,2.8
			c4.7,2.1,10.6-0.7,15,3.6c-11.3,2-21.6-3.1-32.6-2.6c-14.6,0.7-28.3-4.3-42.1-8.3c-7.7-2.2-12.5-10.2-21.1-10.1
			c-8.4,0-13.3-8.9-21.6-8.6c-6.6,0.2-11.7-1.1-16.9-6.1c-7.5-7.3-9-17.9-1.5-26.2c0.9,5.6-4.7,10.2-2.7,16.6
			c5.4-6.7,5.9-15.6,13.8-19.1c-0.6-7.4,4.8-7.1,9.2-6.3c14.3,2.8,28.4,6.4,42.7,9.2c10.9,2.2,21.8,3.9,32.8,5.6
			c12.7,2,25.5,3.6,38.2,6c1.3,0.2,6-0.9,5.1,3.7C171.6,386.2,153.1,383.6,134.7,380.4z M126.1,421.2c-0.2,0.3-0.3,0.7-0.5,1
			c-0.6,1.9,1.4,2.5,2.2,2.7c9.9,2.1,19.8,5,30.3,3.2c-10.3-1.9-20.6-3.9-30.9-5.8C126.8,421.9,126.4,421.6,126.1,421.2z
			 M118.9,421.4c2.1,1,3.4,3.4,5.9,1.6C123.7,420,121.4,421.1,118.9,421.4z"/>
		<path fill="#020203" d="M330.7,423.5c2.8-2.9,3.3-6.9,3.1-10.4c-0.4-12.7,2.8-24.6,5.3-36.9c2.5-12.8,5.7-25.2,11.2-37.1
			c7.8-16.7,18.9-29.7,35.7-37.9c7.7-3.7,15.2-7.5,23.5-9.7c23.6-6.5,47,4.5,52.3,30.7c2.7,13.6,3.7,27.3,5.1,41
			c0.5,5.2-1.8,10.1-1.4,15.4c0.5,8.5,4.4,11.5,12.6,8.9c25.1-7.9,50-16.4,75.3-23.7c24.9-7.1,49.5-15.1,74.2-23
			c13.6-4.3,26.8-10.1,40.7-12.8c7.7-1.5,7.7-6.2,8.2-10.6c1.9-15.4,6-30.3,10.3-45.1c2.8-9.9,7-19.6,14.4-27
			c9.2-9.1,20.2-14.6,33.7-13.2c6.1,0.6,8.1,6.2,12.1,9.4c0.8,0.6,0.9,2.2,2.5,1.7c0-0.5,0-1-0.1-1.5c-2.2-7.5-8.6-13.3-16.6-13.6
			c-20.4-0.7-36.6,12.1-44.7,29.4c-7.2,15.4-10.7,32-12.8,48.9c-0.5,3.9-2.8,7.4-3,11.5c-0.2,5.2-0.3,5.2-5.4,6.9
			c-30.7,10.1-61.3,20.3-92.3,29.5c-30.4,9-60.3,19.2-91,27.2c-2.8,0.7-5,2.6-8.1,2.9c-4.9,0.5-7.8-1.8-6.9-6.6
			c1.9-10.7,1.4-21.4,0.1-32.2c-0.8-6.2-0.6-12.6-1.7-18.8c-2.7-15.6-9.2-29.4-23.6-36.9c-9.4-4.9-20.2-5.9-31.2-3.1
			c-19.8,5-37.7,12.9-51.6,28.6c-10.3,11.7-16.7,25.3-21,39.8c-6.5,21.8-10.7,44.2-9.9,67.1C330.1,422.7,330.4,423.1,330.7,423.5z"
			/>
		<path fill="#020203" d="M528.1,204.8c-10.1,4.3-21.8-0.5-30.9,3.4c-8.5,3.7-16.9,5.2-25.9,7.6c2.7-4.6,5.2-8.5,7.4-12.6
			c11.5-22.2,25.2-43,40.1-63c5.2-6.9,12.5-11.5,20.8-15.2c19.3-8.4,39.9-8.8,60.1-10.4c16.7-1.3,33.6-0.8,50.3,1.2
			c7.2,0.9,14.5,2.2,21.6,3.8c14.1,3.1,20.9,15.3,29.6,24.9c1.6,1.7,4.3,3.2,4.4,6.5c0.2,6.5-9.2,18.4-15.6,19.6
			c-5.4,1-10.8,2.3-16.2,3.5c-20.1,4.3-40.2,8.7-60.3,12.9c-19.3,4-38.5,8.2-57.8,11.7c-7.9,1.4-15.6,5.6-24.1,2.1
			c-8.9-3.7-18.9,0.5-28-2.7c-0.5-0.2-1.6,0-1.9,0.5c-3.5,4.6-8.6,3.3-13.3,3.7c-2.5,0.2-5.6-1.5-7.5,2.7
			C497.1,204.8,512.6,204.8,528.1,204.8z M630.5,117c-16.1-0.3-32.2,1.1-48.3,1.4c-3.8,0.1-4.9,1.2-4,4.7c5.5,20.4,9,41.1,10.7,62.1
			c0.4,5.1,4,3.5,5.7,2.9c9.8-3.6,20.2-3.8,30.2-6.4c13.2-3.4,26.8-5.7,40.2-8.3c3.5-0.7,2.2-3.1,1.9-4.7c-1.2-5.9-2.7-11.7-4-17.5
			c4.1,4.7,4.6,10.7,5.6,16.4c0.5,3.2,0.9,4.8,5,3.4c3.7-1.2,7.7-1.8,11.8-2c8.3-0.4,14.9-7.3,16.5-15.7c1-5.4-3.8-7.6-6.2-10.7
			c-4.8-6.3-11.1-11.4-16.7-17.1c-3-3.1-7-2.3-10.5-3.5c-6.8-2.3-14-2-21-3.4c-2.5-0.5-4.4,0-4.9,2.9
			C639.3,117.8,635.3,117,630.5,117z M576.8,123.9c-0.7-3.2-2.1-4.5-5-4c-16.2,3.2-32.8,5-45.5,17.6c-7.2,7.1-12.6,15.5-18.7,23.5
			c-4.7,6.1-7.4,13.4-12.4,19.4c-1.9,2.3-3.8,5.5-3.5,9.1c0.1,1.9,1,4.9-3.1,3.3c-0.2-0.1-1.7,2.7-2.3,4.3c-0.4,1.1,0,2.3,1.6,2.2
			c1.6-0.1,3.9,0.9,3.8-2.2c0-0.7,0.6-2.2,1.2-0.5c1.8,5.1,3.3,3.4,5.3,0.2c0.4-0.6,1.6-1,2.4-0.9c12,2.3,24.5-3.4,36.2,2.2
			c2.8,1.3,5.2,0.1,7.5-0.3c13.2-2.4,26.3-5.4,39.5-8c2.3-0.5,3.5-1,3.1-3.2C585.7,165.1,581.1,144.5,576.8,123.9z"/>
		<path fill="#020203" d="M57.2,289.5c3.1,2.4,2.6,5.9,2.6,9.2c0,10.2-1.2,20.6,4.1,30.2c3.5,6.4,6.1,13.6,14.6,15.3
			c13.6,2.8,27.2,5.9,40.9,8.3c15.5,2.7,31.2,4.8,46.8,6.8c4.2,0.5,8.9,1.4,12.8-0.6c14.9-7.5,30.2-14.3,37.6-31.3
			c3.2-7.3,8.2-13.4,18.1-14.8c31.4-4.4,62.3-11.6,92.4-21.8c0.4,0.3,0.8,0.6,1.1,0.9c-0.4,0.5-0.8,1.3-1.3,1.5
			c-27.5,10.4-56.2,16.3-84.8,22.3c-6.4,1.3-11.9,3.1-15.1,9.8c-7.2,15-19,26-33.5,33.9c-4.6,2.5-8.4,6.2-14,7.1
			c-8.5,1.3-16.6-0.6-24.9-1.4c-24.1-2.4-47.7-7.4-71.3-12.6c-4.7-1.1-10.9-1.5-13.6-6c-6-10-11.9-20.1-12.5-32.3
			c-0.4-7.9,1.3-15.8-1-23.6C56.4,290.1,56.8,289.8,57.2,289.5z M156.5,362.5c0,0.2,0,0.4,0,0.6c8.7,0,17.4,0,26.1,0
			c0-0.2,0-0.4,0-0.6C173.9,362.5,165.2,362.5,156.5,362.5z"/>
		<path fill="#020203" d="M446,215.2c9.4-6,12.6-16.6,17.9-25.5c5.6-9.3,11.2-18.7,16.2-28.5c4.6-8.9,10.8-16.9,16.5-25.2
			c1.9-2.8,4.2-5.5,6.4-8.1c0.7-0.8,2.2-1.2,1.7-2.5c-0.4-0.9-1.4-1.5-2.7-1.6c-14.7-1.3-29.4-2.7-44.2-4.1
			c-19.6-1.9-39.3-1.9-58.9-3.1c-19.8-1.2-39.6,0-59.3-1.1c-15.5-0.8-25.7,9.2-36.9,17.1c-24.4,17.2-47.5,35.9-69,56.7
			c-2.1,2.1-4.8,0.6-7.5,3.3c16.8,7.8,34.3,8.8,51.8,10.3c-5.1-5.4-12.7-2.7-19-5.2c-5.8-2.4-14.1-4.4-22.5-2.1
			c5.8-10.3,14.6-16.6,22.2-23.6c14.7-13.4,29.6-26.7,46.4-37.7c9.9-6.5,19-14.5,31.5-15.9c5.5-0.6,10.7,1.9,16.1,1.4
			c16.7-1.8,33.4-0.4,50.1,0.1c24,0.7,47.9,2.7,71.8,5.1c6.7,0.7,13.4,1.7,20.2,1.7c0.9,0,3-1.1,2.8,1.1c-0.1,1.3-0.5,2.8-2.8,3.1
			c-4.3,0.4-8.3-1.1-12.6-1.3c1.3,3.3,3.8,2.6,6,2.6c4.5-0.2,5.4,1.9,2.9,5.1c-2.4,3-3.7,6.5-5.5,9.8c-0.5,0.9-1.5,2.1-2.7,1.3
			c-0.5-0.3-0.8-1.5-0.8-2.3c0.2-4.9,0-9.8-2.4-15.1c-0.2,5.4-0.8,9.9,0.8,14.7c0.9,2.8,1.8,5.9-0.8,9.7c-7,10.5-12.6,22-19.1,32.9
			c-3.4,5.7-6.5,11.7-10.8,16.8c-1.1,1.3-0.9,2.4-3.7,1.8c-7.3-1.6-14.7,0.8-22.2,1c-0.7,0-2.7,0.7-2.2,2.6c0.5,0,1,0,1.5-0.1
			c6.5-1,13.1-0.4,19.7-1.3c4.3-0.6,3.5,3.5,3.2,6.4L446,215.2z"/>
		<path fill="#020203" d="M742.9,272.6c5.1,11.9,7.1,24.2,5.7,37.3c-2.8-10.8-2.9-22.4-10.4-32c-0.4,4.1,0,6.7,3.5,12.7
			c2.3,3.8,2.2,7.6,2.2,11.7c0,1.6-0.4,2.6-2.3,2.4c-1.4-0.1-3-0.9-2.6-2.2c0.6-1.8,3.3-3.2,1.8-5.3c-1.4-1.9-0.6-4-1.7-6.6
			c-6.5,8.1-9.4,18.6-18.7,24.1c4.7,0,8.4-2,11.1-5.4c2.4-3,5.5-3.5,9-3.3c3.1,0.1,4.5,1.1,4.7,4.4c0.5,8.2-0.9,16-2.8,23.9
			c-1,4.4-5.7-0.2-7,3.2c0.3,0.4,0.6,0.8,0.9,1.1c3.8-1.8,4.7-0.7,3.8,3.2c-0.9,3.7-2.7,6.9-4.2,10.2c-2,4.6-6.3,7.8-6.1,14.4
			c0.2,6.2-16,15.3-22.3,15.1c-15.1-0.6-29.8-2.6-43.4-9.8c-0.4,0.3-0.8,0.6-1.2,0.9c3.3,4,7.8,5.3,12.7,6.4
			c7.7,1.7,15,5.4,22.7,6.3c23.7,2.7,37-15.3,43.7-33.7c3.9-10.6,5.5-21.8,6.9-32.9c0.2-1.8,1.2-2.3,2.2-3.5
			c5.4-6.1,9.8-12.7,10.4-21.6c1-16.7,1.9-33.5,1-50.2c-0.7-12.8-0.8-25.6-4.4-38.5c-2.2-7.7-4.4-16-5.8-24.2
			c-0.8-4.9-6.8-7.6-11.3-10.4l0.2-0.2c-5.1,8.2,5.3,4.9,6.5,9c-2,1.1-7.2,1.4-1.1,5.1c5,3.1,6.9,8.7,8,14.8
			c2.4,12.5,4.6,25,5.1,37.6c0.4,9.6-1.1,19.3-1.1,28.9c0,7.4-1,14.8,0.9,22.2c1,4.1-3.6,2.8-5.9,3.6c5.1,5.5,4,12.7-2.3,19
			c-1-16.6,0.5-34.1-2.5-51.4c-2.7-15.1-13.5-20.9-28.1-15.8c-6.6,2.3-12.9,5.5-17.7,11c0.5,0.6,0.8,1.1,0.9,1.1
			c2.4-0.7,4.5,1.2,7.1-3c4.5-7.5,13.8-8.5,22.2-7.6c7.7,0.8,11,7.2,12.7,13.6c1.6,6.3,2.6,13.1,1.2,19.9c-2.8-1.2-1.4-4.8-3.6-6.3
			C743.7,272,743.3,272.3,742.9,272.6z"/>
		<path fill="#020203" d="M559.4,97c-10.2,2.5-20.7,3.5-30.2,9c32.3-10.4,65.6-7.7,98.6-8.1c0.9,1.7-1.2,2.2-1.6,3.9
			c9.5,0.6,18.6,0.4,28.3-1.9c-1.8,3.5-4.7,0.9-6.1,3.1c7.9,1.1,15.7,2.1,23.5,3.2c-5.6-5-12.4-7.1-19.3-8.1
			c-14.3-2.2-28.7-3.8-43.1-2.7c-6.4,0.5-3-4.6-4.7-6.9c-4.2,1.5-9,1.4-13.2,5.7c4.7,0,8.5,0,13.4,0c-2.8,3.7-6,2.9-8,2.3
			c-6.7-2-13.5-1.3-20.3-1.1c-19.6,0.7-39.1-0.7-58.6-1.8c-24.3-1.4-48.6-4.6-73-3.5c-25,1.1-50.4,0.8-74.9,6.8
			c-11.9,2.9-23.2,7.7-32.9,15.9c8.3-2.6,16.5-5.4,24.9-7.7c15.9-4.3,32.2-6.2,48.3-8.9c17-2.8,34.1-2.4,51.1-3
			c12.6-0.5,25.7-0.6,38.5,1.5c3.8,0.6,7.7,0.6,11.6,0.6C527.6,95.1,543.4,97.3,559.4,97z"/>
		<path fill="#020203" d="M329.8,422.3c-16.1,2.9-32.1,4.9-48.5,6.1c-11.6,0.8-22.9-0.7-34.3-0.6c-4.6,0-6.8-4.6-10.3-6.8
			c-4.5-2.8-7.5-8.3-13.8-8.1c0,0,0.2-0.2,0.2-0.2c-4.8,2.9-9.6,5.6-15.7,5.7c-14.6,0.1-28.7-3.3-43.1-5.2
			c-12.3-1.6-24.6-3.6-36.8-6.1c-19.1-3.9-38.6-6.6-56.7-14.2c-2.5-1.1-3.6,1.9-5.5,0.6c-0.4,0.3-0.8,0.6-1.1,0.9
			c5.5,6.5,13.8,6.6,21,8.5c26.5,7.1,53.5,11.8,80.5,16.4c9.7,1.6,19.6,2.6,29.7,1.8c11.5-0.9,23,1.4,34.6,1.5
			c6.5,0.1,10.7,6.6,16.1,9.9c7,4.2,13.8,8.6,21.9,10.4c0.4-0.3,0.7-0.6,1.1-1c-6.2-3.4-12.4-6.8-18.6-10.2
			c10.7,1.1,21.2,0.3,31.6,0c15.1-0.4,30.1-3.2,45-5.5c1.3-0.2,2.3-1.9,3.5-2.9C330.4,423.1,330.1,422.7,329.8,422.3z"/>
		<path fill="#020203" d="M407,396.7c0.4,0.5,0.8,1.6,1.1,1.6c6.8-0.8,13.9-0.2,19.7-5.5c3.9-3.5,8.2-6.6,14.3-6.1
			c6.2,0.5,4,4.7,4.5,8c0.5,3.5-0.8,4.8-4.4,4.5c-7.5-0.7-14.7,2.3-22.3,1.4c-1.2-0.1-3.4-0.5-3.3,1.2c0.5,5.5-3.4,4.2-6.2,4.2
			c-3.7-0.1-4.2,1-2.8,4.4c2.2,5.3,6.3,9.1,9.7,13.5c7.1,9.1,6.7,19.3,6.9,29.5c-9.4-2.1-7.7-9.5-8.7-15.1c-1.2-7-1.5-14-7.1-20.3
			c0,1.9-0.3,3.1,0.1,4c4.8,10.7,4,22.5,6.7,33.6c1.1,4.8-4.4,3.2-5.8,5.9c-0.6,1.2-1.4-1.3-1.5-1.9c-0.9-5.2-2.8-10.7-1.9-15.7
			c1.8-9.8,1.1-19.1-1.3-28.4c-0.5-2-0.2-5.4-3.2-4.9c-1.9,0.3-2.2,3.2-2.8,5.4c-3.4,12.8-4.6,26.8-18.9,33.4
			c-1.8-1.5-2.2-4.1-3.5-6.1c-0.7-1.1-0.1-1.5,0.4-2.1c0.7-0.7,1.9-1.3,2.3-0.5c3.2,5.7,5.3-0.1,5.9-1.2c4.5-8.5,8.6-17.2,12.8-25.8
			c-7.4,8.7-17.4,14.9-22.2,26.1c-3.8-5.9-3.5-10.1-0.1-14.5c7-8.9,15.7-14.8,27-16.4c1-0.1,1.9-0.3,1.8-1.4
			c-0.5-4.2,3.8-3.5,4.4-3.9c2.3-4-6.1-2.3-1.2-6.5L407,396.7z M436.8,391.1c-3.1,2-6.2,3.8-10.4,6.3c6.4,0.1,11.3-4.3,17-1.2
			C443.2,391.1,440,389,436.8,391.1z"/>
		<path fill="#020203" d="M443.5,380c2.4,0.2,3.4-0.8,3-3.1c-1.4-8.1-2-16.6-10-21.8c-1.8-1.2-1.4-4.3-1-6.6c0.9,0.2,2.1,0,2.5,0.5
			c8.2,10.9,12.5,23.3,14,36.7c1.6,14-0.8,27.8-5.7,40.8c-3.9,10.3-7.9,21.1-19.4,28.3c5.2-20.3-6.7-33.2-17.6-46.5
			c7.8,1.7,14.2,5.2,20,10c3.7,3.1,14.4,2.9,15.8-0.3c4.2-9,4.8-18.6,4-28.2c-0.4-4.4-1.9-8.8-8.2-7c-1.4,0.4-2.7-0.2-3.7-2.7
			C439.4,380,441.4,379.8,443.5,380z M434.1,433.5c0.4-1.8,2.8-3.6,0.5-5.3c-0.9-0.7-3.1-0.3-4.4,0.3c-1.5,0.7-2.3,2.6-1.3,4
			c0.9,1.4,0.9,5.2,4.4,2.9c0.1-0.1,0.6,0.5,0.9,0.8c-1,0.6,2,6.8-2.9,2.1c-0.4-0.4-1.2-0.8-1.7-0.7c-1.1,0.3-1.2,1.5-0.9,2.2
			c1.1,2.5,1.7,5.1,0.8,9.1c8.1-8,12-16.7,14.6-26.2c-2.5,0-5.5,0-9.7,0c6.6,5.5,2.7,9.5-0.3,13.5
			C432.5,435.4,433.9,434.4,434.1,433.5z"/>
		<path fill="#020203" d="M280.8,382.8c-2.4-7.5-7.1-13.7-11.4-20.1c-4-5.9-11.1-5.9-16.3-5.5c-6.3,0.5-12.6,0.7-18.8,0.7
			c-5.5,0-10.6,1.3-16,2.3c13.3,0.7,26.7,1.1,41.3-0.5c-9.7,7.8-5.2,13.5,0.5,19.9c9.7,10.8,18.5,22.3,28.1,33.2
			c4.3,4.9,10.2,6.7,17.1,4.2c-9.2,1.9-10.1-5.9-12.3-10.8c-3.7-8.2-7-16.4-12.5-23.6c-3.6,4.7-0.5,7.8,1.9,11.8
			c1.2,1.9,5.2,4.6,2.8,8.5c-9.5-9-15.9-20.5-25.3-29.3c-3.2-3-1.5-6.5,3.1-7.3c3.2-0.6,12,6.9,11.4,10.5
			C273.4,382.9,276.5,383.2,280.8,382.8z"/>
		<path fill="#020203" d="M453.1,419.3c-3.6,3.6-3.8,7.7-5.4,11.3c-9.4,21.8-22.3,40.2-46.1,48.3c-9.3,3.1-18.1-0.4-27-1.9
			c-7.6-1.4-15.1-3.3-22.6-5.3c-5.1-1.4-9.9-3.7-13.8-7.4c-1.9-1.8-4-3.1-6.8-3.3c5.1,6.7,11.9,11.2,19.8,13.3
			c12.1,3.3,24.3,5.9,36.5,8.9c11.1,2.7,22.4-1,31.1-8.1C436.3,460.9,448.2,442.7,453.1,419.3z"/>
		<path fill="#020203" d="M383.9,455.8c-4.2,0.3-4.4-5.3-8.2-5.6c4.7,17.8,32.9,24.4,50.7,7.4c-6.3,2.4-11.6,4.3-16.8,6.5
			c-3.8,1.6-5.1,1.3-5.9-3.5c-1.4-7.9-3.1-16.2-1.9-23.7c1.2-7.3,0.5-14.1-0.6-21.3c-1.8,6.1-1.6,12.6-4,18.6
			c-2.3,5.9-3.1,12.5-10.9,16c6.4-1.5,5.9,1,3.8,4.1c-1.1,1.7-2.1,3.2,0.2,4.5c2.1,1.2,4.4,2.7,6.5,2.7c1.9-0.1,1.6-2.8,1.6-4.6
			c0-2.5,0-5,0.4-7.5c1.1,3.4,1.4,7.1,2.7,10.1c3.3,7.7-2.8,6.3-5.3,5.2c-4.6-2.1-11.3-2.1-12.5-9L383.9,455.8z"/>
		<path fill="#020203" d="M429.7,343.5c-8.4-6.7-17.6-5.9-27-2.7c-6.7,2.3-12.1,6.9-17.6,11.1c-2.1,1.6-2,4.8-1.6,7.5
			c0,0-0.2-0.2-0.2-0.2c1,0.3,2-1.6,3,0l-0.2,0.2c-0.2-0.2-0.3-0.3-0.5-0.5c6.8-5.1,10-14.5,19.7-16.2c2.1-0.4,4.4-2.3,6.2-0.7
			c2,1.6-1.7,3.2-0.8,5.4c0.8,2-2.7,3.2-0.9,5.7c-2.4-0.3-1.3-2.1-1.8-2.3c-2.2-1.1,0-5.7-3.1-4.8c-2.7,0.8-6.7,1.5-7.6,4.8
			c-0.6,2.3-0.3,5.5,3.6,5.8c1.5,0.1,2,1,1.2,2.2c-0.5,0.7-1,2-2.5,1c-1-0.7-2.3-0.9-4.3-1.5c1.1,4,6.2,4.8,4.2,9.2
			c3-1.1,3.1-3.2,3.8-5.1c-0.3,8.9-1.7,17.6-0.4,27.4c3.5-5,4.5-10,4.9-14.8c0.8-10,1.9-19.7,5.1-29.4c1.6-5,3.1-4.5,6.8-4.4
			c3.4,0.1,5.5,2.9,8.7,3C428.9,344.2,429.3,343.8,429.7,343.5z"/>
		<path fill="#020203" d="M279.1,201.8c0.4,2.6,2.2,3,4.4,2.9c6.3-0.3,12.5,0.1,18.8-1.1c4.6-0.9,9.5,1.5,14.6,1.5
			c10.4,0,20.3,4.1,30.9,3.8c15.4-0.5,30.8,2.1,46.3,1.4c8.8-0.4,17.7-0.1,26.5-0.1c-0.1-3.4-2.3-2.7-4-2.7
			c-7.7,0-15.1-1.2-22.6-2.6c-3.6-0.7-6.8,1.1-10.3,2.2c-5,1.6-11,1.3-16.3,0.2c-11.8-2.4-23.9,0.1-35.7-2.3c-9-1.9-18.4-2.1-27-4.9
			c-4.4-1.4-5.9,2.2-9.1,2c-5-0.2-10-0.1-15.1-0.2C280.2,201.9,279.6,201.8,279.1,201.8z"/>
		<path fill="#020203" d="M64.1,262.8c68.7,16.4,138.1,25,208.9,16.9c-34.8,3.1-69.7,2.5-104.5-1.2
			C133.5,274.9,98.4,271.4,64.1,262.8z"/>
		<path fill="#020203" d="M436,213.5c-17.8-0.8-35.5,1.2-53.3,1.8c-11.1,0.4-22.5,3-33.8-0.8c-5-1.7-10.8,0.1-16.2-0.8
			c-17.2-2.7-34.5-5-51.8-7.1C332,222.1,383.9,219.2,436,213.5z"/>
		<path fill="#020203" d="M84.5,236.3c3.3,1.5,4.5,1.2,6,0.1c20-13.6,42.9-19.5,66-25.2c9.2-2.3,18.6-3.6,27.5-7
			c10.8-4.1,22.4-4.6,33.4-7.7c2.7-0.8,5.1-1.4,8-5.2C177.1,204.7,128.1,209.9,84.5,236.3z"/>
		<path fill="#020203" d="M530.2,125.4c18.3-8.9,37.8-11.5,57.9-12.7c8.8-0.5,17.6-1.1,26.4-1.1c22.8-0.1,45.4,1.1,68.8,8.5
			c-6-5.6-12.5-5.7-18.3-6.9c-10.5-2.1-21.3-3.6-32.1-2.9c-4.1,0.2-7.8-1.8-12-1.5c-20.4,1.2-40.8,1.3-61,5.2
			c-8.9,1.7-17.7,3.4-26.1,7c-2,0.9-3.3,2.1-4.7,3.5C529.4,124.8,529.8,125.1,530.2,125.4z"/>
		<path fill="#020203" d="M446.8,312.3c7.5,7.8,9.9,17.8,12,28c1.3,6.4,2.2,13,1.2,19.4c-0.7,4.1,4.1,10.2-3.6,12.5
			c-0.5,0.2-0.6,3.1-0.2,4.5c3.2,13.5,0.8,26.7-1.7,40.1c3.6-6.6,6.8-13.7,6.8-20.9c0-12.7,2.1-25.2,1.6-37.9
			c-0.4-11.3-1.3-22.6-5.6-33.3c-2-5.1-3.5-10.8-9.4-13.3C447.6,311.7,447.2,312,446.8,312.3z"/>
		<path fill="#020203" d="M299.9,400.4c-2.9-9.1-4.8-18.5-10.6-26.7c-3.6-5.1-4.9-11.7-8.7-16.9c-4.1-5.6-12.7-8.6-19.6-7.6
			c-6.7,0.9-13.6,0.1-20.4,0.7c-7.8,0.6-15.8,0.7-23.3,3.9c0.3,0.4,0.6,0.8,0.9,1.2c10.5-1.5,21-3.1,31.5-2.4
			c5.3,0.3,9.9-2.2,15.3-1.1c11.2,2.3,14.9,11.6,19.4,19.9c5.2,9.8,9.6,20.1,14.4,30.1C299.2,401.1,299.5,400.8,299.9,400.4z"/>
		<path fill="#020203" d="M318.2,239.2c38.6-2.9,75.6-15.3,113.8-20.6C393.1,220,356.2,232.3,318.2,239.2z"/>
		<path fill="#020203" d="M312.9,256.4c42.8-13.1,86.3-23.5,131-33.2c-3.8-3.7-6.2-1-8.4-0.5c-36.6,7.9-72.9,17.1-108.9,27.3
			c-4.9,1.4-10.1,2.4-14.6,5.3C312.3,255.6,312.6,256,312.9,256.4z"/>
		<path fill="#020203" d="M410.8,394c6.3,1.1,10.8-2,15.6-4.6c6.1-3.2,8.5-10.6,15.1-13.6c2.1-1-0.2-13.2-1.9-12.7
			c-2.3,0.7-6.3,0.5-6.8,4c-0.6,4.8-4.3,7.6-6.1,11.5C423.5,385.7,418.4,390.8,410.8,394z"/>
		<path fill="#020203" d="M260.1,447.2c-0.1-2.3-1.8-2.8-3.5-2.8c-9-0.4-16.1-5.1-23.4-9.7c-2-1.3-4.1-3.5-6.8-0.5
			c-0.6,0.7-2.8,0.8-3.7,0.3c-8.6-4.6-18.3-2.8-27.3-5.2c-5.5-1.4-11.2-1.9-17-2.4c8.2,4.2,17,6.3,25.9,7.7
			c14.3,2.2,29.1,2.4,41.9,10.4c4,2.5,8.2,1.8,12.4,2.2C259,447.2,259.5,447.2,260.1,447.2z"/>
		<path fill="#020203" d="M378,393.5c0-0.4,0.1-1.1-0.2-1.3c-9.6-7.4-3-14.9-0.2-22.5c-0.4-0.3-0.8-0.6-1.2-0.9
			c-4.5,0.6-3.9,5.1-4.8,7.6c-4.3,12.1-7.9,25-6.8,37.6c0.9,10.5,0.6,22.1,8,31.5c-3.6-18.7-7.6-37.3-1-56.6c2.2,2.3,3.8,4,5.4,5.7
			C377.4,394.3,377.7,393.9,378,393.5z"/>
		<path fill="#020203" d="M482.6,257.6c-0.9,38.3,0.6,76.6-1.3,114.8C483.9,334.2,486.9,295.9,482.6,257.6z"/>
		<path fill="#020203" d="M530.2,363.6c5.2,1.1,9.7-1.7,14.1-3.3c15.3-5.5,31.1-9.2,46.2-15.1c5.4-2.1,11.4-3.2,17-4.9
			c1.9-0.6,3.6-0.9,2.8-3.5l0.1,0.1c-12.1,3.6-24.4,6.7-36.3,10.9c-9.1,3.2-18.9,4.3-27.4,8.9c-5.6,3.1-12.6,1.5-17.7,5.9
			C529.4,363,529.8,363.3,530.2,363.6z"/>
		<path fill="#020203" d="M413.9,385.6c11-7.9,16.6-18.8,17.5-32.2c0.2-3.4,0.1-3.4-4.9-6.2C424.1,360.5,420,373.3,413.9,385.6z"/>
		<path fill="#020203" d="M377.1,394.7c1.2,5.6-6.3-1.2-5.4,4.3c6.8-0.2,13.5,1.2,21.7,4.3c-8.2,1.8-12.8,8.6-21.4,6.1
			c4.6-0.8,4.3-4.4,5.5-7.1c-10.1-2.4-4.5,7-7.4,9.7c1.3,2.6,8.1-2.6,6.1,5.1c2.6-4.8,7.3-5.4,11.3-7c1.8-0.8,3.7-1.3,5.5-2.2
			c2.5-1.3,3.3-4.1,3.2-6.3c-0.1-2.1-3-2-4.9-2.6c-4.5-1.6-10.4,0-13.3-5.5C377.7,393.9,377.4,394.3,377.1,394.7z"/>
		<path fill="#020203" d="M407,396.7c5.9-7.6,4.3-17.6,8.3-25.5c3.2-6.4,1.9-13.1,4.2-19.3c0.8-2.2,0.7-5.6,4.8-5.7
			c-3.3-0.8-5.8-6-8.4,2.2c-4.3,13.7-2.8,28.5-8.9,41.8c-0.8,1.8,0.1,4.4,0.3,6.7C407.1,396.9,407,396.7,407,396.7z"/>
		<path fill="#020203" d="M386.2,359.3c0,0.5,0.1,1-0.1,1.3c-1.5,2.7-5,6.5-4.2,7.9c2,3.7,5.9,6.5,9,9.6c4.6-6.4-8.1-7-3.6-14
			c9.2,7.9,5.4,21.3,13.5,30.1c-1.9-12.1,0.6-24.7-10.8-33c-1.3-0.9-2.2-2.3-4.1-1.7C386,359.5,386.2,359.3,386.2,359.3z"/>
		<path fill="#020203" d="M383.2,390.9c2,6.5,8.1,4.2,12.1,4.8c2.9,0.4,1.3-3.6,0.3-5.1c-4.7-6.5-9-13.4-15.5-18.3
			c-5.3,9.7-5,11.6,3.3,18.8c1.6-2.4-1.8-4-1.2-5.6c2.3-5.9,3.7,0.1,5.2,0.8c1.9,1,4.2,3.1,2.6,5.3c-1.6,2.2-3.3-1.1-5.2-1.2
			C383.9,390.3,383.6,390.5,383.2,390.9z"/>
		<path fill="#020203" d="M380.2,317.9c8.5,2.6,13.1-5.4,19.9-7.4c15.8-4.7,31.4-8.9,46.6,1.8c0.4-0.3,0.8-0.6,1.2-0.9
			c-3-5.6-9.1-7.3-14.1-7.8c-19.5-2.1-37.4,3.1-53.4,14.5L380.2,317.9z"/>
		<path fill="#020203" d="M695.9,264.8c-8.2,13.7-11.7,29.1-14.8,44.5c-1.7,8.2-2.2,16.8-2.8,25.2c-0.2,3.4-4,5.6-2.4,9.8
			c3.7-3.8,4.7-8.1,5.1-13c0.9-10.4,1.1-21,4.2-30.9c3.7-11.6,5.8-23.8,11.9-34.6C696.7,265.4,696.3,265.1,695.9,264.8z"/>
		<path fill="#020203" d="M697.6,356.5c-2.6-9-2.8-18.3-2.9-27.6c-0.1-13,2.7-25.5,6.9-37.8c-0.3-0.4-0.6-0.7-1-1.1
			c-5.7,9.5-7.5,20.2-8.6,30.8c-1.1,11.6-0.4,23.3,3.9,34.4c0.4,1,0.7,1.6,1.8,1.1L697.6,356.5z"/>
		<path fill="#020203" d="M443.9,408.5c1.9-5.9,1.9-5.7-3.9-5.3c-4.5,0.3-9.1,0-13.6,0.1c-1.4,0-4.3-0.1-2.9,1.9
			c1.4,2.1-3.7,4.5,1,5.7c3.9,1,6.5,4.9,11.3,4.8c5.4-0.1,8.5-1.6,8.2-7.4c-2.7,3.6-6.3,5.5-10.7,4.5c-2.8-0.7-4.5-2.8-2.7-5.6
			C432.7,403.8,441.9,404.9,443.9,408.5z"/>
		<path fill="#020203" d="M735.6,337.4c-5.5-3.7-9-10-16.4-11.3c3.7,3.2,3.5,9.8,10.4,10.4c1.2,0.1,2.7,1.6,1.5,3.7
			c-2.3,4.1-1.4,7.7,2.6,10.8c2.2-4,4.2-7.8,2.9-12.4C736.3,338.2,736,337.8,735.6,337.4z"/>
		<path fill="#020203" d="M459.1,129.1c-8.4-3.4-17.3-4.9-26-3.2c-10.8,2.1-21.3,5.8-32,8.8c0.3,0.4,0.6,0.7,1,1.1
			c13,0.1,24-8.7,37.2-7.9c6.7,0.4,13.3,2.7,20,1L459.1,129.1z"/>
		<path fill="#020203" d="M742.6,318.9c-0.6-4.4-7.7,1-6.1-4.4c1.2-4.1,3.8,0.6,6,0.6c-0.3-1.7,1.3-4.2-1.1-4.8
			c-2-0.5-4.3-0.8-6.4,1.1c-4.6,4-9.6,7.3-16.1,6.9c-3-0.2-1.6,2-1.7,3c-0.2,2.6,2.6,3.3,3.4,2.4c5.9-7.3,13.8-2.6,20.6-4
			C741.7,319.6,742.1,319.2,742.6,318.9z"/>
		<path fill="#020203" d="M312,255.3c-14.1,3.3-27.3,9-40.7,14.3c-5.1,2-9.9,4.5-16,7.3c6.8,0.5,11.1-3.3,15.9-5.1
			c13.9-5.1,27.8-10.3,41.7-15.4C312.6,256,312.3,255.6,312,255.3z"/>
		<path fill="#020203" d="M717.1,305.3c2.5-9.1,5-18,3.1-27.3c-0.2-0.9-0.8-2.3-2.3-1.3c-1.7,1.1-3.8,1-3.9,4.4
			C714,289.3,718.7,296.9,717.1,305.3z"/>
		<path fill="#020203" d="M715.4,322c-5.2,4.8,0.2,9.9,1.6,11.1c8.1,7.3,6.4,16.9,7.8,25.8c0.2,1.3,0,2.7,0.7,4
			c3.3-7.2,3.1-14.8,0.3-21.9C723.2,334.6,716.7,330,715.4,322z"/>
		<path fill="#020203" d="M714.3,335.5c0.2,8.5-5.2,15.5-6.2,23.8c-0.3,2.9-2.6,6.1,1.8,6.7c4.5,0.6,4.2-6.2,4.2-6.5
			C712,351.5,717.5,343.7,714.3,335.5z"/>
		<path fill="#020203" d="M610.4,336.8c1.8,1.1,3,2,5.8,1c12.5-4.4,25.2-8,37.8-12.4c-15.2,1.1-29.3,6.4-43.5,11.5
			C610.4,336.9,610.4,336.8,610.4,336.8z"/>
		<path fill="#020203" d="M696.7,317.6c6.4,1,6.4,1,10.1,3.5c-8.2,4.1-8.2,4.1-8.1-2.2c-2.2,3.2-2.4,7.2-0.7,8.3
			c3.4,2.3,6.9-1.2,10.4-2.1c3.2-0.8,2.3-4.1,2.2-5.7C710.7,316,701.1,314.4,696.7,317.6z"/>
		<path fill="#020203" d="M713.2,313.9c-2.3-4.4-4.4-8.9-6.9-13.3c-0.8-1.4-0.9-4.1-3-3.7c-2.7,0.5-2.6,4-2.8,5.6
			C699.9,307.5,707.7,313.9,713.2,313.9z"/>
		<path fill="#020203" d="M705.1,285.1c2.5-2.3,5.1-4.1,6.8-7.5c2.6-5.1,12.4-6.1,18.7-3l-0.2-0.1c1-0.1,2.4,0.8,3-0.5
			c0.2-0.4-0.6-1.6-1.2-2c-5.8-3.5-17.1-1.9-22.5,3.3c-2.6,2.5-4.7,5.3-5.6,8.8C704.4,284.4,704.7,284.8,705.1,285.1z"/>
		<path fill="#020203" d="M428.6,160.1c3.4-5.7,2.8-10.7,3.9-15.4c1.1-4.6,3.6-6.3,7.6-5.6c5.3,1,11.5,1,13.5,8.9
			c0.7-7.8-4.2-11.6-12.6-11c-9.4,0.6-11,2.9-12.5,17.2C428.5,155.7,428.6,157.3,428.6,160.1z"/>
		<path fill="#020203" d="M566.2,102.5c19.3-0.2,38.5-3.2,57.8-1c-0.3-2.2-2.1-2.1-3.8-2.2c-17.5-0.8-34.9,1.1-52.4,1.4
			c-1.2,0-2.4,0.2-1.5,1.9L566.2,102.5z"/>
		<path fill="#020203" d="M435.4,330.8c-5.7-9.1-24.7-13.6-38.8-13.2C409.8,320.9,423.8,322.2,435.4,330.8z"/>
		<path fill="#020203" d="M717.9,338.1c0,8.3,0,16.7,0,25c0,1.6-0.2,3.3,2.3,3.1c2-0.2,1.8-1.6,1.8-2.9
			C722.2,354.7,721.1,346.3,717.9,338.1z"/>
		<path fill="#020203" d="M699.5,345.9c2.9-7.3,8.9-12.3,13.2-18.4C700.7,332,695.6,339.2,699.5,345.9z"/>
		<path fill="#020203" d="M730.5,274.6c-4.2-0.5-5.1,2.6-5.7,5.5c-1.4,8-2.6,16-3.4,24.1c5.1-9.3,4.9-20.2,8.9-29.8
			C730.4,274.5,730.5,274.6,730.5,274.6z"/>
		<path fill="#020203" d="M725.2,304.9c8-9.5,10.5-18.8,7.6-27.2C730.2,287.5,728,296.4,725.2,304.9z"/>
		<path fill="#020203" d="M714.9,309.4c-2.5-6.5,0.9-14.4-4.7-20.1c-0.8-0.8-0.3-3.1-2.5-2.3c-2.8,1.1-2.6,4.1-2.8,6.1
			c-0.2,1.7,1.7,2.1,2.4-0.2c1.6,0.5,2.3,2.3,2.2,3.4C709.2,301.5,712.3,305.3,714.9,309.4z"/>
		<path fill="#020203" d="M710.7,335.3c-2.4,5.2-6.7,9.1-9.6,14c-1.2,2-1.8,4.4-0.5,5.5c1.8,1.5,3-1.1,4.2-2.3
			C709.7,347.8,710.5,341.7,710.7,335.3z"/>
		<path fill="#020203" d="M312.5,250.3c14.5-3.2,28.3-8.6,42.9-11.7c-5.4-1.9-10.1,1.1-14.9,2c-8.7,1.6-17.2,4.8-25.8,7.5
			c-0.7,0.2-3.2,0.1-2,2.4L312.5,250.3z"/>
		<path fill="#020203" d="M342.1,201.5c0.9,2.1,2.1,1.8,3.2,1.8c11.7-0.2,23.3,0.2,34.7,2.6c0.9,0.2,1.9,0,1.9-1.2
			c0-1.7-1.4-1.2-2.4-1.4c-7.5-1.7-15.2-1.7-22.8-1.2C351.8,202.4,347.2,198.7,342.1,201.5z"/>
		<path fill="#020203" d="M257.9,305.2c-7.3-0.5-14.7-1.7-22,0.6c-1.8,0.6-4.1,0.8-5.9-0.4c-1.1-0.8-2.2-1.1-2.6,0.2
			c-0.4,1.2-0.4,2.9,0.2,3.9c0.7,1.1,1.8-0.3,2.7-0.4c4.6-0.8,9.2-1.5,13.9-1.6c4.7-0.2,9.1-1.3,13.6-2.4
			C257.7,305.1,257.9,305.2,257.9,305.2z"/>
		<path fill="#020203" d="M369.3,123.7c-10.6-1.3-21.2-2.5-30.1,5.4C348.3,122.7,359.5,126.7,369.3,123.7z"/>
		<path fill="#020203" d="M713.5,134.1c-5.6-7.7-12.1-14.5-19.7-20.1c-0.5,0.5-1,1-1.5,1.5c6.7,6.5,13.4,13,20.1,19.5
			C712.7,134.7,713.1,134.4,713.5,134.1z"/>
		<path fill="#020203" d="M344.3,390.2c-4.3,1.2-1.9,5.1-2.3,7.4c-1.8,10.2-3.3,20.5-1.4,31C341.8,415.8,343,403,344.3,390.2
			C344.2,390.1,344.3,390.2,344.3,390.2z"/>
		<path fill="#020203" d="M741.5,170.3c-5.3-6.1-9.4-13.2-15.4-18.8l0.2-0.2c0.1,8.1,8.9,18.8,15.4,18.9
			C741.7,170.1,741.5,170.3,741.5,170.3z"/>
		<path fill="#020203" d="M353.7,355.8c-4.2,0.9-3.7,5.2-4.3,7.7c-2.3,8.8-6.6,17.2-5.1,26.7c0,0-0.1-0.1-0.1,0
			c3.1-11.5,6.2-23,9.3-34.5L353.7,355.8z"/>
		<path fill="#020203" d="M457.5,368.9c-2-9.1-3.1-18.6-10.3-25.6c-0.3,0.4-0.6,0.8-0.9,1.2c3.9,7.1,6.8,14.5,8.3,22.5
			c0.3,1.7,0.6,3.4,2.9,3.5C457.6,369.9,457.6,369.4,457.5,368.9z"/>
		<path fill="#020203" d="M529.1,362.7c-9.6,1.7-18.4,5.6-27,10c9.3-3.4,19.5-3.7,28.1-9.1C529.8,363.3,529.4,363,529.1,362.7z"/>
		<path fill="#020203" d="M699.3,171.6c-10.9,2.4-21.8,4.9-32.7,7.3c0.1,0.5,0.2,1,0.3,1.5c11-2.2,22-4.5,32.9-6.7
			C699.7,172.9,699.5,172.3,699.3,171.6z"/>
		<path fill="#020203" d="M566.4,102.6c-13.1-1.4-25.1,2.8-37,7.4c12.2-3,24.5-5.6,36.9-7.5C566.2,102.5,566.4,102.6,566.4,102.6z"
			/>
		<path fill="#020203" d="M742.8,322.5c-5.1,0-9.5-0.1-13.8,0.1c-1.4,0-3.4-1.1-4,1.2c-0.2,0.6,0.6,1.7,1.3,2.1
			c1.6,1.1,3.4,2,5.1,2.9c0.8-6.9,6.6-1.8,9.4-4C741.3,324.4,741.7,323.8,742.8,322.5z"/>
		<path fill="#020203" d="M653.2,356c-9.7-1.6-17.7,4.1-26.3,7C636.1,362.5,644.5,358.4,653.2,356z"/>
		<path fill="#020203" d="M361.2,160.8c4.4-6.6,8.3-13.5,9.9-21.5C367,146,362.9,152.7,361.2,160.8z"/>
		<path fill="#020203" d="M265.6,195.5c10,1.5,19.9,3,29.9,4.4c0.1-0.5,0.2-1,0.3-1.5c-9.9-1.6-19.9-3.2-29.8-4.8
			C265.8,194.2,265.7,194.9,265.6,195.5z"/>
		<path fill="#020203" d="M704.6,366.9c4.9,7.4,12.7,7.9,19.9,2C717.9,371.4,711.6,370.1,704.6,366.9z"/>
		<path fill="#020203" d="M664.6,371.6c0.1-3.3-2.9-4.4-4.5-6.3c-1.3-1.6-3-2.8-2.3-5.2c0.3-0.9,1.7-1.9-0.6-2.1
			c-1.1-0.1-2.5-0.7-3.1-0.2c-0.6,0.5-0.7,2.2-0.4,3.1c1.8,5,6.1,8.1,9.8,11.6C663.8,372.2,664.2,371.9,664.6,371.6z"/>
		<path fill="#020203" d="M715.5,255.2c7.7,1.4,14.9,3.9,21.1,9.7C735.7,259,735.7,259,715.5,255.2z"/>
		<path fill="#020203" d="M673.2,107.9c6.5,4.8,13.4,3.5,18.9,6.5C689.2,110.7,680.7,107.8,673.2,107.9z"/>
		<path fill="#020203" d="M459.3,128.9c-1.2,5.9,0.7,12-1.8,17.8c5-5.5,5.5-12.5,1.6-17.6C459.1,129.1,459.3,128.9,459.3,128.9z"/>
		<path fill="#020203" d="M559.4,201.6c10.5,1.1,18.4-4.8,27.4-4.3c-4.3-1-8.6-0.8-12.9,0.6C569.6,199.2,565.2,200.1,559.4,201.6z"
			/>
		<path fill="#020203" d="M336.4,160.9c-9.7,0.9-19.5-0.6-29.1,0.9C317,161.8,326.8,163.2,336.4,160.9z"/>
		<path fill="#020203" d="M377.6,369.8c1-4,5.3-6.2,5.7-10.5c0,0,0.2,0.2,0.2,0.2c-1.4,0-3.2-2.9-3.7-0.8c-0.9,3.5-6.3,5.5-3.3,10.1
			C376.8,369.2,377.2,369.5,377.6,369.8z"/>
		<path fill="#020203" d="M255.8,300.9c-3-0.4-5.8-0.6-7.7-3.2c-0.8-1.2-1.9-2.3-3.4,0.1c-1.7,2.6,0.3,2.8,1.5,3.4
			C249.4,302.6,252.5,305.4,255.8,300.9z"/>
		<path fill="#020203" d="M298.9,401.5c2.6,4.7,2.1,11.2,7.9,14.1c0-0.5,0-1-0.1-1.5c-2-4.7-3.1-9.9-6.9-13.7
			C299.5,400.8,299.2,401.1,298.9,401.5z"/>
		<path fill="#020203" d="M395.2,152.3c2.3-5.5,4.6-11,6.9-16.4c-0.3-0.4-0.6-0.7-1-1.1c-3.5,5-6.1,10.3-6.9,16.4
			C394.6,151.6,394.9,152,395.2,152.3z"/>
		<path fill="#020203" d="M312.7,250.4c-7.2-0.6-13.1,2.7-19.1,5.9c6.7-0.7,12.7-3.7,19-6C312.5,250.3,312.7,250.4,312.7,250.4z"/>
		<path fill="#020203" d="M495.2,215.3c4.8-2.4,10.5,0.4,15.1-2.9C504.9,211.5,499.9,212.6,495.2,215.3z"/>
		<path fill="#020203" d="M415,162.3c4,1.2,8,2.6,12.7-1C422.8,160.8,418.9,160.5,415,162.3z"/>
		<path fill="#020203" d="M294.9,276.5c-6.9-2.1-12.2,2.3-18.4,3.1c0.1,0.5,0.3,1.1,0.4,1.6c5.9-1.6,11.9-3.2,17.8-4.8
			C294.7,276.3,294.9,276.5,294.9,276.5z"/>
		<path fill="#020203" d="M697.8,356.3c-1.1,5.2,2.3,7.9,6.5,11.3c-0.3-5.7-3.5-8.4-6.7-11.1C697.6,356.5,697.8,356.3,697.8,356.3z"
			/>
		<path fill="#020203" d="M726.1,151.4c0.1-3.4-2.7-5.3-4.3-7.8c-0.6-1-3.3-1.2-2.2,0.5c1.7,2.6,1.2,8,6.7,7.2
			C726.2,151.2,726.1,151.4,726.1,151.4z"/>
		<path fill="#020203" d="M748.9,244c0.9,3.2-0.1,6.9,4.1,11C751.6,250.1,754,246,748.9,244z"/>
		<path fill="#020203" d="M353.5,355.6c2.2-3.4,4.1-6.9,4.3-12.5c-3,4.8-5.7,8-4.2,12.7C353.7,355.8,353.5,355.6,353.5,355.6z"/>
		<path fill="#020203" d="M492,173.5c2-3.5,5.2-6.4,5-11.1c-0.9,4.1-7.2,5.5-4.8,11.2L492,173.5z"/>
		<path fill="#020203" d="M268.1,443c3.5,2.6,7.5,3.1,12.4,2.3c-4.2-1.2-7.7-2.2-11.3-3.2C268.9,442.4,268.5,442.7,268.1,443z"/>
		<path fill="#020203" d="M712.3,135c0.1,3.4,2.8,4.4,5.4,6.6c0.7-4.5-2.6-5.5-4.2-7.5C713.1,134.4,712.7,134.7,712.3,135z"/>
		<path fill="#020203" d="M522.4,128.8c-3.4,3.1-6.3,4.2-5.9,8.2C519.6,135.6,521.6,133.9,522.4,128.8z"/>
		<path fill="#020203" d="M362.8,334.9c-2.1,2.8-4.1,5.6-4.9,10.8C361,341.5,362.9,338.6,362.8,334.9z"/>
		<path fill="#020203" d="M394.2,151.2c-2.7,2.5-3.1,5.6-2.1,9.9c1.2-3.4,2.1-6.1,3.1-8.7C394.9,152,394.6,151.6,394.2,151.2z"/>
		<path fill="#020203" d="M217.4,353.8c-3.8-0.1-3.8,3-5.5,5.7c3.6-0.5,4.6-3,6.4-4.5C218,354.6,217.7,354.2,217.4,353.8z"/>
		<path fill="#020203" d="M609.7,332.2c2.1-0.6,4.1-1.3,6.2-1.9c-2.5-0.1-5.5-3.7-7.3,1C609,331.5,609.3,331.8,609.7,332.2z"/>
		<path fill="#020203" d="M484,183.2c-2.5,1.9-2.2,4.9-3.5,8.2c3.1-2.1,3.9-4.5,4.4-7.1C484.6,183.9,484.3,183.5,484,183.2z"/>
		<path fill="#020203" d="M327.3,456.6c-0.3-3.8-1.3-5.7-3.3-7.5C323.8,452.8,323.8,452.8,327.3,456.6z"/>
		<path fill="#020203" d="M510.4,145.5c1.9-1.6,4-3.2,3.1-6.4c-0.6,2.4-4.3,2.2-4.1,5.2C509.7,144.7,510.1,145.1,510.4,145.5z"/>
		<path fill="#020203" d="M374.6,132.4c-2.9,2.1-2.2,4.4-2.1,6.7C373.9,137.1,376.2,135.3,374.6,132.4z"/>
		<path fill="#020203" d="M371.6,324.1c-1.4,1.5-4,2.4-3,5.6c2.6-0.5,3.7-2,3.9-4.4C372.2,324.9,371.9,324.5,371.6,324.1z"/>
		<path fill="#020203" d="M315.5,144.8c-4.1-1-3.4,3.5-6,3.7C312.5,148.9,314.4,147.8,315.5,144.8z"/>
		<path fill="#020203" d="M608.6,331.2c-2,1.9-5.1-0.1-7.1,2.1c2.8-0.5,5.8,1.3,8.2-1.2C609.3,331.8,609,331.5,608.6,331.2z"/>
		<path fill="#020203" d="M299.1,156.3c3.2,1.2,4.2-0.7,5.3-3C301.1,151.9,300.3,154.2,299.1,156.3z"/>
		<path fill="#020203" d="M492.2,173.7c-5.5-1-3.3,4.1-4.3,6.5c1.4-2.2,2.7-4.5,4.1-6.7C492,173.5,492.2,173.7,492.2,173.7z"/>
		<path fill="#020203" d="M744.1,271.7c-0.1-2.5-1.3-4-4-4.4c-0.9,2.9,1.3,3.9,2.8,5.3C743.3,272.3,743.7,272,744.1,271.7z"/>
		<path fill="#020203" d="M699.3,261.4c2.1-0.7,3.7-1.8,3.4-4.6c-1.6-0.8-2.4,0.5-3.2,1.3C698.7,258.9,698.4,260,699.3,261.4z"/>
		<path fill="#020203" d="M262.8,445.7c-0.3,0.1-1.7,0.4-1.7,0.7c0,1.1,0.6,2.2,2,2c0.8-0.1,2.1-0.4,2.2-0.9
			C265.7,446,264.5,445.7,262.8,445.7z"/>
		<path fill="#020203" d="M498.2,220.3c-1.5-2.5-3.7-2.1-6.3-1.5c1.7,1.2,3.1,2.5,5.1,2.5C497.5,220.9,497.8,220.6,498.2,220.3z"/>
		<path fill="#020203" d="M322.2,448.8c1.2-0.7,0.8-1.9,0.8-2.9c0-1-0.6-1.8-1.6-1.5c-1.4,0.4-1.1,1.7-1,2.8
			C320.5,448.3,321.4,448.5,322.2,448.8z"/>
		<path fill="#020203" d="M704.1,284c-1.2,2-2.3,4-3.5,5.9c0.3,0.4,0.6,0.7,1,1.1c1.2-2,2.3-4,3.5-5.9
			C704.7,284.8,704.4,284.4,704.1,284z"/>
		<path fill="#020203" d="M529,124.5c-2,1-4.1,2.1-7.7,3.9c4.6,0,6.9-1,8.8-3C529.8,125.1,529.4,124.8,529,124.5z"/>
		<path fill="#020203" d="M333.5,133.2c1.2-2,4.9,0.2,5.2-3.6c-2.6-0.5-4.4,0.9-6.1,2.5C332.9,132.4,333.2,132.8,333.5,133.2z"/>
		<path fill="#020203" d="M517.9,115.8c1.6-0.6,3.2-1.2,5.5-2c-3-1.3-5-1.3-6.7,1.1C517.1,115.2,517.5,115.5,517.9,115.8z"/>
		<path fill="#020203" d="M497.1,221.3c0.2,2.2,1.2,4,4,7.1c-1.3-3.9-0.3-6.4-2.8-8C497.8,220.6,497.5,220.9,497.1,221.3z"/>
		<path fill="#020203" d="M513.5,117c-1.4,1.4-2.7,2.7-4.1,4.1c0.3,0.4,0.6,0.8,0.9,1.2c2.1-0.9,3.5-2.3,4.4-4.4
			C514.3,117.6,513.9,117.3,513.5,117z"/>
		<path fill="#020203" d="M221.2,429.2c1.8,2.6,3.4,3.4,5.8,3.1C226.1,430.1,224.2,429.7,221.2,429.2z"/>
		<path fill="#020203" d="M446.2,215.4c-1.9,1.3-3.1,3-2.8,6.1c1.8-2.1,3.7-3.5,2.6-6.2C446,215.2,446.2,215.4,446.2,215.4z"/>
		<path fill="#020203" d="M501.5,232.7c1.1-2.1,1.9-4.2-0.5-7C501.2,228.7,501.3,230.7,501.5,232.7z"/>
		<path fill="#020203" d="M325.9,137.7c1.3-0.1,2.7,0,3-1.8c0-0.3-0.2-0.9-0.5-1c-1.8-0.6-2.7,0.6-3.7,1.8
			C325.1,137.1,325.5,137.4,325.9,137.7z"/>
		<path fill="#020203" d="M372.5,325.3c1.4,0,2.8-0.2,3.1-1.9c0.1-0.3-0.4-0.9-0.6-1c-1.5-0.2-2.6,0.5-3.4,1.8
			C371.9,324.5,372.2,324.9,372.5,325.3z"/>
		<path fill="#020203" d="M332.6,132c-1.4,0-2.8,0.2-3.1,1.9c-0.1,0.3,0.4,0.9,0.6,1c1.5,0.2,2.6-0.5,3.4-1.8
			C333.2,132.8,332.9,132.4,332.6,132z"/>
		<path fill="#020203" d="M445.2,340.2c-0.2-1.3,0-2.7-1.8-3c-0.3,0-0.9,0.2-1,0.5c-0.6,1.8,0.6,2.7,1.8,3.7
			C444.6,340.9,444.9,340.5,445.2,340.2z"/>
		<path fill="#020203" d="M365.6,330.4c-0.7,1.3-1.2,2.1-1.6,2.9c-0.5,1.3,0.4,1.4,1.3,1.4c1.1,0,1.6-0.6,1.5-1.6
			C366.8,332.6,366.4,332.1,365.6,330.4z"/>
		<path fill="#020203" d="M697.1,265.7c1.3-0.8,2-1.9,1.7-3.4c0-0.3-0.7-0.7-1-0.6c-1.7,0.3-1.9,1.7-1.9,3.1
			C696.3,265.1,696.7,265.4,697.1,265.7z"/>
		<path fill="#020203" d="M328.2,291.8c1.4-0.5,2.8-0.9,4.9-1.7c-2.6-0.4-4.6-1.6-6,0.7C327.5,291.2,327.8,291.5,328.2,291.8z"/>
		<path fill="#020203" d="M380.4,318.1c-1.3,0.9-2.7,1.8-4,2.7c2-0.1,5.2,1.2,3.8-2.9C380.2,317.9,380.4,318.1,380.4,318.1z"/>
		<path fill="#020203" d="M509.4,144.4c-2,0.7-0.8,2.7-3.1,4.1c3.7,0.1,2.8-2.4,4-3C510.1,145.1,509.7,144.7,509.4,144.4z"/>
		<path fill="#020203" d="M506.3,152.6c0.4-1.1,0.7-2.3,1.2-3.7C504.5,149.2,505.5,151,506.3,152.6z"/>
		<path fill="#020203" d="M308.8,149.4c-1.1,0.4-2.3,0.7-3.9,1.2C306.9,152.5,308,151,308.8,149.4z"/>
		<path fill="#020203" d="M514.7,117.9c0.8-1.1,2.8-0.3,3.2-2.1c-0.4-0.3-0.8-0.6-1.2-0.9c-0.8,1.1-2.8,0.3-3.1,2
			C513.9,117.3,514.3,117.6,514.7,117.9z"/>
		<path fill="#020203" d="M324.8,136.8c-0.8,1.1-2.8,0.3-3.2,2.4c1.7,0.3,3.2,0.2,4.3-1.5C325.5,137.4,325.1,137.1,324.8,136.8z"/>
		<path fill="#020203" d="M319.7,141.2c-1.1,0.4-2.3,0.7-3.9,1.2C317.9,144.2,319,142.8,319.7,141.2z"/>
		<path fill="#020203" d="M502,158.2c0.4-1.3,0.8-2.5,1.5-4.9C500.9,155.3,500.9,156.6,502,158.2z"/>
		<path fill="#020203" d="M444.3,341.3c1.1,0.8,0.3,2.8,2.1,3.1c0.3-0.4,0.6-0.8,0.9-1.2c-1.1-0.8-0.3-2.8-2.1-3.1
			C444.9,340.5,444.6,340.9,444.3,341.3z"/>
		<path fill="#020203" d="M499.2,158.1c-0.4,1.3-0.8,2.5-1.5,4.9C500.3,161,500.3,159.7,499.2,158.1z"/>
		<path fill="#020203" d="M485,184.3c1.7-0.8,1.5-2.4,1.8-4.2c-2.4-0.1-1.6,2.4-2.8,3C484.3,183.5,484.6,183.9,485,184.3z"/>
		<path fill="#020203" d="M428.5,344.5c0.8,1.7,2.4,1.5,4.2,1.8c0.1-2.4-2.4-1.6-3-2.8C429.3,343.8,428.9,344.2,428.5,344.5z"/>
		<path fill="#020203" d="M722,307.1c0.4,0.6,0.6,0.9,0.8,1.2c0.4-0.5,0.8-0.9,1-1.4c0.1-0.2-0.4-0.6-0.6-0.9
			C722.8,306.4,722.4,306.8,722,307.1z"/>
		<path fill="#020203" d="M298.4,158.9c-0.3-0.6-0.4-0.9-0.6-1.3c-0.6,0.3-1.2,0.6-1.7,0.9c0.2,0.3,0.4,0.9,0.6,0.9
			C297.2,159.4,297.8,159.1,298.4,158.9z"/>
		<path fill="#020203" d="M509.4,121.1c-1.3,0.4-1.5,1.3-1,2.4c0.6-0.4,1.2-0.8,1.9-1.3C510,121.9,509.7,121.5,509.4,121.1z"/>
		<path fill="#020203" d="M383.7,455.6c0.9-0.7,1.6-1.4,1.4-2.7c0-0.1-0.9-0.3-1.1-0.1c-1,0.9-0.6,1.9-0.2,3
			C383.9,455.8,383.7,455.6,383.7,455.6z"/>
		<path fill="#020203" d="M457.6,370.4c0.3-0.2,0.7-0.3,1-0.5c-0.3-0.3-0.7-0.7-1-1C457.6,369.4,457.6,369.9,457.6,370.4z"/>
		<path fill="#020203" d="M280.7,201.9c-0.3-0.3-0.7-0.7-1-1c-0.2,0.3-0.3,0.7-0.5,1C279.6,201.8,280.2,201.9,280.7,201.9z"/>
		<path fill="#020203" d="M421.7,210.4c0.2,0.3,0.3,0.7,0.5,1c0.3-0.3,0.7-0.7,1-1C422.7,210.3,422.2,210.3,421.7,210.4z"/>
		<path fill="#020203" d="M749.6,243.1c0.3-0.2,0.7-0.3,1-0.5c-0.3-0.3-0.7-0.7-1-1C749.6,242.1,749.6,242.6,749.6,243.1z"/>
		<path fill="#020203" d="M306.8,415.6c0.3-0.2,0.7-0.3,1-0.5c-0.3-0.3-0.7-0.7-1-1C306.7,414.6,306.8,415.1,306.8,415.6z"/>
		<path fill="#020203" d="M258.5,447.2c0.3,0.3,0.7,0.7,1,1c0.2-0.3,0.3-0.7,0.5-1C259.5,447.2,259,447.2,258.5,447.2z"/>
		<path fill="#FFFFFF" d="M129.7,287c1.2,17.6-2.8,36.4,3.9,54.6c2.1-5.2-0.7-10-1.4-14.8c-1.7-11.5-1.6-22.7,0.3-34.1
			c0.5-3.1,4.5-7.2,0.2-9.1c-5.7-2.6-8.5,3.6-9.3,7.1c-3.9,15.7-1.3,31.5,1.1,47.3c0.2,1.3,1.6,2.8,2.9,2.2c1.8-0.8,0.7-2.4,0.4-4
			c-2.9-14.7-3.2-29.4-0.7-44.2C127.5,289.1,128.1,288.8,129.7,287z"/>
		<path fill="#FFFFFF" d="M121.6,340.1c1-7.3-1.5-14.3-1.8-21.6c-0.4-11,0.2-21.7,1.6-32.5c0.2-1.4,3.4-3.3,0.3-4.3
			c-1.9-0.6-4.4-1-6.3,1.1c-2.4,2.7-4.7,5.8-4.7,9.3c0.2,15.6-2,31.5,4.1,46.8c-0.7-18.2-4.9-36.6,2.5-54.2
			C117.9,303.3,115.1,322,121.6,340.1z"/>
		<path fill="#FFFFFF" d="M290.1,288.3c-1.7,0.4-1.4,3.7-4.1,2.9l0.1-0.2c-2.1,5.8,3.1,4.8,5.2,4.6c3.2-0.2,6.2-1.9,9.6-2.1
			c2.4-0.2,4.2-2.1,1.5-4.6c-2.1-1.9,0-2.6,1-3.6c2.1-2.1,1.6,0.8,2.3,1.3c3.2,2.3,6.9,2.5,10.4,1.5c2.8-0.8,1.8-3.9,1.2-5.2
			c-2.2-5.3-7.7-3.8-10.4-2.1c-3.1,2-4.9,1.4-7,0c-3.3-2.2-6.8,0.3-10.1-0.8c0,0,0.2-0.1,0.2-0.1c1.4,2.3-1.3,5.2,1.1,7.4
			c2,1.6,4.3,0.7,6.4,0.8c2.4,0.1,2.6,2.7,2,2.9c-2.7,0.6-5.4-0.2-8.3,1C289.6,292.7,290.6,289.6,290.1,288.3z"/>
		<path fill="#FFFFFF" d="M183.4,287.7c-12.1,5.4-9.8,15.9-10.9,24.4c-1.3,10,1.4,20,2.5,30c0.3,2.4,1.8,3.4,3.9,4.8
			C177.3,327.1,172.4,307.3,183.4,287.7z"/>
		<path fill="#FFFFFF" d="M155.4,288.7c0.6-3.9-0.7-4.3-3.2-1.6c-3.1,3.5-6,7.4-6,12.1c0,13.6-1.2,27.4,2.6,40.8
			c0.6,2.1,0.9,4.8,3.2,4c2.7-0.9-0.2-3-0.5-4.4c-2.6-14.1-0.9-28.4-1-42.5c0-3,1.4-6.9,5.1-8.6L155.4,288.7z"/>
		<path fill="#FFFFFF" d="M143.1,285.8c0.4-1.7-0.9-2.3-1.8-1.4c-3.7,3.8-7.5,7.6-7.5,13.5c0.1,13.7-0.9,27.4,2.7,40.9
			c0.4,1.6,0.6,3.7,2.1,3.5c1.9-0.3,1.8-1.8,1.2-4.1c-3.9-14.2-1.4-28.8-1.6-43.2c0-3.1,2.3-6.9,5-9.5L143.1,285.8z"/>
		<path fill="#FFFFFF" d="M169.1,288.6c0.3-2.5-1.1-2-2.3-1.1c-4.8,3.8-7.4,8.9-7.8,14.8c-1,12.7,0.1,25.3,2.2,37.8
			c0.4,2.3,1.5,3.9,2.4,5.7c2.5-0.7,2-2.4,1.7-3.5c-3.3-14.3-3.4-28.7-1.3-43.2c0.6-4.1,2.2-7.8,5.3-10.8L169.1,288.6z"/>
		<path fill="#FFFFFF" d="M199.7,288.3c-12.5,4.8-11.8,14.9-11.6,23.4c0.2,10.2-0.9,21,4.6,31.9
			C195.2,324.7,187.3,305.6,199.7,288.3z"/>
		<path fill="#FFFFFF" d="M169.3,288.4c-2.1,14.3-1,28.8-1.2,43.2c-0.1,5.5,1.1,10.7,3.7,15.9c2.5-1.5,1.9-3.5,1.5-5
			c-4.6-17.3-3.8-34.6-0.1-51.9c0.3-1.3,0.9-3-0.6-3.4c-1-0.3-2.3,0.9-3.5,1.5C169.1,288.6,169.3,288.4,169.3,288.4z"/>
		<path fill="#FFFFFF" d="M187.1,288.3c-2.9,2.8-3.9,5.7-3.9,9.1c0.1,11.6,0.1,23.1,0,34.7c0,2.8,0.8,5.2,1.4,7.8
			c0.3,1.2-0.5,3.2,1.6,2.9c1.5-0.2,2.9-1.4,2.3-3.4c-4.4-15-2.8-30.1-1.2-45.2C187.5,292.3,187.1,290.3,187.1,288.3z"/>
		<path fill="#FFFFFF" d="M155.6,288.5c-1.6,13.5-1.1,27-1.2,40.5c0,5.5,1.2,10.6,3.6,16c3.8-3.1,0.6-5.5,0.4-7.7
			c-1.6-16.3-3-32.5,1.4-48.6c0.3-1,0.6-2.5-0.7-3c-2.6-0.9-1.6,3-3.7,2.9C155.4,288.7,155.6,288.5,155.6,288.5z"/>
		<path fill="#FFFFFF" d="M215.7,291.5c-4.6-1.4-8.6,1.7-9.1,8.2c-0.6,8.6-0.2,17.3-0.1,25.9c0,1.1,0,2.6,1.6,2.2
			c1.6-0.4,2.5-1.7,2.5-3.6c-0.1-6.6,0.1-13.2-0.1-19.8c-0.1-4.6,0.8-8.6,4.1-12C215,292.1,215.4,291.8,215.7,291.5z"/>
		<path fill="#FFFFFF" d="M203.8,310.8c0-5.7,0.1-11.4-0.1-17c0-1.5,1.3-4.1-1.8-4.1c-3.6-0.1-2.5,3.1-2.1,4.5
			c2.4,7.6,0.9,15.2,1.1,22.8c0.1,3.5-1,7-1.2,10.6c-0.1,1.6-1.4,4.6,2.2,4.5c3-0.1,1.7-2.7,1.8-4.2
			C203.9,322.1,203.8,316.5,203.8,310.8z"/>
		<path fill="#FFFFFF" d="M143.3,285.6c-2.2,14.4-0.9,28.9-1.2,43.4c-0.1,5.1,1.1,9.8,4.3,15c2.5-5.6-1.3-9.2-1.8-13.3
			c-1.7-14.6-1.2-29,1.8-43.3c0.5-2.5,0.2-2.5-3.2-1.5C143.1,285.8,143.3,285.6,143.3,285.6z"/>
		<path fill="#FFFFFF" d="M220.3,305.9c-0.1-3.1-1.4-6.5,3.7-7.5c2.6-0.5,2.1-4,1.5-6c-0.9-3.1-2.8-1.1-4.7-0.4
			c-1.5,0.6-3.6,0.8-5.1-0.7c-0.4,0.3-0.7,0.7-1.1,1c-0.4,5.6,0.3,10.7,4.8,14.7C219.8,306.7,220.1,306.3,220.3,305.9z"/>
		<path fill="#FFFFFF" d="M276.4,290.9c-7.6-1.7-9.3,4.2-11.9,9.1c11.3-0.3,11.3-0.3,11.7-9.3C276.2,290.8,276.4,290.9,276.4,290.9z
			"/>
		<path fill="#FFFFFF" d="M269.2,287.7c-9.1-2.2-16.4,0.7-23.8,0.6c-0.9,0-1.9,0.2-1.8,1.4c0.1,1.1,1,1.5,1.9,1.2
			C252.7,288.1,260.4,288.9,269.2,287.7z"/>
		<path fill="#FFFFFF" d="M196.4,321.9c3,0.6,1.9-1.7,1.9-2.9c0.1-5.9,0.1-11.8,0.1-19.2c-3.8,8.2-1.1,15.3-1.8,22.3L196.4,321.9z"
			/>
		<path fill="#FFFFFF" d="M196.5,322c-2,4.1-0.5,8.4-0.9,12.6c-0.1,1.2,1.2,2.6,1.7,2.3c1.3-0.5,2.5-2.2,1.5-3.5
			c-2.7-3.5-1.2-7.8-2.5-11.5C196.4,321.9,196.5,322,196.5,322z"/>
		<path fill="#FFFFFF" d="M286,291.2c-0.5-5.3-1.9-5.4-9.6-0.2c0,0-0.2-0.2-0.2-0.2c3.2,2.4,6.6-0.4,9.9,0.3
			C286.1,291,286,291.2,286,291.2z"/>
		<path fill="#FFFFFF" d="M219.5,307.1c0.6,0.4,1.2,0.8,1.8,1.2c0.5-1.1,0.3-2-1-2.4C220.1,306.3,219.8,306.7,219.5,307.1z"/>
		<path fill="#FFFFFF" d="M203,396.9c-3.1-1.3-6.3-1.9-9.8-2c-17.7-0.3-35-3.8-52.4-6.6c-21.2-3.4-42.3-7.4-63.1-12.4
			c-2.2-0.5-4.1-1.5-6.1-2.5c-1.2-0.6-2.9-0.9-3.4,0.7c-0.5,1.6,0,2.4,2.2,3.2c10.4,3.6,21.2,5.8,32,8c21,4.4,42.1,8.5,63.5,11.1
			c9.4,1.2,18.6,2.8,28.1,2.6c3.2-0.1,6.2-0.3,8.8-2.4C202.8,396.8,203,396.9,203,396.9z"/>
		<path fill="#FFFFFF" d="M190.2,388.3c-18.6-2-37.1-4.7-55.5-7.9c-20.3-3.5-40.5-7.2-60.3-12.7c-1.4-0.4-3.6-0.9-5.3,1.4
			c6.5,4.3,14,4.9,21.1,6.5c23.1,5.2,46.4,9.5,70,12.7c8.7,1.2,17.2,2.9,26,2.6c1.9-0.1,4.4,0.6,3.8-2.9
			C190,388.1,190.2,388.3,190.2,388.3z"/>
		<path fill="#FFFFFF" d="M125.6,422.2c-0.6,1.9,1.4,2.5,2.2,2.7c9.9,2.1,19.8,5,30.3,3.2c-10.3-1.9-20.6-3.9-30.9-5.8
			C126.6,422.3,126.1,422.3,125.6,422.2z"/>
		<path fill="#FFFFFF" d="M124.8,423.1c-1.1-3.1-3.4-1.9-5.9-1.6C121,422.4,122.3,424.8,124.8,423.1z"/>
		<path fill="#FFFFFF" d="M127.1,422.3c-0.3-0.3-0.7-0.7-1-1c-0.2,0.3-0.3,0.7-0.5,1C126.1,422.3,126.6,422.3,127.1,422.3z"/>
		<path fill="#FFFFFF" d="M586.8,186.5c-1.1-21.4-5.7-42-10-62.6c-0.7-3.2-2.1-4.5-5-4c-16.2,3.2-32.8,5-45.5,17.6
			c-7.2,7.1-12.6,15.5-18.7,23.5c-4.7,6.1-7.4,13.4-12.4,19.4c-1.9,2.3-3.8,5.5-3.5,9.1c0.1,1.9,1,4.9-3.1,3.3
			c-0.2-0.1-1.7,2.7-2.3,4.3c-0.4,1.1,0,2.3,1.6,2.2c1.6-0.1,3.9,0.9,3.8-2.2c0-0.7,0.6-2.2,1.2-0.5c1.8,5.1,3.3,3.4,5.3,0.2
			c0.4-0.6,1.6-1,2.4-0.9c12,2.3,24.5-3.4,36.2,2.2c2.8,1.3,5.2,0.1,7.5-0.3c13.2-2.4,26.3-5.4,39.5-8
			C586,189.3,587.2,188.7,586.8,186.5z"/>
		<path fill="#FFFFFF" d="M642.4,121.2c-0.1,2.1,0.9,3.5,2.9,4.3l-0.1-0.2c-0.1,2.1,0.9,3.5,2.9,4.3l-0.2-0.2
			c1.4,1.1,0.8,3.6,2.9,4.3l-0.2-0.2c1.4,1.1,0.8,3.6,2.9,4.3l-0.1-0.2c-0.1,2.1,0.9,3.5,2.9,4.3l-0.1-0.2c0.3,1.6-0.3,4.2,3,2.8
			l-0.1-0.2c-1.1,2-0.1,3.2,1.4,4.4l-0.1-0.2c0.3,1.6-0.3,4.2,3,2.8l-0.3-0.3c1.4,5.8,2.9,11.6,4,17.5c0.3,1.6,1.6,4-1.9,4.7
			c-13.4,2.6-27,4.9-40.2,8.3c-10,2.6-20.5,2.8-30.2,6.4c-1.7,0.7-5.3,2.2-5.7-2.9c-1.7-21-5.1-41.7-10.7-62.1
			c-0.9-3.5,0.1-4.6,4-4.7c16.1-0.3,32.1-1.7,48.3-1.4c4.8,0.1,8.8,0.9,12,4.4L642.4,121.2z M643.6,145.4c0.5-1.1,0.3-2-1-2.4
			c-0.8-2.3-0.5-5.3-4.1-5.5c-0.1-3.4-3.7-4.4-4.4-7.4c-1.3,4.1,1,6.4,3.5,8.5c0.8,2.2,2.1,4.2,4.2,5.5
			C642.4,144.6,643,145,643.6,145.4z M590.8,124.4c2.5,8.6,3.7,17.6,7.7,25.7c1.6,1.6,3.4,2.6,5.8,2.7c8.7,0.3,17.6-1.3,27,2.1
			c-2.4-4-5.2-3.5-7.8-3.4c-8.1,0.1-16.1-1.1-24-2.4C597.2,140.5,596.3,131.6,590.8,124.4z M593.2,120.7c10.6,2.1,22.1-1.4,33.2,2
			c0-0.7,0.1-1.3,0.1-2C615.3,120.7,604,120.7,593.2,120.7z M625.3,149.5c6.4,0,12.8,0,20,0C638.2,146.4,631.8,146.6,625.3,149.5z
			 M627.9,123c-1,4.5,2.2,5.3,4.7,7.3C633.3,126.1,630.5,125,627.9,123z"/>
		<path fill="#FFFFFF" d="M663.2,151.4c-0.3-1.6,0.3-4.2-3-2.8c0,0,0.1,0.2,0.1,0.2c1.1-2,0.1-3.2-1.4-4.4c0,0,0.1,0.2,0.1,0.2
			c-0.3-1.6,0.3-4.2-3-2.8c0,0,0.1,0.2,0.1,0.2c0.4-3.6,0-4.2-2.9-4.3c0,0,0.1,0.2,0.1,0.2c0.3-2.3,0.6-4.6-2.9-4.3
			c0,0,0.2,0.2,0.2,0.2c0.3-2.3,0.6-4.6-2.9-4.3c0,0,0.2,0.2,0.2,0.2c0.2-2.2,0.7-4.6-2.9-4.3c0,0,0.1,0.2,0.1,0.2
			c0.1-2.2,0.8-4.7-2.9-4.3c0,0,0.1,0.2,0.1,0.2c0.5-2.9,2.4-3.4,4.9-2.9c7,1.4,14.2,1.1,21,3.4c3.5,1.2,7.5,0.4,10.5,3.5
			c5.5,5.8,11.8,10.9,16.7,17.1c2.4,3.1,7.2,5.3,6.2,10.7c-1.6,8.4-8.1,15.3-16.5,15.7c-4.1,0.2-8.1,0.8-11.8,2
			c-4.2,1.4-4.5-0.2-5-3.4c-1-5.7-1.4-11.7-5.6-16.4L663.2,151.4z M676.3,141.3c-0.3-0.1-0.9,0.4-1,0.6c-0.2,1.5,0.5,2.6,1.8,3.4
			c2.2,2.5,0.2,5.6,1.4,8.3c3.4-3.2,2.7-6.3-0.3-9.2C678.2,142.9,678,141.6,676.3,141.3z M670.8,135.2c0.2-0.1,0.4-0.7,0.4-1.1
			c0.3-2.1-1.3-1.9-2.6-2c-0.3-4.1-3.5-5-7.2-6.6c1.2,3.9,4.2,5.6,6.3,7.8C668.7,134,669.1,135.7,670.8,135.2z M673.9,156.2
			c0.5-0.3,0.8-1,1.2-1.5c-0.8-0.2-1.6-0.5-2.3-0.7c-3.2-9.8-9.7-17.6-15.5-25.8c-0.6,0.3-1.2,0.7-1.7,1c5.5,8.7,10.9,17.3,16.4,26
			C672.5,155.7,672.8,156.9,673.9,156.2z M675.3,139.5c0.2-0.9-0.2-1.7-1.2-2.1c-1.3-0.5-1.3,0.6-1.4,1.4c-0.1,1.1,0.6,1.5,1.3,1.8
			C675.3,141,675.2,140,675.3,139.5z"/>
		<ellipse fill="#FFFFFF" cx="169.5" cy="362.8" rx="18.4" ry="0.4"/>
		<path fill="#FFFFFF" d="M443.5,396.2c-0.2-5.1-3.5-7.2-6.6-5.1c-3.1,2-6.2,3.8-10.4,6.3C432.8,397.5,437.7,393.1,443.5,396.2z"/>
		<path fill="#FFFFFF" d="M434.2,436.2c-1,0.6,2,6.8-2.9,2.1c-0.4-0.4-1.2-0.8-1.7-0.7c-1.1,0.3-1.2,1.5-0.9,2.2
			c1.1,2.5,1.7,5.1,0.8,9.1c8.1-8,12-16.7,14.6-26.2c-2.5,0-5.5,0-9.7,0c6.6,5.5,2.7,9.5-0.3,13.5L434.2,436.2z"/>
		<path fill="#FFFFFF" d="M434.1,436.3c-1.5-0.9-0.2-1.9,0-2.8c0.4-1.8,2.8-3.6,0.5-5.3c-0.9-0.7-3.1-0.3-4.4,0.3
			c-1.5,0.7-2.3,2.6-1.3,4c0.9,1.4,0.9,5.2,4.4,2.9c0.1-0.1,0.6,0.5,0.9,0.8C434.2,436.2,434.1,436.3,434.1,436.3z"/>
		<path fill="#FFFFFF" d="M280.8,382.8c-4.4,0.4-7.5,0.1-6.3-6c0.7-3.6-8.1-11.1-11.4-10.5c-4.6,0.8-6.4,4.3-3.1,7.3
			c9.4,8.8,15.8,20.2,25.3,29.3c2.4-3.9-1.6-6.5-2.8-8.5c-2.4-4-5.6-7.1-1.9-11.8C280.7,382.7,280.8,382.8,280.8,382.8z"/>
		<path fill="#FFFFFF" d="M383.2,390.9c0.5-0.3,0.8-0.6,1.6-0.6c1.9,0.1,3.6,3.4,5.2,1.2c1.6-2.2-0.7-4.4-2.6-5.3
			c-1.5-0.8-2.9-6.7-5.2-0.8c-0.6,1.6,2.8,3.3,1.2,5.6C383.3,391,383.2,390.9,383.2,390.9z"/>
		<path fill="#FFFFFF" d="M443.9,408.5c-2-3.6-11.2-4.7-13.3-1.4c-1.8,2.8,0,5,2.7,5.6c4.5,1.1,8-0.9,10.7-4.5
			C444.1,408.3,443.9,408.5,443.9,408.5z"/>
		<path fill="#020203" d="M290.1,288.3c0.6,1.3-0.4,4.4,1.2,3.7c2.9-1.2,5.6-0.4,8.3-1c0.6-0.1,0.4-2.8-2-2.9
			c-2.1-0.1-4.5,0.8-6.4-0.8C290.8,287.7,290.4,288,290.1,288.3z"/>
		<path fill="#020203" d="M598.5,150.1c1.6,1.6,3.4,2.6,5.8,2.7c8.7,0.3,17.6-1.3,27,2.1c-2.4-4-5.2-3.5-7.8-3.4
			c-8.1,0.1-16.1-1.1-24-2.4C599.2,149.3,598.8,149.7,598.5,150.1z"/>
		<path fill="#020203" d="M599.5,148.9c-2.3-8.4-3.1-17.3-8.7-24.5c2.5,8.6,3.7,17.6,7.7,25.7C598.8,149.7,599.2,149.3,599.5,148.9z
			"/>
		<path fill="#020203" d="M626.5,120.7c-11.3,0-22.6,0-33.4,0c10.6,2.1,22.1-1.4,33.2,2C626.5,122.1,626.5,121.4,626.5,120.7z"/>
		<path fill="#020203" d="M645.3,149.5c-7.1-3.2-13.5-2.9-20,0C631.7,149.5,638.1,149.5,645.3,149.5z"/>
		<path fill="#020203" d="M638.5,137.5c-0.1-3.4-3.7-4.4-4.4-7.4c-1.3,4.1,1,6.4,3.5,8.5C637.9,138.3,638.2,137.9,638.5,137.5z"/>
		<path fill="#020203" d="M632.7,130.4c0.7-4.3-2.2-5.4-4.7-7.3C626.9,127.5,630.1,128.3,632.7,130.4z"/>
		<path fill="#020203" d="M637.6,138.7c0.8,2.2,2.1,4.2,4.2,5.5c0.3-0.4,0.6-0.8,0.9-1.2c-0.8-2.3-0.5-5.3-4.1-5.5
			C638.2,137.9,637.9,138.3,637.6,138.7z"/>
		<path fill="#020203" d="M645.3,125.4c0.1-2.2,0.8-4.7-2.9-4.3C642.3,123.3,643.3,124.7,645.3,125.4z"/>
		<path fill="#020203" d="M656.3,141.9c0.4-3.6,0-4.2-2.9-4.3C653.3,139.7,654.3,141.1,656.3,141.9z"/>
		<path fill="#020203" d="M648,129.5c0.2-2.2,0.7-4.6-2.9-4.3C645.1,127.4,646.1,128.8,648,129.5z"/>
		<path fill="#020203" d="M653.5,137.8c0.3-2.3,0.6-4.6-2.9-4.3C652,134.6,651.4,137.1,653.5,137.8z"/>
		<path fill="#020203" d="M663.2,151.4c-0.3-1.6,0.3-4.2-3-2.8C660.6,150.2,660,152.8,663.2,151.4z"/>
		<path fill="#020203" d="M650.8,133.6c0.3-2.3,0.6-4.6-2.9-4.3C649.3,130.5,648.7,133,650.8,133.6z"/>
		<path fill="#020203" d="M659.1,144.5c-0.3-1.6,0.3-4.2-3-2.8C656.5,143.3,655.9,145.9,659.1,144.5z"/>
		<path fill="#020203" d="M660.4,148.7c1.1-2,0.1-3.2-1.4-4.4C657.8,146.3,658.8,147.6,660.4,148.7z"/>
		<path fill="#020203" d="M641.8,144.2c0.6,0.4,1.2,0.8,1.8,1.2c0.5-1.1,0.3-2-1-2.4C642.3,143.4,642,143.8,641.8,144.2z"/>
		<path fill="#020203" d="M672.8,154c-3.2-9.8-9.7-17.6-15.5-25.8c-0.6,0.3-1.2,0.7-1.7,1c5.5,8.7,10.9,17.3,16.4,26
			C672.2,154.7,672.5,154.4,672.8,154z"/>
		<path fill="#020203" d="M668.7,132c-0.3-4.1-3.5-5-7.2-6.6c1.2,3.9,4.2,5.6,6.3,7.8C668.1,132.8,668.4,132.4,668.7,132z"/>
		<path fill="#020203" d="M677.1,145.3c2.2,2.5,0.2,5.6,1.4,8.3c3.4-3.2,2.7-6.3-0.3-9.2C677.9,144.7,677.5,145,677.1,145.3z"/>
		<path fill="#020203" d="M667.8,133.2c0.9,0.8,1.3,2.5,3.1,2c0.2-0.1,0.4-0.7,0.4-1.1c0.3-2.1-1.3-1.9-2.6-2
			C668.4,132.4,668.1,132.8,667.8,133.2z"/>
		<path fill="#020203" d="M678.3,144.4c0-1.4-0.2-2.8-1.9-3.1c-0.3-0.1-0.9,0.4-1,0.6c-0.2,1.5,0.5,2.6,1.8,3.4
			C677.5,145,677.9,144.7,678.3,144.4z"/>
		<path fill="#020203" d="M674.1,140.6c1.3,0.4,1.2-0.6,1.3-1.1c0.2-0.9-0.2-1.7-1.2-2.1c-1.3-0.5-1.3,0.6-1.4,1.4
			C672.7,139.9,673.4,140.4,674.1,140.6z"/>
		<path fill="#020203" d="M671.9,155.1c0.6,0.5,0.9,1.7,2,1.1c0.5-0.3,0.8-1,1.2-1.5c-0.8-0.2-1.6-0.5-2.3-0.7
			C672.5,154.4,672.2,154.7,671.9,155.1z"/>
	</g>
</g>
</svg>
