<svg xmlns="http://www.w3.org/2000/svg" xmlns:xlink="http://www.w3.org/1999/xlink" width="138" height="138" viewBox="0 0 138 138"><defs><filter id="a" x="0" y="0" width="138" height="138" filterUnits="userSpaceOnUse"><feOffset dy="3" input="SourceAlpha"/><feGaussianBlur stdDeviation="3" result="b"/><feFlood flood-opacity="0.161"/><feComposite operator="in" in2="b"/><feComposite in="SourceGraphic"/></filter></defs><g transform="translate(-6381.094 12583.132)"><g transform="translate(6390.094 -12577.132)"><g transform="matrix(1, 0, 0, 1, -9, -6)" filter="url(#a)"><g transform="translate(9 6)" fill="none"><path d="M60,0A60,60,0,1,1,0,60,60,60,0,0,1,60,0Z" stroke="none"/><path d="M 60 1 C 52.03461456298828 1 44.30801391601563 2.559814453125 37.03485107421875 5.636100769042969 C 33.53907012939453 7.11468505859375 30.16732025146484 8.944831848144531 27.01323699951172 11.07568359375 C 23.88887023925781 13.18647003173828 20.95081329345703 15.61058044433594 18.28070068359375 18.28070068359375 C 15.61058044433594 20.95081329345703 13.18647003173828 23.88887023925781 11.07568359375 27.01323699951172 C 8.944831848144531 30.16732025146484 7.11468505859375 33.53907012939453 5.636100769042969 37.03485107421875 C 2.559814453125 44.30801391601563 1 52.03461456298828 1 60 C 1 67.96537780761719 2.559814453125 75.69198608398438 5.636100769042969 82.96514892578125 C 7.11468505859375 86.4609375 8.944831848144531 89.83268737792969 11.07568359375 92.98677062988281 C 13.18647003173828 96.11112976074219 15.61058044433594 99.04917907714844 18.28070068359375 101.7192993164063 C 20.95081329345703 104.3894195556641 23.88887023925781 106.8135375976563 27.01323699951172 108.92431640625 C 30.16732025146484 111.0551681518555 33.53907012939453 112.8853149414063 37.03485107421875 114.363899230957 C 44.30801391601563 117.440185546875 52.03461456298828 119 60 119 C 67.96537780761719 119 75.69198608398438 117.440185546875 82.96514892578125 114.363899230957 C 86.4609375 112.8853149414063 89.83268737792969 111.0551681518555 92.98677062988281 108.92431640625 C 96.11112976074219 106.8135375976563 99.04917907714844 104.3894195556641 101.7192993164063 101.7192993164063 C 104.3894195556641 99.04917907714844 106.8135375976563 96.11112976074219 108.92431640625 92.98677062988281 C 111.0551681518555 89.83268737792969 112.8853149414063 86.4609375 114.363899230957 82.96514892578125 C 117.440185546875 75.69198608398438 119 67.96537780761719 119 60 C 119 52.03461456298828 117.440185546875 44.30801391601563 114.363899230957 37.03485107421875 C 112.8853149414063 33.53907012939453 111.0551681518555 30.16732025146484 108.92431640625 27.01323699951172 C 106.8135375976563 23.88887023925781 104.3894195556641 20.95081329345703 101.7192993164063 18.28070068359375 C 99.04917907714844 15.61058044433594 96.11112976074219 13.18647003173828 92.98677062988281 11.07568359375 C 89.83268737792969 8.944831848144531 86.4609375 7.11468505859375 82.96514892578125 5.636100769042969 C 75.69198608398438 2.559814453125 67.96537780761719 1 60 1 M 60 0 C 93.1370849609375 0 120 26.8629150390625 120 60 C 120 93.1370849609375 93.1370849609375 120 60 120 C 26.8629150390625 120 0 93.1370849609375 0 60 C 0 26.8629150390625 26.8629150390625 0 60 0 Z" stroke="none" fill="#00008f"/></g></g></g><path d="M39.538,42.817l5.16-4.926L67.936,60.085,62.787,65ZM55.029,23.079l10.32-9.852a37.751,37.751,0,0,0-51.6-.069A41.634,41.634,0,0,1,55.029,23.079ZM13.641,13.262a33.747,33.747,0,0,0,.072,49.258l10.32-9.852C12.739,41.887,8.951,26.8,13.641,13.262Zm.072-.069-.036.034C12.306,23.6,17.9,36.927,29.193,47.743L49.869,28.005C38.575,17.223,24.575,11.884,13.714,13.193Z" transform="translate(6482.566 -12554.198) rotate(87)" fill="#00008f"/></g></svg>