<svg xmlns="http://www.w3.org/2000/svg" xmlns:xlink="http://www.w3.org/1999/xlink" width="138" height="138" viewBox="0 0 138 138"><defs><filter id="a" x="0" y="0" width="138" height="138" filterUnits="userSpaceOnUse"><feOffset dy="3" input="SourceAlpha"/><feGaussianBlur stdDeviation="3" result="b"/><feFlood flood-opacity="0.161"/><feComposite operator="in" in2="b"/><feComposite in="SourceGraphic"/></filter></defs><g transform="translate(9 6)"><g transform="matrix(1, 0, 0, 1, -9, -6)" filter="url(#a)"><g transform="translate(9 6)" fill="none"><path d="M60,0A60,60,0,1,1,0,60,60,60,0,0,1,60,0Z" stroke="none"/><path d="M 60 1 C 52.03461456298828 1 44.30801391601563 2.559814453125 37.03485107421875 5.636100769042969 C 33.53907012939453 7.11468505859375 30.16732025146484 8.944831848144531 27.01323699951172 11.07568359375 C 23.88887023925781 13.18647003173828 20.95081329345703 15.61058044433594 18.28070068359375 18.28070068359375 C 15.61058044433594 20.95081329345703 13.18647003173828 23.88887023925781 11.07568359375 27.01323699951172 C 8.944831848144531 30.16732025146484 7.11468505859375 33.53907012939453 5.636100769042969 37.03485107421875 C 2.559814453125 44.30801391601563 1 52.03461456298828 1 60 C 1 67.96537780761719 2.559814453125 75.69198608398438 5.636100769042969 82.96514892578125 C 7.11468505859375 86.4609375 8.944831848144531 89.83268737792969 11.07568359375 92.98677062988281 C 13.18647003173828 96.11112976074219 15.61058044433594 99.04917907714844 18.28070068359375 101.7192993164063 C 20.95081329345703 104.3894195556641 23.88887023925781 106.8135375976563 27.01323699951172 108.92431640625 C 30.16732025146484 111.0551681518555 33.53907012939453 112.8853149414063 37.03485107421875 114.363899230957 C 44.30801391601563 117.440185546875 52.03461456298828 119 60 119 C 67.96537780761719 119 75.69198608398438 117.440185546875 82.96514892578125 114.363899230957 C 86.4609375 112.8853149414063 89.83268737792969 111.0551681518555 92.98677062988281 108.92431640625 C 96.11112976074219 106.8135375976563 99.04917907714844 104.3894195556641 101.7192993164063 101.7192993164063 C 104.3894195556641 99.04917907714844 106.8135375976563 96.11112976074219 108.92431640625 92.98677062988281 C 111.0551681518555 89.83268737792969 112.8853149414063 86.4609375 114.363899230957 82.96514892578125 C 117.440185546875 75.69198608398438 119 67.96537780761719 119 60 C 119 52.03461456298828 117.440185546875 44.30801391601563 114.363899230957 37.03485107421875 C 112.8853149414063 33.53907012939453 111.0551681518555 30.16732025146484 108.92431640625 27.01323699951172 C 106.8135375976563 23.88887023925781 104.3894195556641 20.95081329345703 101.7192993164063 18.28070068359375 C 99.04917907714844 15.61058044433594 96.11112976074219 13.18647003173828 92.98677062988281 11.07568359375 C 89.83268737792969 8.944831848144531 86.4609375 7.11468505859375 82.96514892578125 5.636100769042969 C 75.69198608398438 2.559814453125 67.96537780761719 1 60 1 M 60 0 C 93.1370849609375 0 120 26.8629150390625 120 60 C 120 93.1370849609375 93.1370849609375 120 60 120 C 26.8629150390625 120 0 93.1370849609375 0 60 C 0 26.8629150390625 26.8629150390625 0 60 0 Z" stroke="none" fill="#00008f"/></g></g><path d="M48.522,12687.155v16.243H44.941v-2.509H23.822v2.509H20.241v-16.243H19.007v-2.5h3.012l1.68-5.539c.495-1.633,1.322-3.116,2.939-3.116H42.75c1.616,0,2.549,1.454,2.938,3.116l1.3,5.539h2.769v2.5H48.522Zm-11.478,44.078h11.73c.944-.994,1.973-2.026,3.022-3.078a99.069,99.069,0,0,0,6.859-7.395,14.954,14.954,0,0,0,3.8-7.667c.154-.609.326-1.289.552-2.135l1.4-5.229.017-.059c.749-2.325.808-3.863.5-4.75a1.084,1.084,0,0,0-.362-.55.613.613,0,0,0-.419-.092,1.9,1.9,0,0,0-1.153.719l-4.164,10.516a1.176,1.176,0,0,1-.148.269,5.819,5.819,0,0,1-1.007,1.367l-7.39,8.736a1.048,1.048,0,0,1-1.537.091,1.205,1.205,0,0,1-.085-1.631l7.391-8.738a1.381,1.381,0,0,1,.1-.117,2.527,2.527,0,0,0,.873-2.21.91.91,0,0,0-.227-.453.674.674,0,0,0-.4-.184h0c-.657-.07-1.63.44-2.812,1.924h0a1.19,1.19,0,0,1-.11.118l-2.863,2.681-.016.016a24.459,24.459,0,0,1-6.863,5.2c-.507.282-1.067.593-1.755.99a6.612,6.612,0,0,0-.8.562c-.28.224-.544.458-.8.688a7.863,7.863,0,0,0-2.345,3.106,17.862,17.862,0,0,0-.744,4.149q-.119,1.078-.186,2.14-.033.521-.054,1.02Zm-5.324,0H19.989c-.944-.994-1.973-2.026-3.022-3.078a98.985,98.985,0,0,1-6.859-7.4,14.948,14.948,0,0,1-3.8-7.666c-.154-.609-.326-1.289-.552-2.135l-1.4-5.229-.017-.059c-.749-2.325-.808-3.863-.5-4.75a1.084,1.084,0,0,1,.362-.55.613.613,0,0,1,.418-.092,1.9,1.9,0,0,1,1.153.718l4.164,10.517a1.162,1.162,0,0,0,.148.268,5.8,5.8,0,0,0,1.007,1.368l7.39,8.735a1.046,1.046,0,0,0,1.537.091,1.2,1.2,0,0,0,.085-1.63l-7.391-8.738a1.215,1.215,0,0,0-.1-.117,2.529,2.529,0,0,1-.873-2.211.909.909,0,0,1,.227-.452.668.668,0,0,1,.4-.184h0c.657-.071,1.63.44,2.812,1.924,0,0,.1.108.111.118l2.863,2.68.016.017a24.48,24.48,0,0,0,6.863,5.2c.507.282,1.067.593,1.755.99a6.5,6.5,0,0,1,.8.562c.28.224.543.458.8.688a7.872,7.872,0,0,1,2.345,3.107,17.872,17.872,0,0,1,.744,4.149q.119,1.078.186,2.14.033.521.054,1.02h0Zm-14.464.4a1.2,1.2,0,0,0-.269.762v6.893a1.128,1.128,0,0,0,1.094,1.159H32.842a1.128,1.128,0,0,0,1.094-1.159v-6.957c0-.737-.045-1.532-.092-2.269q-.072-1.132-.195-2.248a19.228,19.228,0,0,0-.889-4.738,9.985,9.985,0,0,0-2.96-4.023c-.289-.258-.586-.521-.894-.769a8.705,8.705,0,0,0-1.076-.743c-.643-.37-1.243-.7-1.789-1.007a22.724,22.724,0,0,1-6.376-4.834c-.023-.022-.046-.044-.07-.063l-2.793-2.615c-1.707-2.119-3.376-2.817-4.66-2.675h0a2.757,2.757,0,0,0-1.589.727l-2.822-7.127,0,0a1.155,1.155,0,0,0-.167-.292,4.135,4.135,0,0,0-2.722-1.674,2.66,2.66,0,0,0-1.819.455,3.314,3.314,0,0,0-1.216,1.681c-.47,1.334-.459,3.4.461,6.272l1.392,5.2c.2.751.382,1.468.544,2.107.911,3.6,1.233,4.88,4.265,8.581a101.662,101.662,0,0,0,7.013,7.558c.6.6,1.188,1.192,1.783,1.8h0Zm2.09,1.921a1.022,1.022,0,0,0,.442,0H31.748v4.574H19.174v-4.574h.172Zm32.162-1.921a1.2,1.2,0,0,1,.269.762v6.893a1.128,1.128,0,0,1-1.094,1.159H35.922a1.128,1.128,0,0,1-1.094-1.159v-6.957a1.225,1.225,0,0,1,.006-.123c.014-.745.042-1.462.085-2.146q.071-1.132.195-2.248a19.237,19.237,0,0,1,.889-4.738,9.985,9.985,0,0,1,2.96-4.023c.289-.258.585-.521.894-.769a8.693,8.693,0,0,1,1.076-.743c.643-.37,1.243-.7,1.789-1.007a22.721,22.721,0,0,0,6.376-4.834c.023-.022.046-.044.07-.063l2.793-2.615c1.707-2.119,3.376-2.817,4.66-2.675h0a2.757,2.757,0,0,1,1.589.727l2.822-7.127,0,0a1.155,1.155,0,0,1,.167-.292,4.134,4.134,0,0,1,2.722-1.674,2.66,2.66,0,0,1,1.819.455,3.314,3.314,0,0,1,1.216,1.681c.47,1.334.459,3.4-.461,6.272l-1.392,5.2c-.2.751-.382,1.468-.544,2.107-.911,3.6-1.233,4.88-4.265,8.581a101.663,101.663,0,0,1-7.013,7.558c-.6.6-1.188,1.192-1.783,1.8h0Zm-2.09,1.921a1.022,1.022,0,0,1-.442,0H37.015v4.574H49.59v-4.574Zm-20.4-37.674H39.6v2.644H29.019v-2.645Zm-7.578-6.161c2.7.091,4.344,1.288,4.768,3.783H21.441Zm25.544,0c-2.7.091-4.344,1.288-4.767,3.783h4.767Zm-23.678-5.06H45.458l-.949-4.646c-.26-1.273-1.008-2.373-2.239-2.373H26.95c-1.231,0-1.862,1.13-2.239,2.373l-1.4,4.646Z" transform="translate(25.887 -12648.539)" fill="#00008f" fill-rule="evenodd"/></g></svg>