<svg xmlns="http://www.w3.org/2000/svg" xmlns:xlink="http://www.w3.org/1999/xlink" width="138" height="138" viewBox="0 0 138 138"><defs><filter id="a" x="0" y="0" width="138" height="138" filterUnits="userSpaceOnUse"><feOffset dx="3" dy="3" input="SourceAlpha"/><feGaussianBlur stdDeviation="3" result="b"/><feFlood flood-color="#fff" flood-opacity="0.161"/><feComposite operator="in" in2="b"/><feComposite in="SourceGraphic"/></filter></defs><g transform="translate(6.094 5.868)"><g transform="matrix(1, 0, 0, 1, -6.09, -5.87)" filter="url(#a)"><g transform="translate(6 6)" fill="none" stroke="#00008f" stroke-width="1"><circle cx="60" cy="60" r="60" stroke="none"/><circle cx="60" cy="60" r="59.5" fill="none"/></g></g><path d="M48.823,22.61h-8.4V19.417A11.205,11.205,0,0,0,48.823,8.6h-8.4V5.8a2.81,2.81,0,0,0-2.8-2.8H15.206a2.81,2.81,0,0,0-2.8,2.8V8.6H4a11.205,11.205,0,0,0,8.4,10.814V22.61H4a11.205,11.205,0,0,0,8.4,10.814v3.194H4a11.205,11.205,0,0,0,8.4,10.814v3.194a2.81,2.81,0,0,0,2.8,2.8H37.617a2.81,2.81,0,0,0,2.8-2.8V47.431a11.205,11.205,0,0,0,8.4-10.814h-8.4V33.424a11.205,11.205,0,0,0,8.4-10.814ZM26.412,47.823a5.6,5.6,0,1,1,5.6-5.6A5.6,5.6,0,0,1,26.412,47.823Zm0-14.007a5.6,5.6,0,1,1,5.6-5.6A5.6,5.6,0,0,1,26.412,33.816Zm0-14.007a5.6,5.6,0,1,1,5.6-5.6A5.6,5.6,0,0,1,26.412,19.809Z" transform="translate(34 31.074)" fill="#00008f"/></g></svg>