<?xml version="1.0" encoding="utf-8"?>
<!-- Generator: Adobe Illustrator 24.1.1, SVG Export Plug-In . SVG Version: 6.00 Build 0)  -->
<svg version="1.0" id="Layer_1" xmlns="http://www.w3.org/2000/svg" xmlns:xlink="http://www.w3.org/1999/xlink" x="0px" y="0px"
	 viewBox="0 0 841.9 595.3" enable-background="new 0 0 841.9 595.3" xml:space="preserve">
<g id="AG-OUTLINE">
</g>
<g>
	<g id="AG-POP-CULTURE">
		<path fill="none" stroke="#2B2B2B" stroke-linecap="round" stroke-linejoin="round" stroke-miterlimit="10" d="M495.9,585.3
			c-7.2-3.6-8-30.5-0.9-45.9c7.9-17.1,32.9-60.4,8.2-74.9c-24.7-14.5-17.8-21.1-32.9-37.9c-15.1-16.8-8.9-19.3-9.9-23.6
			c-3.3-14.8,14.5-37,15.3-39.3c0.8-2.3,0.8-10.8,0.5-13.4c-0.3-2.6-11.2-9.4-14-9.7c-2.7-0.3-4.1,4.6-7.9,4.8
			c-3.8,0.3-20.5-10.5-24.1-13.4c-3.6-2.8-5.2-9.7-10.1-14.8c-4.9-5.1-5.5-1.1-13.2-4.3c-7.7-3.1-32.3-12.5-51.2-20.5
			c-18.9-8-20.5-19.2-20.8-27.1s-11.5-19.4-16.8-27.6c-5.3-8.3-6.2-19.7-8.2-17.1c-1.9,2.6,9.9,32.5,7.9,33.3
			c-1.9,0.9-6-8.3-11.5-15.7c-5.5-7.4,5.8-3.4-11.8-39.3c-17.5-35.9,5.5-54.2,6.6-72.9s14.8,6.8,7.7-5.1c-7.1-12,0.5-37-4.9-46.2
			c-5.5-9.1-36.7,10.3-36.7,10.3c0.8-8.8,27.4-23.9,46.6-37.9c19.2-14,30.9-3.1,46.3,2c15.4,5.1,16.4,3.4,11.2-1.7
			c-5.2-5.1,2.2-7.7,14.2-5.7c12.1,2,15.3,17.1,33.7,15.7c18.4-1.4,1.9,3.7,4.4,8.5s-2.7,4.3-14.8,12.8c-12.1,8.5,0.3,8.5,21.6,24.8
			c21.4,16.2,14.8-10.8,12.6-22.8c-2.2-12,15.6-2.6,15.6-2.6c13.2,9.1,10.7,0.5,20.3,3.6c9.6,3.1,35.6,26,35.6,26
			c-32.6,18.5-12.1,20.5-6.6,24.8c5.5,4.3-11.2,12.5-11.2,12.5c-6.8-7.1-7.9,0.3-12.3,2.8c-4.4,2.6-0.3,9.1-0.3,9.1
			c-22.7,3.7-17.5,28.5-17.3,34.5c0.3,6-14.5,15.1-18.4,23.6c-3.8,8.5,9.9,27.1,2.7,28.2c-7.1,1.1-14.2-27.9-52.6-17.1
			c-11.6,3.3-37.3,17.1-23.6,45.3c13.7,28.2,36.4-8,44.1-4c7.7,4-2.2,21.9-0.5,22.2c1.6,0.3,21.6,0.8,22.7,25.1
			c1.1,24.3,30.4,22.2,36.7,22.8c6.3,0.6,27.4-17.9,30.4-18.8c3-0.9,15.1-11.4,41.4,4.3c26.3,15.7,39.7,13.4,48.8,19.9
			c9,6.6,2.7,19.7,11.2,23.9s42.5-1.4,51,13.1c8.5,14.5-35.1,87.5-48.8,95.4c-13.7,8-20,26.2-33.7,37.9
			c-13.7,11.7-32.9,26.1-51,37.3c-16,9.9-18.9,27.6-26,33.2 M506.3,281.3c-3.8,1.1-11.8,8.5-31.2-3.4c-19.5-12-32.9-9.7-34.5-11.7
			c0,0-1.6-4.8,6.8-5.7c17.4-1.8,39.5,16.8,44.4,17.1c4.9,0.3,7.4-5.1,16.2-2.2C516.7,278.4,510.1,280.2,506.3,281.3z M414.5,36.6
			c-1.9-1.4,1.6-3.1,3.7-6c1.2-1.7,0.3-4.4,1.8-6c4.1-4.3,24.4-10.3,20.4,1.4C436.5,37.7,417.5,38.9,414.5,36.6z M463.6,73.6
			c-6.8-0.3-23-2.1-20-5.1c11.6-12-4.4-15.4-14.2-16.2c-9.9-0.9-14-6.6-9-7.1c4.9-0.6,24.7,0.3,27.9,3.1
			c3.3,2.8,21.1,10.3,22.2,15.7C471.5,69.4,470.4,73.9,463.6,73.6z M523,71.6c-5.5,4.6-33.1-16.4-38.4-21.1
			c-23-20.5-35.3-13.7-40.2-17.1c-4.8-3.4-3.1-8,4.3-14.8c7.4-6.8,28.2,2.3,40.3,3.7c12.1,1.4,26,11.1,26.3,22.6
			C515.6,56.5,528.5,67.1,523,71.6z M639.1,93.5c-52.6-54.7-122.5-85-196.9-85.4h-2.8c-154.6,0.8-279.7,132.3-278.9,293
			c0.8,160.2,126.4,290,280.3,290c0.5,0,1,0,1.5,0c74.9-0.4,145.1-31.1,197.8-86.4c52.7-55.3,81.5-128.7,81.1-206.6
			C720.8,220.8,691.7,148.1,639.1,93.5z"/>
	</g>
	<g id="_x23_2a2a2aff">
		<path fill="#2B2B2B" d="M331.5,138.9c0.1-0.5,0.6-0.5,1-0.7c0.2,0.3,0.5,0.7,0.3,1.2c-0.3,2.4,0.9,4.5,1.5,6.7
			c1.8,6.6,4,13.2,5.7,19.9c1.9,7.3,3.4,14.7,5,22.1c0.2,0.6,0,1.3-0.2,1.9c-0.5-0.4-1.2-0.7-1.3-1.4c-1.4-5-2.5-10.1-3.7-15.2
			c-1-4.4-2-8.8-3.1-13.3c-0.8-3.5-1.6-7-2.8-10.3c-1.1-2.9-1.9-5.8-2.7-8.7C331,140.3,331.3,139.6,331.5,138.9z"/>
		<path fill="#2B2B2B" d="M419.7,156.1c0.6-0.6,1.5-0.5,2.3-0.5c0.1,0.3,0.2,0.6,0.3,0.9c-3.4,2.3-6.6,5-9.8,7.6
			c-3.8,3.1-7.7,6.2-11.5,9.2c-3.3,2.6-6.7,4.9-10.1,7.3c-1.2,0.9-2.5,1.7-3.6,2.7c-0.7,0.6-1.4,1.3-2.2,1.8c-0.5,0.1-1,0.1-1.5,0.1
			c0.2-1.6,1.8-2.2,2.8-3.1C397.6,173.7,408.5,164.7,419.7,156.1z"/>
		<path fill="#2B2B2B" d="M261.4,175.7c0.3-0.7,1.3-0.8,1.9-0.6c7.8,1.1,15.7,2,23.6,2.9c1.2,0.1,2.4,0,3.6,0.4
			c0.2,0.9,0.1,2-0.6,2.7c-5.3,6.6-10.5,13.1-15.4,20c-1.3,1.6-3.3,2.2-5.1,3.1c-8.3,4.1-16.7,8-24.9,12.2
			c-4.1,2.1-8.1,4.3-12.1,6.5c-5.8,3.2-11.6,6.5-17.2,9.9c-0.6,0.4-0.7,1.1-0.7,1.8c-0.4,7.2-0.9,14.5-1,21.7
			c-0.1,6.6,0.1,13.1,0.2,19.7c0.2,2.5,0.5,5.1,0.8,7.6c0.2,0.8-1,1.5-0.3,2.2c1.4,1.7,2.8,3.4,4.2,5.1c0.5,0.6,1.3,0.7,2,0.4
			c9.9-4.1,19.9-8,29.6-12.6c-1.4-1.8-2.6-3.7-3.5-5.9c-0.3-0.8-0.7-1.9-0.1-2.7c2.3,3.2,5.1,6.2,8.7,7.9c2.4,1.2,5,1.7,7.7,1.7
			c-1.7-4.1-3.4-8.2-5-12.3c-0.4-1.2-0.1-2.4-0.1-3.7c0.2,0,0.5,0,0.6,0.1c0.4,1.3,0.7,2.7,1.4,4c1,1.8,2.8,2.7,4.3,3.9
			c0.5-0.4,1.1-0.9,1.7-1.1c5.9-2.9,11.9-5.7,17.8-8.5c1.6-0.8,3.1-1.6,4.5-2.7c0.9-0.7,1.3-1.9,1.9-2.9c3.1-5.4,6.3-10.7,9.4-16.1
			c0.7-1.1,1.1-2.3,1.4-3.6c-9.3-0.3-18.6-1.7-27.9-2.3c-0.7-0.1-1.2-0.6-1.7-1c0.6-0.3,1.2-0.9,1.9-0.7c9.8,0.8,19.6,1.5,29.4,2.1
			c0.5,0.1,1.2,0.1,1.3,0.7c-0.1,0.8-0.6,1.5-0.9,2.1c-2.9,5.3-6,10.5-8.9,15.8c-1.1,2-2.1,4.1-3.4,6c-1.2,1.6-3.1,2.4-4.8,3.3
			c-6.7,3.5-13.6,6.7-20.3,10.2c1.8,2.1,3.6,4.1,5.7,5.8c2,1.6,4.6,2.4,7.1,2.3c-0.8,1.1-2.3,1.3-3.5,1c-1.5-0.3-2.9-1.1-4.2-2
			c-0.8-0.4-1.4-1.2-2.1-1.8c-2.2-2-4.4-4.1-6.7-6.1c1.1,2.7,1.9,5.6,3.4,8.1c1.4,2.4,3.6,4.1,5.8,5.6c2.1,1.3,4.3,2.3,6.7,2.7
			c0.8,0.1,1.6,0.6,2.4,0.4c0.6-0.2,0.8-0.9,1.1-1.4c0.5-0.2,1-0.1,1.5-0.1c1.2,0,2.4-0.5,3.4-1.2c1-0.6,2-1.2,2.9-1.8
			c0.2-0.4,0.4-1.2,0.9-0.7c2.2,1.5,4.5,3.2,5.4,5.9c1.2,3.6,1.1,7.5,0.9,11.3c1.8-0.6,3.9-0.5,5.5,0.7c0.8,0.6,1,1.8,1.7,2.5
			c-0.1-1.8,1-3.3,1.3-5.1c0.1-3,0.7-6.1-0.3-8.9c-0.9-2.6-0.9-5.6-2.3-8c-1.3-2.3-3.7-3.7-6.1-4.5c-1.9-0.7-3.9-0.9-5.9-1.2
			c0.4,1.3,1.6,3,0.3,4.2c-1.4-2-2.3-4.5-4.2-6.1c-1.5-1.3-3.5-1.6-5.4-1.5c-2,0.1-3.9,0.6-5.6,1.7c1.2-0.1,2.4-0.3,3.6-0.4
			c1.3,0,2.7-0.2,4,0.5c0.9,0.5,1.9,1.3,1.9,2.4c-0.4,0-0.9,0.1-1.2-0.2c-1.3-0.9-2.9-1.5-4.5-1.5c-2.8,0-5.4,1.2-8,2.2
			c-0.1-0.2-0.2-0.4-0.3-0.7c1.2-0.7,2.4-1.4,3.6-2.1c-1.6,0.3-3.6,0.9-5-0.4c2.4-0.7,4.8-1.4,7.2-2c2.7-0.8,5.7-1.5,8.5-0.7
			c1.7,0.4,3.2,1.7,4,3.4c3-0.2,6.1,0,8.9,1.4c3.1,1.5,5.7,4.2,6.9,7.6c1.9,5.3,2.2,11.3,0.4,16.7c1.3,0.2,2.7,0.4,4,0.8
			c1.5,0.5,2.5,1.8,3.2,3.1c0.5,0.9,1.2,1.8,2.2,2.2c2.7,1,5.5,1.8,8.3,2.7c0.7,0.2,1.3,0.9,1.8,1.4c-0.9,0.4-1.9,0.9-2.9,1
			c1.9-0.2,3.9,0.6,5,2.2c1.5,2.2,2.1,5.1,1.3,7.7c-0.4,1.5-1.4,2.8-2.4,4c2-1.1,4-2.1,5.9-3.4c3.6-2.5,7.1-5.2,10.6-7.8
			c6.4-4.8,13.2-9,19.2-14.3c3.6-3.1,7.1-6.5,10.1-10.3c2.2-2.8,4-5.9,5.8-9c2.4-4,4.8-8,7.6-11.8c2.4-3.2,5-6.3,7.5-9.3
			c0.6-0.7,1.9-1.3,2.7-0.5c0.7,0.7,0.6,2,0.1,2.8c-1.6,3-3.2,6.1-5,9c1.1,0.6,2.4,1.1,2.8,2.3c0.3,1.3-0.4,2.6-0.9,3.8
			c-0.5,1.2-1.1,2.4-1.7,3.6c0.8,1,1.6,2.1,2,3.4c0.2,1.3-0.8,2.2-1.7,2.9c-1.2,1.2-2.9,1.9-3.6,3.6c-0.8,1.8-2.2,3.2-3.6,4.4
			c-2.4,2-5.2,3.5-8.3,4c-1.4,0.2-2.4,1.2-3.4,2.1c-1.4,1.2-2.5,2.8-3.8,4.1c-6,6.5-11.9,13-18,19.4c-1.5,1.5-2.8,3.1-4.5,4.4
			c-1.5,1.1-3.2,2-4.8,3c-5.4,3.5-11,6.5-16.1,10.6c-0.8,0.6-0.7,1.8-0.6,2.7c0.1,2.7,0.8,5.4,1.3,8.1c0.3,1.7,0.5,3.3,0.7,5
			c0.2,1.2,0.8,2.2,1.4,3.2c1,1.9,1.1,4.2,1.8,6.2c0.6,2,1.4,3.9,2.1,5.8c0.5,0.1,0.4-0.5,0.6-0.8c0.7-2.6,1.5-5.2,2.1-7.9
			c0.4-1.7,0.8-3.5,1.3-5.2c0.2-0.7,0.7-1.1,1.1-1.6c0.3,0.6,0.6,1.1,0.7,1.7c0,1,0,2.1,0.6,2.9c0.4,0.6,1.1,0.9,1.8,0.7
			c1.2-0.3,2.3-0.9,3-1.9c-0.7,0-1.3,0.6-2,0.5c-1.5,0-2.7-1.5-2.9-2.9c-0.3-1.6,0.7-3,1.5-4.3c0.8-1,1.5-2.2,2.6-2.8
			c1.8-0.7,4.1,0.4,4.7,2.3c0.2,0.8,0,1.6-0.1,2.4c-0.1,1.2-0.3,2.4-0.9,3.4c-0.9,1.5-1.5,3.1-2.2,4.7c-4.2,11.8-9.3,23.2-13.2,35.2
			c0.6-0.5,0.9-1.8,1.8-1.8c0.8,5.8,1.5,11.5,2.3,17.3c3.3,1.1,6.8-0.4,9.7-2c0.9-0.4,1-1.5,1-2.4c0-3.7,0-7.4-0.3-11.1
			c-0.1-1-0.1-2-0.5-2.9c-0.6-1.6-1.6-3-2.6-4.5c-1.7-2.7-3.7-5.2-5.6-7.8c0.1-0.2,0.3-0.5,0.4-0.6c0.6,0.2,1.4,0.3,1.8,0.9
			c2.4,3.2,4.7,6.5,7.1,9.8c1.5,2.1,1.1,4.9,1.2,7.3c0,3.1,0.2,6.2,0.3,9.3c0.1,1.1-0.1,2.3-0.8,3.1c-0.6,0.7-1.5,1-2.3,1.5
			c-1.1,0.6-2.1,1.4-3.3,1.7c-2,0.4-4,0.1-6,0.1c-0.4,0.6-0.4,1.3-0.6,2c-0.5,2.3-2,4.2-3.7,5.7c-2.8,2.5-6.4,3.5-9.9,4.5
			c-0.8,0.3-1.7,0.4-2.1,1.2c-1.5,2.5-4.2,3.4-6.5,4.8c-0.8,0.5-1.7,0.3-2.5,0.2c-2.1-0.4-4.2-0.7-6.2-1.4c-0.5-0.4-1.6-0.7-1.2-1.5
			c2.4-0.2,4.8,0.8,7.2,0.9c3.2,0.4,6.2-1.6,8-4.2c0.9-1.3,1.4-2.9,1.4-4.6c0.1-6.5-0.1-13.1,0-19.6c-1.7,1.5-3.5,3.1-5.7,3.7
			c-3.5,1.1-7.2,0.1-10.3-1.6c-0.9-0.5-1.8,0.1-2.3,0.8c0-0.9-0.1-1.8-0.1-2.7c1.2,0.1,2.4,0.2,3.6,0.2c0.2-1.9,0.2-3.9,0.5-5.8
			c0.1-0.8,0.5-1.6,1.1-2.1c1.3-0.9-0.1-3,1.2-3.8c1.1-0.4,2.3-0.1,3.5-0.1c0.7,0.8,0.2,2,0.5,3c1.1-0.1,2.1,0.7,2.2,1.8
			c0.2,2.7,0.8,5.4,1.3,8.1c1.5-1.3,3.1-2.5,4.5-3.9c0-6.5-0.3-12.9-0.3-19.4c-0.1-7.2,0.1-14.3,0.2-21.5c0-2.3,0.2-4.6-0.3-6.9
			c-1.1,0.1-2.1,0.3-3.1,0.9c-1,0.5-1.8,1.3-2.6,2c-0.6-0.7-0.8-2,0.1-2.5c1.9-1.2,4-1.8,6-2.8c-2.1-7.3-1.1-15.1,0.4-22.5
			c-2.4,0.5-4.7,1.4-7.2,1.5c-1,0-2.1-0.2-3-0.6c0.9,5,1.9,10.1,2.6,15.2c0.4,3.2,0,6.5-0.3,9.7c-0.3,2.9-0.7,5.7-1.1,8.6
			c-0.7,4.9-2.5,9.8-5.5,13.7c-2.1,2.6-3.1,6-3.3,9.4c-0.4,6.2-1.7,12.3-1.8,18.5c-0.1,2.7-0.1,5.4-0.3,8.1
			c-0.1,2.9-0.5,5.7-0.4,8.6c0.9,5,1.4,10.2,2.1,15.2c1.5,10.4,3.5,20.6,5,31c0.4,2.6,0.7,5.2,1.1,7.8c0.2,1.8,0.3,3.6,0.9,5.3
			c0.9,2.4,0.4,5.1-0.5,7.4c-3.2,8.4-6.7,16.7-9,25.5c-1.6,5.8-2.8,11.7-4.2,17.5c-0.2,1-0.7,1.9-0.9,3c-0.2,0.8,0.2,1.6,0.7,2.2
			c1.4,1.3,2.8,2.6,4.1,4c0.5,0.5,0.5,1.3,1,1.7c3.2,2.7,5.8,6.1,9.4,8.1c1.1,0.6,2.3,1.4,3.6,1c3.4-1.1,7.2,0.1,9.9,2.5
			c1.5,1.3,2.7,3.2,3.1,5.2c0.4,2.5-0.2,5.1-0.9,7.4c-0.1,0.4-0.4,0.7-0.8,0.8c-2.9,0.7-5.8,1.6-8.8,1.9c-1.9,0.1-3.9,0-5.8,0
			c-3.7-0.1-7.1-1.9-9.9-4.3c-6.6-5.6-13.3-11.1-20.1-16.4c0.1,1.6,0.5,3.2,1.8,4.2c6.6,6.1,13.5,12,21,16.9c2,1.3,4.4,1.9,6.7,2.1
			c2.1,0.2,4.2-0.1,6.2-0.3c2-0.2,4-0.4,6-0.8c1.3-0.3,2.3-1.3,3-2.3c0.3-0.4,0.9,0,1.1,0.4c0.2,0.6,0.4,1.3,0,1.8
			c-0.7,0.8-1.6,1.6-2.7,1.8c-3.9,0.6-7.8,0.9-11.8,1.3c-3,0.2-6.2-0.3-8.9-1.8c-1.5-0.8-2.8-1.9-4.1-2.9c-3.7-3-7.3-6.1-10.9-9.2
			c-1.2-1-2.4-2.1-3.8-3c-1.2-0.8-2.4-1.6-3.1-2.8c-0.8-1.3-1.4-2.9-2.7-3.6c-2.3-1.3-4.8-2.1-7.4-2.3c-2.8-0.3-5.6,0.1-8.2,0.9
			c-2.1,0.6-4,1.7-6,2.5c-0.5,0.2-1.3,0-1.6,0.6c-0.8,1.1-1.5,2.3-2.5,3.2c-3,3.5-5.9,7.1-9.4,10.1c-2.3,2-4.8,3.6-7.4,5.1
			c-1.4,0.8-2.8,1.8-4.2,2.5c-1.7,0.5-3.6,0.5-5.4,0.7c-2.1,0.2-4.3,0.4-6.4,0.5c-1,0.1-1.9,0.2-2.9,0c-2.5-0.3-4.6-2-6.2-3.9
			c-0.4-0.4,0-1,0-1.5c0.5,0,1.2-0.2,1.6,0.4c1.2,1.5,2.9,2.7,4.8,3.1c2.1,0.5,4.3-0.2,6.4-0.3c2.1-0.2,4.3-0.2,6.4-0.6
			c3.9-0.9,6.9-3.8,10.1-5.9c2.3-1.5,4.5-3.4,6.3-5.5c1.3-1.5,2.4-3.2,3.8-4.6c1.1-1.3,2.4-2.5,3-4c0.6-1.6,0.2-3.3-0.2-4.8
			c-0.4-2.5-0.4-5-1.1-7.5c-0.5-1.9-2.3-3-4-3.5c-1.5,1.4-2.9,2.8-4.5,4c-0.7,0.5-1.5,0.6-2.3,0.6c-1,0-1.8,0.5-2.7,0.8
			c1.4,0.6,2.9,1.1,4.2,1.8c0.6,0.3,1.2,0.9,1.3,1.6c-0.1,0.7-0.5,1.3-0.8,1.9c-0.5-0.2-1.1-0.4-1.4-0.9c-0.5-0.8-1.2-1.6-2.1-1.9
			c-1.1-0.5-2.5-0.2-3.4,0.5c-0.4,0.3-0.9,0.7-1.3,1.1c1.5-0.2,3.3-0.1,4.5,1.1c0.6,0.7,1.1,1.5,1.2,2.4c-0.1,0.6-0.2,1.7-1,1.7
			c-0.1,0-0.4,0-0.6,0c-0.2-1.2-0.6-2.5-1.7-3.2c-1.3-0.4-2.6-0.5-3.9-0.3c-0.9,0.6-1.6,1.4-2.4,2.2c1.7,1.5,3.6,2.8,5.3,4.3
			c0.5,0.4,0.7,1.1,0.3,1.7c-0.4,0.4-0.8,0.7-1.3,0.8c-0.7-0.4-0.8-1.3-1.2-2c-1-1.4-2.5-2.2-4.1-2.7c-1.2-0.3-2.3,0.3-3.2,1.1
			c1.2,0.9,2.5,1.5,3.6,2.4c1,0.8,1.8,1.7,2.7,2.5c0,1-1.1,0.7-1.7,0.5c-1.8-1.1-3.3-2.6-5.2-3.5c-1.8-0.8-3.8-1.4-5.8-1.2
			c-1.7,0.2-3.3,1-4.6,2.1c-1.8,1.6-3.3,3.7-3.6,6.2c-0.1,1.4-0.2,2.9,0.4,4.2c0.6,1.3,2.1,1.8,3.4,2.1c4.2,1.1,8.9,1.3,13-0.5
			c1.9-0.8,3.7-2,5.3-3.3c4-3.3,7.7-6.9,11.5-10.5c1.9-1.8,3.8-3.6,5.6-5.4c0.1,0.1,0.4,0.3,0.6,0.3c-0.3,0.9-0.4,1.9-1.1,2.5
			c-3.2,3.1-6.6,6.1-9.9,9.1c-1.6,1.4-3.4,2.8-4.8,4.5c-2.7,3-6.3,5.1-10.3,5.7c-4.8,0.7-9.9-0.2-14.3-2.4c-0.4-0.3-0.8-0.8-1-1.3
			c-0.6-2.3-0.7-4.7,0.1-6.9c0.5-1.4,1.6-2.5,2-3.9c0.4-0.8-0.7-1.5-0.5-2.3c0.1-5.4,0.3-10.8,0.4-16.2c0-13,0.1-26-0.1-39.1
			c-0.2-6.3-0.1-12.6-0.1-18.9c-0.1-6.5,0.3-13.1,0.4-19.6c0-6.8,0.1-13.6,0.3-20.3c0.4-9.2-0.1-18.3,0-27.5
			c-0.1-6.9,0.2-13.7,0.2-20.6c0-5.1,0.2-10.2,0.1-15.2c-0.1-7.8-0.2-15.6-0.2-23.3c0.1-7,0.3-14,0.5-21c0.2-8.3,0.4-16.7,0.7-25
			c0.1-2,0-3.9,0.2-5.9c0.1-0.6,0.7-0.8,1-1.3c-2.1-3.7-4.2-7.2-6.3-10.9c-0.2-0.4-0.5-0.8-0.8-1.2c-0.2,3.6,0,7.1-0.1,10.7
			c0.1,2,0,4,0.1,6c0.4,8.5,0.3,16.9,0.3,25.4c0,2.8-0.1,5.7-0.1,8.5c0,4.9,0,9.9,0,14.8c-0.1,3.4-0.4,6.8-0.2,10.2
			c0.1,3.1,0.3,6.2,0.2,9.3c-0.3,12.2-0.8,24.3-1.1,36.5c-0.3,9.7-0.6,19.4-0.6,29.1c0.1,2.8,0.1,5.6,0,8.3c0,6.2-0.1,12.5-0.2,18.7
			c0.1,2.8-0.2,5.5-0.2,8.3c-0.4,6.9,0,13.9,0,20.8c0.2,5.8,0.2,11.6,0.6,17.3c0.3,5.5,0.6,10.9,0.4,16.4
			c-0.1,5.8-0.3,11.6-0.4,17.3c-0.1,4.9,0.3,9.7,0.5,14.5c0.1,0.6-0.2,1.3-0.5,1.8c-0.1,0.4-0.6,0.1-0.8,0.1
			c-0.2-0.7-0.4-1.4-0.4-2.1c0-3.5-0.3-7.1-0.2-10.6c-0.1-12.2,0.6-24.5,0-36.7c-0.3-5.6-0.5-11.1-0.4-16.7c0-4,0-8,0-12
			c-0.2-4.9-0.3-9.8-0.2-14.8c0-6.9,0.1-13.9,0.2-20.8c0-6.5,0.2-12.9,0.2-19.4c0.2-6,0.2-12,0.4-18c0.1-6.3,0.2-12.7,0.7-19
			c0.5-5.8,0.7-11.7,0.5-17.5c0-2.8-0.1-5.5-0.2-8.3c-0.1-3.9-0.1-7.9,0.1-11.8c0.2-10.4-0.1-20.8,0.3-31.2c0.1-1.2-0.4-2.6-1.6-2.9
			c-15.9-6.2-31.5-13.1-47.3-19.5c-4.3-1.8-8.7-3.3-13.1-4.8c-0.8-0.3-1.8-0.5-2.3-1.2c-1.4-1.9-2.7-3.9-4.2-5.6
			c-2.8-3.3-5.9-6.3-8.6-9.7c-2.4-3-4.6-6.2-6.9-9.3c-0.7-0.9,0-2.3,1.1-2.4c3.6-0.6,7.2-1.2,10.9-1.2c3.3-0.2,6.7-0.3,10-0.4
			c2.8,0,5.6,0,8.5,0c4.9,0.2,9.4,2.2,13.8,4.1c6.2,2.6,12.4,5.4,18.7,7.8c4.3,1.5,8.6,2.8,12.8,4.5c2.8,1.1,5.5,2.3,8.2,3.3
			c-0.4-1.2-0.9-2.5-1.6-3.6c-0.6-1-0.8-2.2-1.5-3.1c-1.1-1.5-2.8-2.2-4.5-2.7c-2.9-0.9-5.4-3-6.9-5.7c-0.5-0.8-0.8-1.8-1.3-2.5
			c-0.7-0.7-1.5-1.2-2.3-1.7c0.2,2.3,1.5,4.7,3.8,5.2c0,0.5,0.1,1.3-0.4,1.5c-1.2,0.2-2.2-0.8-3-1.8c-1-1.3-1.7-2.7-2.1-4.3
			c-0.2-0.9,0.1-1.9-0.3-2.7c-0.6-1.8-2-3.5-2-5.5c0-1.6,1-2.9,1.9-4.1c0-0.7-0.1-1.4-0.5-1.9c-0.6-0.8-1.5-1-2.4-1.4
			c-2.3-1.1-4.5-2.4-6.9-3.5c-3.8-1.8-7.6-3.5-11.3-5.6c-2.8-1.5-5.5-3.1-8.4-4.5c-1.4-0.6-2.6-1.6-3.8-2.5c0-0.2,0.1-0.5,0.1-0.7
			c0.7-0.1,1.4-0.2,2,0.2c9.4,5,18.9,9.9,28.4,14.8c-1.1-2.5-2.2-5-3.3-7.5c0.8-0.4,1.7-0.7,2.7-0.6c1,0.1,1.8,0.9,2.3,1.7
			c5,7.3,9.9,14.7,15.4,21.7c1.4,1.8,2.8,3.6,4.2,5.4c0.3,0.4,0.7,0.7,1.1,1c-0.1-3-0.4-5.9-0.3-8.9c-2.9-1.4-5.9-2.7-8.8-4.2
			c-0.6-0.2-0.7-1-1-1.6c0.6,0,1.3-0.1,1.9,0.2c2.5,1.2,5.1,2.5,7.6,3.8c0-6.2,0-12.4,0-18.7c0-2.1-0.4-4.2,0-6.2
			c0.3-1.7-0.7-3.4-2.1-4.2c-7.9-4.8-15.8-9.7-23.7-14.4c-5.2-3.1-10.3-6.3-15.9-8.7c-1.6-0.6-3.2-0.3-4.8-0.3
			c-6.5,0.3-12.9,0.6-19.4,0.9c0.9,1.9,2,3.7,3,5.6c1.4,2.5,2.4,5.2,3.7,7.7c1.3,2.5,2.7,5,4,7.6c0.6,1.2,1.5,2.3,1.3,3.7
			c-0.6-0.3-1.3-0.4-1.6-1.1c-3.8-7.1-7.4-14.4-11.5-21.3c-0.5-0.8-1.1-1.7-0.9-2.7c0.1-0.7,0.8-1.1,1.5-1.1
			c5.9-0.4,11.7-0.8,17.6-1.1c1.4,0,2.8,0.1,4.2-0.2c2.8-0.2,5.1,1.5,7.5,2.8c8.8,4.7,17.5,9.7,26.1,14.9c3.4,2.1,6.9,4.1,10.3,6.4
			c0.3,0.2,0.7,0.3,1,0.3c0-14.3,0-28.6,0-42.9c0.4,0,0.9,0,1.3-0.1c0.2-0.4,0.2-0.8,0.5-1.2c1.6-0.2,3.2-0.2,4.9-0.1
			c1,0.1,2.1,0.1,2.9,0.9c0.9,0.9,1.2,2.2,1.2,3.5c0,3.5,0,6.9,0,10.4c1.8-0.8,3.6-1.8,5.3-2.8c4.4-2.4,8.9-4.9,13.3-7.3
			c3.7-2,7.2-4.3,10.8-6.5c4.4-2.8,8.9-5.6,13.3-8.4c0.5-0.4,1.2-0.1,1.7,0c-0.2,0.6-0.4,1.3-1,1.6c-3.7,2.3-7.4,4.5-11,7
			c-6.6,4.4-13.3,8.4-20.4,11.8c-1.9,0.9-3.8,1.7-5.6,2.8c-2,1.3-4,2.6-6.2,3.7c-0.4,0.1-0.2,0.7-0.3,1c0,8.7,0,17.4,0,26.1
			c3.8-2.3,7.6-4.7,11.5-6.9c8.2-4.7,16.5-9.3,25-13.6c3.4-1.7,6.8-3.4,10.3-5c2.8-1.3,5.7-2.5,8.5-3.9c1.4-0.7,2.7-1.8,3.8-3
			c3-3.7,5.9-7.4,8.8-11.1c2-2.6,4.1-5.1,6.1-7.8c-7.5-0.2-14.9-1.7-22.3-2.7c-1.3-0.2-2.7-0.4-4-0.7
			C262,176.5,261.7,176.1,261.4,175.7 M205.7,189.3c0.1,4.8-0.3,9.7-0.3,14.5c0.4,6.4-0.1,12.8-0.1,19.2c-0.3,7.1-0.2,14.2,0,21.3
			c0.2,9.2,0.4,18.3,0.4,27.5c0,0.8-0.7,1.2-1.4,1c2.9,3.5,5.6,7.2,8.4,10.7c0-1.4-0.2-2.7-0.3-4.1c-0.5-3.9-0.3-7.8-0.4-11.8
			c0-6.2,0-12.5,0.3-18.7c0.4-7.9,0.8-15.9,0.9-23.8c0-3.4,0.1-6.8,0.1-10.2c0.2-3.2,0-6.5,0.1-9.7c0-2.9-0.1-5.7-0.1-8.6
			c-0.2-1.8,0.2-3.7-0.1-5.5c-0.3-1-1.1-1.9-2.1-2C209.2,188.8,207.4,189.1,205.7,189.3 M181.9,244.9c-0.2,0.3-0.5,0.6-0.7,0.9
			c2.2,4.1,4.5,8.2,6.8,12.3c-0.8,0.2-1.6,0.2-2.4,0.2c-1,0.2-1,1.6-0.9,2.4c0.4,2.4,1.6,4.7,3.6,6.1c0.6-0.8,1.1-1.9,0.7-3
			c-0.3-1.3-1.5-2-1.7-3.3c0.5,0,1.3-0.1,1.6,0.5c0.8,1,1.4,2.1,2.1,3.2c1-0.1,2.1-0.4,3.1,0c1.1,0.5,1.7,1.6,2.5,2.4
			c-0.1-1-0.7-1.8-1.4-2.5c-0.9-0.9-1.6-2.1-2.3-3.1C189.2,255.7,185.6,250.2,181.9,244.9 M393.6,261c-4.3,5.4-8.8,10.7-12.2,16.8
			c-2.7,4.7-5.7,9.3-8.9,13.6c-2.5,3.4-5.7,6.3-8.8,9.1c-3.3,2.9-6.7,5.7-10.1,8.4c-3.8,2.9-7.8,5.6-11.7,8.4
			c-0.4,0.3-0.7,0.7-0.9,1.1c0.8-0.3,1.7-0.9,2.6-0.5c0.9,0.5,1.1,1.6,1.5,2.4c1.3,0.2,2.5,0,3.8,0.1c0.1,1,0.1,2.1,0.3,3.1
			c0,0.3,0.3,0.4,0.5,0.6c3.1-3.2,6.2-6.5,9.4-9.7c-0.2-0.3-0.4-0.6-0.6-0.9c-0.2-1.1-0.1-2.3-0.2-3.4c0-1.3-0.2-2.6,0-3.9
			c0.3-0.5,1-0.6,1.4,0c1,1.6,0.9,3.6,1.4,5.3c0.5-0.7,1-1.4,1.5-2.1c-0.2-0.4-0.6-0.5-0.7-0.9c0-1.6,0.2-3.3,0.5-4.9
			c0.2-0.2,0.4-0.4,0.7-0.5c0.5-0.1,0.9,0.3,1.1,0.8c0.4,0.9,0.5,1.8,0.8,2.8c0.6-0.4,1.3-0.8,1.6-1.5c0.5-0.8,0.3-1.8,0.1-2.7
			c-0.3-0.8-0.2-1.7,0.1-2.6c0.2-0.8,1.2-1.2,1.8-0.6c0.6,0.6,1.2,1.3,1.8,2c0-0.2-0.1-0.5-0.1-0.6c1.4-0.8,2.7-1.8,4.1-2.5
			c1.7-0.8,3.7-0.9,5.4-1.7c2.1-0.9,3.8-2.5,5.3-4.2c-0.7-0.8-1.3-1.6-1.8-2.5c0.4-0.5,0.6-1.6,1.4-1.4c0.2,0.7,0.4,1.4,0.5,2.1
			c1.1-1,2.2-2.1,3.3-3c0.8-0.7,1.9-1.2,2.2-2.3c0.3-0.9-0.1-1.8-0.6-2.6c-1,0.8-1.4,2.2-2.5,2.8c-0.6,0.4-1.3,0.2-1.9,0
			c-1.8,1.9-4.4,2.6-6.9,2.6c-0.6,0.1-0.8-0.5-0.8-0.9c1.1-0.9,2.5-1,3.9-1.3c1-0.3,2.1-0.8,2.6-1.8c0.4-1-0.1-2.1-0.7-3
			c-1.1,1-2,2.2-3,3.4c-0.5,0.5-1.1,0-1.5-0.4c0.9-1.5,1.8-3,3.2-4.1c0.7-0.6,1.7-0.8,2.6-0.5c3.1-6,6.1-12.1,9.2-18.2
			C394,261.2,393.7,261,393.6,261 M191.8,266.1c0.3,0.7,0.7,1.4,1.3,1.8c1,0.9,2.4,1.1,3.3,2.2c-0.6,0.4-1.5,0.9-2.1,0.3
			c-1.5-1.1-2.9-2.3-4.5-3.4c0,0.2,0,0.6,0,0.8c0.5,1,1.4,1.7,1.8,2.8c0.6,1.6,1.9,2.8,3.1,3.9c2,1.7,4.6,2.8,7.3,2.7
			c2.6,5.3,5,10.6,7.9,15.8c4,7.3,8.6,14.4,14.4,20.3c0.2-0.8,0.3-1.7,0.8-2.5c0.8-1.2,1.5-2.5,2.4-3.6c0.5-0.1,1.3-0.1,1.2,0.6
			c-0.4,1.9-1.2,3.6-1.5,5.5c-0.1,1.2,0.1,2.5,0.9,3.5c2,2.4,4.4,4.5,6.6,6.7c0.5-1.7,1.1-3.4,2.2-4.7c0.8-1,2.1-1.5,3.4-1.3
			c-0.2,0.6-0.5,1.3-1,1.7c-1.7,1.8-1.6,4.5-1.8,6.8c0.9,1.5,2.6,2.3,3.4,3.9c0.3,0.5,0.5,1,0.7,1.5c-0.1,0.1-0.2,0.3-0.3,0.4
			c-0.9-0.3-1.7-0.8-2.4-1.5c-5-5.6-10.4-10.7-15.6-16.1c-3-3-6.1-5.9-7.9-9.8c-0.4-0.6-0.8-1.7-1.7-1.5c0,3-0.1,5.9-0.1,8.9
			c-0.1,5.8-0.1,11.7-0.3,17.5c0,6.8-0.3,13.6-0.2,20.4c-0.1,5.9-0.2,11.9-0.2,17.8c-0.1,6.9-0.2,13.9-0.2,20.8
			c-0.2,11.2-0.2,22.5-0.3,33.7c-0.1,2.8,0,5.6-0.1,8.3c0,6.1,0,12.2-0.1,18.3c0,2.8,0.1,5.7-0.1,8.5c0,3.6,0.1,7.3-0.1,10.9
			c0,16.7-0.2,33.4-0.2,50.1c-0.1,6.3,0,12.6-0.1,19c-0.1,6.5,0.1,13.1-0.1,19.6c2.1-2.1,5-3.2,7.9-3.2c1.2-0.1,2.5,0.3,3.6-0.3
			c1.4-0.6,2.5-1.6,3.7-2.5c1.9-1.6,3.7-3.2,5.6-4.9c1.6-1.5,3.1-3.2,3.4-5.5c0.3-1.8-0.2-3.5-0.5-5.2c-0.9-5.1-1.4-10.3-2.4-15.4
			c-0.5-2.7-1.3-5.3-2-7.9c-1.5-5.6-2.5-11.3-4.2-16.9c-1.2-4.1-2.8-8.1-4.2-12.1c-0.4-1-0.3-2.1,0.1-3.1c1.5-4.8,2.9-9.7,5-14.2
			c2.9-6.5,4.8-13.4,6.7-20.2c1.7-6.1,2.9-12.3,4.4-18.5c0.5-2.3,1.3-4.4,1.7-6.7c0.2-1.5,0-3.1,0.2-4.6c0.3-2.2,0.7-4.3,1.1-6.5
			c2.2-10.4,3-21,4.6-31.4c1-6.5,0.6-13.3,2.4-19.7c0.2-0.9,0.8-1.9,0.5-2.9c-0.4-0.9-1.3-1.3-2.1-1.8c-2.2-1.5-4.3-3-6.5-4.6
			c-0.5-0.3-0.5-1-0.5-1.6c0.1-3.1,0.2-6.1,0.6-9.2c0.2-1.8,0.5-3.7,1.1-5.4c0.9-2.1,1.5-4.2,2.4-6.2c1-2.4,2.4-4.6,4.5-6.2
			c-4.1-2.4-8.1-4.7-12.2-7.1c-0.9,1.1-1.8,2.3-2.8,3.5c-0.6,0.9-1.9,0.4-2.8,0.3c0.7-2.1,1.6-4.1,2.3-6.2c0.3-0.5-0.2-1.1-0.5-1.4
			c-1.1-1.1-2.3-2.1-3.6-3c-0.9-0.8-1.8-1.9-3.1-1.8c-1.1,0.1-2.3,0.3-3.3,0.7c-0.8,0.3-1.1,1.2-1.8,1.6c-0.4,0.3-0.8-0.2-1.1-0.5
			c0.2-1.2,0.5-2.5,1.2-3.6c0.6-1,1.7-1.6,2.8-2c-0.5-1-1.2-1.8-1.9-2.7c-7.9-10.3-16-20.5-24.2-30.5c-0.3-0.4-0.8-0.5-1.2-0.7
			c-0.1,0.3-0.2,0.6-0.2,1c-1.2-0.1-1.8-1.4-2.9-1.7C192.8,265.7,192.3,266,191.8,266.1 M140.5,269.1c-4.9,0-9.8,0.4-14.7,0.9
			c-1,0.2-1.9,0.6-2.6,1.4c2.7,3.8,5.3,7.7,8.3,11.2c3.3,3.9,6.6,7.8,10,11.6c0.4,0.4,0.8,0.9,1.4,1.1c4.1,1.6,8.2,3.2,12.3,4.8
			c16.5,6.8,33.1,13.6,49.6,20.3c0-10.6,0-21.3,0-31.9c-0.6,0.1-1.3,0.2-1.9-0.2c-2.3-1.1-4.7-2-7.1-2.9c-6.9-2.7-13.8-5.3-20.6-8
			c-4.5-1.8-9-3.8-13.6-5.5c-2.5-1-5.1-2-7.8-2.3C149.4,269,144.9,269,140.5,269.1 M389.7,272.9c-1.2,2.6-2.5,5.3-3.8,7.9
			c0.2,1.1,0.4,2.3,0.6,3.4c1.7-1.4,2.3-3.6,3.3-5.5c0.6-1.3,1.3-2.6,1.6-4C391.7,273.6,390.5,273.2,389.7,272.9 M250.8,276.9
			c1.5,1.7,3.1,3.3,4.9,4.7c0.2-0.5,0.5-0.9,0.8-1.3C254.6,279.2,252.7,278,250.8,276.9 M250.3,280.3c-9.9,4.4-19.8,8.8-29.7,13.2
			c1.7,2.3,3.3,4.6,5.4,6.6c3,3,6,6.1,9.2,9c2.1,2,4.3,3.9,6.8,5.5c2.7,1.7,5.7,3.1,8.8,3.8c0.4,0.2,0.4-0.3,0.6-0.5
			c0.9-2.2,1.9-4.4,2.6-6.7c0.5-3.7,0.6-7.5,1.1-11.3c0.1-0.9,0.2-2.1-0.6-2.7c-1-0.7-2.2-0.8-3.2-1.3c-3.3-1.4-5.7-4.4-6.9-7.8
			c-0.2-0.6,0.2-1.4,0.9-1.2c1,0.3,1.7,1.5,2.8,1.7c2.7,0.5,5.7,0.8,8.3-0.5c1.1-0.5,1.8-1.5,3-1.8c-0.4-0.6-1.1-1-1.7-1.4
			c-2.1-1.5-4.2-3-6.3-4.5C250.9,279.9,250.6,280.2,250.3,280.3 M260.3,280.7c-0.8,0.3-1.7,0.1-2.6,0.2c0.9,0.5,1.8,0.9,2.7,1.3
			c0.4-0.4,0.8-0.8,1.2-1.2C261.1,280.9,260.7,280.8,260.3,280.7 M261.4,282.4c1.6,0.7,3.2,1.5,4.9,2.1c-0.9-1.2-1.9-2.3-2.8-3.5
			C262.6,281,262.1,281.9,261.4,282.4 M255.7,281.5c0.6,0.7,1.5,1.1,2.2,1.6c3.6,2.3,7.6,3.6,11.7,4.5l0.1,0.2
			c-0.5,0.5-1.5,0.3-2.1,0.7c-0.1,0.6,0.1,1.5-0.7,1.7c-1,0.2-2-0.4-2.9,0.1c-2.2,1.1-4.2,2.6-6.6,3.3c-0.3,2.8-0.5,5.7-0.8,8.5
			c-0.3,2.9-0.4,5.9-1,8.8c-0.5,2.9-2.4,5.4-2.7,8.3c-0.1,1.7,0.8,3.3,2.1,4.2c3,2.1,6.7,2.8,10.3,2.9c2.8,0,5.7-0.3,8.4-1.1
			c2.6-0.8,5.2-1.3,7.8-2.3c2.8-1.1,5.4-2.8,7.2-5.2c1.2-1.6,2.4-3.1,3.5-4.7c-0.1-0.6-0.2-1.3,0.1-1.9c0.5-1,1.4-1.7,2.2-2.3
			c0.5-0.4,1.2-0.7,1.8-0.5c1.5,1,2.6,3.3,1.5,5.1c-0.9,1.6-2.6,2-4.2,2.5c0,0.1,0,0.3,0,0.5c0.6,0,1.2-0.2,1.8-0.3
			c1.1-0.2,1.8-1.2,2.7-1.9c2-1.9,3.5-4.5,3.4-7.4c0-1.8-1.1-3.6-2.8-4.1c-1.2-0.3-2.7-0.3-3.7,0.7c-0.7,0.6-1.1,1.5-1.7,2.1
			c-1.6,1.7-3.1,3.8-5.3,4.6c-0.5,0.3-1-0.1-1.5-0.2c0.7-1,2-1.3,3-2c1.3-0.9,2.1-2.3,3.2-3.4c-0.1-0.1-0.3-0.3-0.4-0.4
			c0.1-0.5,0.3-1,0.7-1.3c1.4-1.1,2-2.9,1.8-4.7c-0.4-3.3-0.6-6.7-2-9.7c-0.9-1.8-2.3-3.3-4-4.2c-0.4,1.3-1.2,2.3-2.3,3
			c-2.7,1.6-5.8,2.6-9,2.5c-3.1-0.2-6.1-1.3-8.5-3.2c-0.9-0.7-1.9-1.3-3-1.4C262.4,284.6,259.1,282.8,255.7,281.5 M259.5,286.3
			c0.2,0.3,0.4,0.6,0.6,1c-0.7,1.7-1.8,3.1-2.6,4.7c0.6,0,1-0.4,1.5-0.7c1.8-1.1,3.5-2.3,5.3-3.4
			C262.6,287.3,261.1,286.8,259.5,286.3 M246.8,289.7c-0.1,0.1-0.2,0.4-0.2,0.5c1.1,1,2.1,2.1,3.3,3c1.6,1.2,3.6,1.6,5.5,2.3
			c0.1-0.9,0.3-1.7,0.4-2.5c-1.7-0.5-3.3-0.9-5-1.4c0-0.2,0-0.5,0-0.7c1.3,0.1,2.7,0.8,4,0.5c0.8-0.2,1.4-0.9,1.7-1.6
			c-2.2-0.2-4.3,0.6-6.4,0.7C248.9,290.5,247.8,290.2,246.8,289.7 M303.4,304.6c0,0.8,0,1.7,0,2.5c0.9-1.3,1.9-2.7,3.5-3
			c1-0.3,2,0.1,2.9,0.5c-0.9-0.9-1.9-1.6-3.1-1.7C305.4,302.7,304.2,303.6,303.4,304.6 M305.9,306.3c-1.6,1.4-2.6,3.5-2.9,5.6
			c-0.6,5.3,1.7,10.2,2.8,15.3c0.2,1.3,0.8,2.7,2,3.3c1.7,0.9,3.6,0.5,5.4,0.3c2.3-0.5,4.6-0.9,6.8-2c-2.3-0.7-4.5-2.5-5.4-4.9
			c-0.5-4.2,0.9-8.6,3.8-11.6c0.6-0.6,1.4-1,2-1.6c-2.5-0.7-5-1.5-7.4-2.3c-0.4-0.2-0.9-0.3-1.3-0.6c-0.4-0.5-0.6-1-1.1-1.4
			C309.3,305.2,307.2,305.2,305.9,306.3 M295.2,310.6c-0.4,1-0.7,2-1,3c0.2,0.1,0.5,0.3,0.7,0.4c0.5-0.5,1.1-1,1.5-1.5
			c0.5-0.6-0.1-1.4-0.4-2C295.7,310.6,295.5,310.6,295.2,310.6 M321.2,314.4c-1,0.8-1.9,1.9-2.3,3.1c0.8-0.5,1.5-1.1,2.2-1.7
			c0.7-0.5,1.7-0.9,2.5-0.4c1.3,0.7,2.3,2,2.4,3.5c0.1,1.3-0.4,2.6-1,3.8c-0.7,1.3-2,2.3-3.4,2.4c-1.3,0.1-2.9,0.2-3.8-1
			c-1-1.1-0.9-2.7-1.5-4l-0.2,0.1c0,1-0.3,2.1,0.1,3.1c0.5,1.2,1.4,2.3,2.5,3c0.9,0.5,1.9,0.3,2.9,0c2.5-0.7,4.3-3,4.9-5.5
			c0.4-1.6,0-3.4-0.9-4.8c-0.5-0.8-1.2-1.6-2.1-1.9C322.8,313.9,321.9,313.9,321.2,314.4 M297.2,317.4c-0.6,0.4-1.1,1.1-1.2,1.9
			c-0.2,2,0.1,3.9,0.6,5.8c0.9,3.7,2.6,7.1,3.8,10.6c2.1,5.5,4,11.1,5.2,17c1.2,5.6,1,11.5-0.2,17.2c-0.4,1.8-0.9,3.6-1.3,5.4
			c-0.1,0.3,0,0.4,0.3,0.5c0.6-1.3,1.1-2.6,1.7-4c0.9-2.2,1.2-4.6,1.7-6.9c0.6-3.7,1-7.4,1.4-11.1c0.2-2.4,0.2-4.9-0.1-7.3
			c-0.7-6-2.3-11.9-4.4-17.6c-0.9-2.5-2-5-2.6-7.6c-0.6-2.3-0.8-4.7-0.9-7.1C299.9,315.2,298.6,316.4,297.2,317.4 M291.4,317.2
			c-0.7,1-1.5,2-2.2,2.9c-1.2,1.4-2.9,2.1-4.4,3.1c-0.4,0.2-0.8,0.7-0.8,1.2c0,1.8,0,3.5,0,5.3c1.7-0.3,3.4-0.9,5.1-0.7
			c0.6,0.5,0.4,1.3,0.1,1.9c-1.6-0.9-3.6-0.3-4.9,1.1c1.7,1.4,3.8,2.2,5.7,3.3c0.5-1.6,1.3-3.4,0.7-5.1c-0.3-1.3-1.4-2.1-2.6-2.3
			c-1.2-0.4-2.5,0.3-3.8-0.2c0.4-0.5,0.7-1.1,1.2-1.3c1.1-0.2,2.3-0.2,3.5,0.1c1.7,0.5,3,2,3.5,3.8c0.1,0.6,0.7,0.8,1.3,0.7
			c0.2,0.7,0.2,1.4,0.3,2.1c0.7,7.5-0.4,15-1.7,22.4c-1,5.7-2.3,11.3-3.5,16.9c-1.4,6.3-2.6,12.6-3.8,18.9c-0.2,0.9,0.3,1.9,1.1,2.3
			c1.2,0.6,2.7,0.7,3.6,1.8c0.5,1,0.6,2.1,0.8,3.1c0.6,3.2,0.2,6.4-0.2,9.6c-0.3,3.1-1,6.2-1.2,9.4c-0.1,1.1-0.4,2.3-1.3,3.1
			c-1.8,1.5-3.7,2.8-5.7,4c-0.6,0.4-1.4,0-1.9-0.4c-0.3-0.4,0-1,0-1.5c0.7,0.3,1.5,0.9,2.3,0.6c1.2-0.4,2.1-1.3,3-2.2
			c0.7-0.8,1.5-1.6,1.8-2.7c1-5.6,2-11.3,2.4-17c-0.7,0.6-1.3,1.3-2.1,1.7c-0.6,0.3-1.2-0.1-1.6-0.6c0.8-0.4,1.7-0.8,2.2-1.7
			c0.6-1.2,0.8-2.7,0.4-4c-0.8-1.4-2.6-1.3-3.9-2c-0.7-0.4-1.4-0.4-2.1-0.7c-1.1-0.4-2.3-0.9-3.4-1.3c0,1.2,0.2,2.4-0.3,3.5
			c-0.4-0.3-1.1-0.4-1.2-1c0.2-2.5,0.2-5.1,0.3-7.6c0-0.6,0.1-1.4-0.3-1.9c-1.2-0.6-2.5-1-3.8-1.4c-1.3-0.4-2.7-0.4-4.1-0.6
			c-0.8,1.7-1.5,3.8-0.5,5.6c0.3-1.4,0-3.4,1.6-4c1.7,0.2,3.4,0.6,5.1,1c0.8,0.2,0.5,1.1,0.6,1.7c-0.1,1.6,0,3.3-0.6,4.8
			c-0.3,0.7-1.1,0.6-1.7,0.4c-1.2-0.4-2.5,0.1-3.6-0.4c-1-0.3-1.7-1.3-2.1-2.3c-0.1-0.4-0.4,0.1-0.4,0.2c-0.3,0.9-0.7,1.8-0.7,2.8
			c-0.1,0.3,0.2,0.5,0.5,0.7c1.6,1,3.7,0.8,5.4,1.5c-1.6,0.6-3.3,0.5-5,0.2c-1-0.2-2.2-0.4-2.9-1.3c-0.2-0.6,0.1-1.2,0.3-1.7
			c0.4-1,0.7-2.1,1.2-3.1c-2.5-0.1-5-0.5-7.5-0.6c-0.5,0-0.8,0.3-1,0.7c-2.5,3.8-4.8,7.6-7.3,11.3c-0.5,0.4-1.2,1-1.7,0.3
			c2.3-4.2,4.8-8.3,7.6-12.2c0.7-1.1,2-1.6,3.2-1.5c2.3,0.2,4.6,0.5,6.8,0.9c0.3-1.3,0.5-2.5,0.8-3.8c0.2-1,0.3-2.2,1.3-2.7
			c1-0.5,2.1,0,3.2,0.1c1.9,0.4,3.9,0.9,5.7,1.6c0.8,0.3,1.1,1.1,1.2,1.9c0.2,1.9,0.3,3.8,0.5,5.6c1,0.5,2.3,0.5,3.4,0.8
			c0.6-3.6,1.2-7.2,2-10.8c0.6-2.8,1.4-5.6,2.1-8.4c0.6-2.1,1-4.3,1.4-6.5c1.1-5.5,2.2-11.1,3.1-16.7c0.9-5.5,1-11.1,1.3-16.6
			c-0.1,0-0.3,0-0.4-0.1c-0.7,1.8-1.1,3.7-2.2,5.3c-2.1,3.1-5.6,5.4-9.4,5.2c-2.1-0.1-4-1.1-5.7-2.3c-1.8-1.2-3.3-2.9-4.7-4.7
			c-1.1,4.6-2.5,9-3.6,13.6c-0.9,3.4-2,6.7-2.6,10.1c-0.9,5.5-1.3,11.1-1.8,16.7c-0.2,2.9-0.4,5.7-0.6,8.6c0,0.7-0.5,1.3-0.9,1.9
			c-0.3,0-0.5-0.1-0.8-0.1c-0.1-1.9-0.3-3.8,0-5.7c0.7-6.4,1.5-12.8,2.3-19.2c0.7-5.1,2-10.1,3.5-15c1.4-4.9,3.3-9.7,4.4-14.7
			c-2.2,0.6-3.7,2.6-5.2,4.3c-2.2,2.4-4.2,4.9-6.1,7.5c-0.9,1.3-1.6,2.8-2.3,4.2c-2.4,5.4-5.1,10.7-6.6,16.4
			c-0.5,2.1-1.3,4.1-1.6,6.2c-0.3,1.7,0.2,3.5-0.4,5.1c-0.8,2.2-0.9,4.6-1.3,6.9c-0.8,6.2-1.5,12.3-2.3,18.5
			c-0.7,5-1.9,9.9-2.6,14.8c-0.2,1.4-0.6,3.1,0.4,4.2c1,1.1,2.4,1.7,3.7,2.4c1.9,1,3.8,2,5.9,2.6c3.2,1,6.4,2.1,9.8,2.5
			c8.6,0.8,17.3,0.9,25.8-1c1.9-0.4,4-0.5,5.6-1.6c0.8-0.5,1.3-1.4,1.8-2.2c0.5,0,1.3-0.1,1.3-0.9c0.6-4.5,0.3-9.1,0.6-13.7
			c0.1-6.2,1-12.4,1.8-18.6c0.3-2.1,0.3-4.3,0.7-6.4c0.3-1.9,1.1-3.6,1.7-5.4c1.2-3.3,2.5-6.7,3.2-10.3c0.9-4.9,1.1-9.9,0.1-14.8
			c-1-5.3-2.7-10.4-4.7-15.4c-1.5-3.9-3.4-7.7-4.3-11.8c-0.6-2.7-0.8-5.5-1.3-8.2C293.2,317.9,292.3,317.6,291.4,317.2 M320.4,320
			c0.2,0.2,0.5,0.5,0.7,0.7c0.8-0.7,0.9-1.8,1.1-2.7c0.5,0.1,1.1,0.1,1.3,0.6c0.2,0.9,0.1,1.9-0.4,2.6c-0.5,0.9-1.5,1.4-2.5,1.4
			c-1-0.2-1.5-1.2-2.3-1.9c0,1.1,0.6,2.4,1.7,2.7c0.8,0.3,1.8-0.1,2.4-0.7c0.8-0.9,1.4-2.1,1.7-3.3c0-0.9-0.6-1.5-1-2.3
			c-0.4,0-0.9,0-1.3,0C321.3,318.1,320.8,319,320.4,320 M335.7,321.1c0.1,0.1,0.2,0.1,0.3,0.2c0.8,0.1,1.6,0,2.4,0.4
			c0.5,0.3,0.3,1.1,0.3,1.6c-0.1,1.2-1,2.2-0.6,3.4c0.4,0,0.8,0,1.2,0c-0.1-0.1-0.3-0.4-0.4-0.5c0.5-1.2,0.7-2.6,1.9-3.4
			c1.1-0.6,2.2,0.5,3,1.2c-0.1-1.3,0.3-2.8-0.5-4c-0.8-1-2,0-3-0.2c0.2-0.5,0.4-1,0.6-1.5C339.1,319.3,337.5,320.3,335.7,321.1
			 M246.6,325.5c-1.6,2.7-3.2,5.7-3.8,8.9c-0.3,3.3-0.9,6.5-1.2,9.8c-0.2,1.7,0.5,3.3,1.7,4.5c1.8,1.8,4.3,2.4,6.2,4.1
			c1.6-3.8,3.2-7.5,4.9-11.2c2.1-4.6,4.8-8.8,7.2-13.2c-3-1-6.3-1.8-8.8-3.9c-1.2-1-1.8-2.6-1.7-4.2
			C249.2,321.5,247.8,323.5,246.6,325.5 M345.4,323c0.1,0.3,0.4,0.6,0.5,1c-0.2,0.6-0.5,1.3-0.8,1.9c0.7-0.4,1.6-0.7,1.9-1.5
			c0.4-0.9,0-1.8-0.2-2.7C346.3,322,345.7,322.4,345.4,323 M325.1,328.5c0.5,0.2,1.2,0.6,0.9,1.3c-0.5,1.1-1.3,2-2,3
			c0.4,0.5,1.1,0.7,1.3,1.3c-0.6,1-1.2,1.9-2,2.7c-0.6-1.2-2-2.4-1.6-3.9c0.7-1.7,2.1-2.9,3.1-4.3c-1.6,1-3.8,1.3-4.6,3.3
			c-2,4.3-1.7,9.1-2,13.7c1.1-0.9,2.2-2,3.5-2.7c1.2-0.8,1.2-2.4,1.5-3.7c0.2-0.9,0.1-1.9,0.8-2.5c1.1-0.5,2.3,0.2,3.5,0.2
			c-0.2-1-0.1-2.3,0.7-3c0.7-0.6,1.6-0.3,2.3,0.1c0.9,0.5,2,0.8,3,1.1c-0.2-0.4-0.6-0.9-0.3-1.4c0.2-0.7,0.9-1.3,0.8-2.2
			c-0.2-0.5-0.9-0.7-1.3-0.4c-0.8,0.3-1.4,1.5-2.4,1.1c-1-0.5-1.9-1.8-1.3-3c0.5-0.9,1.4-1.5,2.4-1.9c0.1,0.1,0.4,0.2,0.5,0.3
			c0.2,0.4,0.1,1.1,0.7,1.1c1.2,0.2,2.6,0.8,3.1,2.1c0.5,0.9-0.1,1.9-0.3,2.9c0.8-0.2,1.7-0.6,2.3-1.2c1.1-1,1.5-2.5,2-3.9
			c-0.8,0.2-1.7,0.3-2.4-0.2c-0.6-0.3-0.9-1-1.2-1.6c-0.6-1.3-1.4-2.4-2.1-3.6C331,325,328.1,326.8,325.1,328.5 M277.8,326.1
			c0.1,2.4,0.5,4.7,0.4,7.1c-0.1,0.4,0.2,0.8,0.5,1c2,0.9,4.4-1.1,4.1-3.3c-0.1-2.1-0.2-4.2-0.4-6.3
			C281,325.1,279.4,325.6,277.8,326.1 M341.1,325.1c0,0.9,0,1.8,0,2.7c0.4,0.1,0.8,0.2,1.2,0.3c0.9-0.8,1.8-1.5,2.7-2.3
			C343.7,325.7,342.4,325.4,341.1,325.1 M268.3,328.1c-1.3,0.1-2.8-0.1-4,0.5c-1.1,0.5-1.9,1.5-2.6,2.6c-3.2,5-6.1,10.1-8.2,15.7
			c-1.6,4-2.5,8.3-3.6,12.5c0.5,0.2,0.6-0.6,0.8-0.9c2.9-6.2,5.5-12.8,9.7-18.3c1.5-1.9,2.9-3.7,4.5-5.5c1.6-1.8,3.7-2.9,5.7-4
			c1.4-0.7,2.8-1.7,4.4-1.7c0.7,0.2,1.2,0.7,1.8,1c-0.2-1.1-0.3-2.2-0.5-3.2C273.6,327.3,270.9,327.9,268.3,328.1 M272.7,336.7
			c0.5-0.7,0.9-1.5,1.6-2.1c0.6-0.5,1.4-0.9,1.8-1.6c0.2-0.4,0.2-0.8,0.2-1.3c0.1-0.1,0.3-0.3,0.4-0.4
			C274.2,331.6,272.9,334.4,272.7,336.7 M283.2,335c1.8,0.7,3.6,2.7,3,4.9c-0.8,0.3-0.6-0.6-0.8-1.1c-0.7-1.6-2.3-2.4-3.5-3.5
			c-0.6,2-1.2,3.9-1.7,5.9c-0.3-0.1-0.8-0.1-0.9-0.5c0-1.5,0.1-3,0.2-4.4c-1.9,0.5-2.8,2.5-3.6,4.1c2.2,0.6,4.3,1.5,6.6,1.7
			c0.6,0.1,1.1-0.2,1.6-0.5c2.1-1.4,3.9-3.1,5.8-4.8c-1.2-0.7-2.4-1.2-3.6-1.9c-0.6-0.3-1.1-0.7-1.8-0.6
			C283.9,334.1,283.6,334.6,283.2,335 M275.6,335.5c-0.7,0.6-1.3,1.4-2,2c0.4,0.5,0.8,1,1.3,1.5c0.9-1.4,1.9-2.7,2.8-4.1
			C276.9,334.9,276.1,335,275.6,335.5 M325.4,338.3c-0.8,0.7-0.6,1.9-0.9,2.9c0.9-0.8,1.8-1.5,2.7-2.3
			C326.6,338.7,326,338.3,325.4,338.3 M318.3,347.3c0.5,2,1.1,4,1.6,6c2.7-1.8,3.3-5.6,2.3-8.6C320.9,345.5,319.6,346.4,318.3,347.3
			 M321.1,354.3c-0.8,0.7-1.7,1.6-1.8,2.7c0,3.1,0,6.2,0,9.3c0,6.2-0.1,12.5,0.2,18.7c0.1,5.7,0,11.4-0.1,17.1c0,0.7,0.2,1.7,1,1.8
			c0.7,0.1,1.5,0.3,2.2,0.2c0.2-0.6,0.1-1.2,0.2-1.8c0.1-1.3,0.6-2.5,1-3.7c1-2.8,2-5.5,2.8-8.3c0.6-2.1,1.5-4.2,1.4-6.5
			c0.1-1.8-0.6-3.5-0.8-5.3c-0.6-3.2-1-6.5-1.4-9.7c-0.6-5.5-1.5-11-2.3-16.5C322.7,352.9,321.9,353.6,321.1,354.3 M341.8,354.7
			c-0.9,0.6-1.5,1.5-1.9,2.4c-0.4,0.8-0.7,1.7-0.4,2.6c0.3,0.5,0.7,0.9,1.3,1c0.6-0.2,1-0.8,0.8-1.4c-0.2-0.9-0.7-1.6-1.1-2.4
			c0.3-0.3,0.7-0.6,1.1-0.7c0.8,0.4,1.4,1.1,1.6,2c0.4,1.2,0,2.4-0.5,3.5c-0.1,0.3,0.4,0.4,0.4,0c1.3-1.7,2-3.9,1.5-6.1
			C344.2,354.4,342.7,354.1,341.8,354.7 M335.3,367.9c-0.6,2.8-1.6,5.5-2.5,8.2c-3.1,8.9-5.9,17.9-8.9,26.8
			c-0.1,0.6-0.8,0.8-1.1,1.2l0,0.1c1.3,0.4,2.9,0.2,3.8-1c1.6-2.9,2.7-6.1,4-9.3c3.6-9.5,7.2-19,11-28.5c-0.8,0.3-1.6,0.6-2.5,0.6
			c-1.2,0-2.3-0.8-3.1-1.6C335.8,365.6,335.6,366.7,335.3,367.9 M327.7,369.9c0.5,3.8,0.9,7.6,1.4,11.3c0.1,0,0.3,0,0.4,0
			c0.4-1.1,0.6-2.2,1-3.2c0.2-0.9,0.7-1.9,0.1-2.7C329.7,373.5,328.8,371.7,327.7,369.9 M271.2,387.5c-0.1,1.2-0.7,2.7,0.2,3.7
			c1.2,0.7,2.6,0.4,3.8,0.4c0.1-1.4,0-2.8,0-4.2C273.9,387.5,272.5,387.5,271.2,387.5 M305.1,401.6c-0.4,1.5-0.4,3.1-0.4,4.6
			c0,0.8,0.2,1.9,1.1,2.1c1.6,0.6,3.3,0.5,4.9,0.6c0.8,0,1.1-0.8,0.9-1.5c-0.4-2.4-0.9-4.9-1.3-7.3c-0.4,0.2-0.8,0.7-1.4,0.6
			c-0.5-0.1-0.6-0.6-0.8-1C306.8,399.6,305.5,400.4,305.1,401.6 M330.7,402.7c-1.4,1.1-2.4,2.7-4,3.6c-2.4,0-4.8-0.4-7.2-0.5
			c0,7.7,0,15.4,0,23.1c1.4-0.3,2.6-1,4-1.5c2.4-1,5-2,6.8-4c1.4-1.5,2-3.7,1.8-5.8c-0.2-2.2-0.3-4.5-0.3-6.7
			C331.5,408.1,331.2,405.4,330.7,402.7 M241.2,422.9c-0.4,1.6-0.9,3.2-1.4,4.9c-1.3,4.6-2.3,9.2-3.2,13.9c2.4-0.9,4.7-2.2,6.6-3.9
			c3.2-2.7,5.6-6.3,7.3-10.1C247.4,426,244.3,424.4,241.2,422.9 M296,424.8c-0.3,1.6-1.6,2.9-3,3.3c-1.7,0.5-3.4,1-5,1.5
			c1.7,5.6,5.9,10.2,10.8,13C298,436.6,297.9,430.5,296,424.8 M240.9,441.1c-1.5,0.9-3.5,1.3-4.6,2.9c-2.4,6.4-3.6,13.2-6.5,19.4
			c-2.1,4.6-3,9.7-5,14.4c-0.7,1.5-1,3.3-0.8,4.9c0.1,2,1,3.9,1.7,5.8c1.3,3.4,2.5,6.7,3.5,10.2c1.3,4.8,2.5,9.7,3.6,14.6
			c1.1,4.8,2.3,9.5,3,14.4c0.5,4.2,1.1,8.3,1.6,12.5c0,0.6,0.4,1.5,1.1,1.3c0.8-0.3,1.6-0.9,2.3-1.3c1.3-0.8,2.9-1.9,3.1-3.6
			c-0.4-7-2.1-13.8-3.4-20.7c-1.1-5.7-1.8-11.5-2.5-17.3c-0.2-2.1-0.6-4.2-0.7-6.3c-0.1-1.4,0.5-2.9,1.6-3.8
			c0.9-0.8,1.4-1.8,1.8-2.9c0.6-1.3,1.3-2.5,2-3.8c2-3.3,3.9-6.7,5.8-10.1c0.9-1.6,1.3-3.4,2.3-5c1.9-3,3.8-5.9,5.8-8.8
			c2.3-3.4,4.2-7.1,6.1-10.7c-3-0.2-5.9-1.2-8.9-2.1c-0.7-0.1-1-0.8-1.3-1.3c1.2-0.5,2.2,0.3,3.3,0.5c5.4,1.5,11.1,1.3,16.6,1
			c2.5-0.2,4.9-0.7,7.1-1.8c1.5-0.7,2.8-1.9,4.2-2.7c-0.2,1.6-1.5,2.8-2.7,3.6c-2.3,1.5-4.9,2.3-7.5,3c4.2,5.8,6.5,12.8,8.9,19.5
			c2.6,6.7,4.7,13.7,7,20.5c1,3.2,1.4,6.8,0.7,10.1c-1,4.7-1.5,9.5-2.2,14.3c-0.4,3.2-0.6,6.5-1.1,9.7c-0.8,4.9-1.8,9.7-2.8,14.6
			c-0.3,1.1,0.3,2.4,1.3,2.7c1.3,0.5,2.8,0.5,4.2,0.5c0.5,0,0.8-0.6,0.9-1.1c1.1-5,2.1-10,3.3-15c2.2-9.9,5.9-19.4,9.5-28.8
			c0.7-1.8,1.6-3.5,2.1-5.4c0.4-1.5,0.4-3.1,0-4.6c-0.5-2-0.8-4-1.1-6c-1.3-10.5-3.1-21-4.7-31.5c-0.2-0.8-0.2-1.9-1.1-2.3
			c-3.9-2.3-7.6-5.3-9.9-9.3c-1.1-1.7-1.7-3.7-2.6-5.5c-1.1,0.1-2.1,0.3-3.1,0.5c1.8,3.3,3.7,6.6,5.6,10c-1.3-0.7-2.4-1.8-3.3-3
			c-1.6-2-2.4-4.5-3.5-6.8c-3.6,0.2-7.1,0.4-10.7,0.5c-5.3,0-10.7-0.4-15.8-1.7c-0.8,1.8-1.6,3.6-2.8,5.2c-0.9,1.3-2.1,2.6-3.6,3
			c1.9-2.7,3.9-5.5,4.8-8.8c-0.6-0.2-1.1-0.4-1.7-0.6C249.7,433.5,246,438.5,240.9,441.1 M264.7,447.2c-2.7,4.8-5.1,9.8-8.3,14.2
			c-3.2,4.5-5.5,9.6-8.2,14.3c-2.3,3.8-4.4,7.6-6.6,11.5c-0.8,1.4-1.7,2.6-2.3,4.1c-0.6,1.5-0.1,3,0.1,4.5
			c1.4,9.1,2.7,18.2,4.1,27.2c0.7,4.5,1.5,9,2.1,13.5c2.1,0.7,4.4,1.9,5.2,4.3c1,2.5,1.7,5.3,0.9,8c0.4,0.3,0.9,0.6,1,1.2
			c0.1,1-0.5,2.1,0,3.1c4.7-2.6,9.9-4.7,15.3-4.4c2.9,0.2,5.8,1,8.4,2.3c0.5-1.2,0.9-2.4,1.3-3.7c0.3-0.9,0-1.9,0.1-2.8
			c0.2-2.4,1.4-4.5,2.6-6.5c0.5-0.8,1.3-1.1,2.2-0.9c-0.7,1.6-1.5,3.2-2.3,4.8c-0.5,1.1-1,2.2-1,3.4c-0.2,2.6,1.1,5.2,3.1,6.8
			c3.6,2.8,7.1,5.7,10.6,8.6c2.9,2.3,5.7,4.9,8.8,7c1.8,1.3,4.1,2,6.3,2.2c2.5,0.2,5.1,0.1,7.6-0.3c1.9-0.3,3.8-0.8,5.7-1.4
			c0.9-0.8,1.2-2.2,1.3-3.4c0.3-1.7,0.2-3.6-0.7-5.1c-1-1.7-2.7-2.5-4.2-3.5c-1.3-0.8-2.9-1.2-4.3-0.7c-0.7,0.2-1.2,0.9-1.9,0.9
			c-1.3,0.3-2.7,0.4-3.6,1.4c-1.7,1.5-3.3,3.3-4.9,5c-0.3-0.2-0.7-0.5-1-0.7c0.9-1.3,1.7-2.8,2.8-3.9c1-1.1,2.2-1.9,3.3-2.9
			c-0.4-0.2-0.9-0.4-1.3-0.6c-0.9-0.3-1.4-1.5-2.5-1.5c-1.3,0.1-2.7,0.6-3.5,1.7c-0.6,0.8-0.5,2.1-1.6,2.4c-1,0.2-1.8-1.2-1.1-2
			c1.5-1.4,3-2.6,4.6-3.9c-0.7-0.8-1.4-1.7-2.5-2c-1-0.2-2.1-0.1-2.9,0.6c-0.7,0.8-1,1.8-1.6,2.7c-0.5,0.4-1.2,0.2-1.7,0.3
			c0-0.7-0.3-1.5,0.3-2.1c0.5-0.6,1-1.3,1.4-2c0.7-1,2.1-1.2,3.2-1.1c-0.6-0.7-1.3-1.4-1.9-2.2c-0.4-0.4-0.7-0.9-1.3-1.1
			c-0.7-0.4-1.6,0.1-2,0.8c-0.7,1.3-1.2,2.8-1.5,4.3c-0.6-0.3-1.2-0.5-1.7-0.9c-0.3-0.7,0-1.4,0.1-2.1c0.5-1.8,1.9-3.2,3.5-4
			c-0.7-0.8-1.5-1.6-2.2-2.4c-0.7,0.4-1.3,0.9-2.1,1.1c-1.3,0.3-2.6,0-3.8-0.3c-1.5-0.3-2.7-1.5-3.2-3c-0.4-1,0-2.1,0.1-3.2
			c1.7-10.7,3.4-21.3,5.1-32c0.4-2.8,1.1-5.6,1.1-8.4c0.1-2.4-0.2-4.9-1.1-7.2c-1.9-4.9-3.4-9.9-5.1-14.8c-3-8.7-5.9-17.7-11-25.4
			C269.6,447.2,267.1,447.1,264.7,447.2z"/>
		<path fill="#2B2B2B" d="M363.9,176.6c0.4-0.1,1,0,1.2,0.4c-0.2,1.9-0.6,3.7-0.9,5.5c-0.1,0.7-0.6,1.1-1,1.6
			c-0.3-0.6-0.8-1.1-0.6-1.8c0.2-1.5,0.5-3,0.8-4.5C363.4,177.4,363.5,176.9,363.9,176.6z"/>
		<path fill="#2B2B2B" d="M262.9,181.9c2.9-0.3,5.9-0.4,8.9-0.5c1.6,0,3.1-0.3,4.6-0.1c0.8,0.2,0.6,1.3,0.6,1.9c-4.4,0-8.8,0-13.1,0
			C263.4,182.9,263.2,182.3,262.9,181.9z"/>
		<path fill="#2B2B2B" d="M257.8,182.8c0.6-0.4,1.3,0,1.9,0.2c0,0.4,0.2,0.9-0.2,1.1c-7.2,4-14.5,7.8-21.3,12.3
			c-5.3,3.4-10.5,6.9-15.9,10c-0.3,0.1-0.6,0.1-1,0c0.1-0.4-0.1-0.9,0.3-1.1c2.4-1.9,5-3.4,7.5-5.1c4.1-2.7,8.2-5.4,12.3-8
			c2.2-1.4,4.5-2.3,6.7-3.7C251.4,186.6,254.6,184.8,257.8,182.8z"/>
		<path fill="#2B2B2B" d="M278.4,183.9c0.4-0.5,1-0.7,1.6-0.9c0,0.6,0.4,1.3-0.1,1.8c-1.8,2-3.6,4-5.4,5.9c-1.1,1.2-2.1,2.6-3.3,3.6
			c-0.2-0.1-0.4-0.3-0.7-0.4c-0.1-0.7,0.1-1.4,0.6-1.8C273.5,189.3,276,186.6,278.4,183.9z"/>
		<path fill="#2B2B2B" d="M289.9,186.3c0.2-0.2,0.4-0.4,0.5-0.6c2.7,1.4,5,3.5,7.3,5.4c6.5,5.3,13,10.6,19.4,16
			c1.8,1.5,3.6,3.1,5.4,4.5c0.9,0.4,1.4,1.3,1.9,2.1c-0.7,0-1.5,0.3-2.1-0.2c-3.4-2.5-6.6-5.3-9.8-8.1c-6.9-6-14-11.7-21.2-17.2
			C290.7,187.8,290,187.2,289.9,186.3z"/>
		<path fill="#2B2B2B" d="M322.4,190.8c0.8-0.1,1.6,0.3,2.2,0.9c1.1,1.2,1.6,2.8,1.8,4.5c-1.2-0.4-2-1.4-2.8-2.5
			C323,192.9,322.4,191.9,322.4,190.8z"/>
		<path fill="#2B2B2B" d="M206.9,193.1c0.9-0.6,2.1-0.3,2.9,0.3c1,0.8,1.1,2.3,1,3.5c-0.3,3.7-0.2,7.4-0.1,11.1
			c0.2,10.9,0.9,21.9,0.3,32.8c-0.3,5.2-0.7,10.5-0.9,15.7c-0.3,4.9-0.1,9.9-0.2,14.8c0.1,1.7-0.1,3.4-0.3,5.1
			c0,0.5-0.5,0.8-0.8,1.2c-0.4-1-0.4-2-0.4-3.1c-0.4-7.8-0.2-15.6,0.4-23.3c0.9-9.3,0.9-18.6,0.6-28c-0.5-9.4,0.1-18.7-0.1-28.1
			C208.5,194.6,207.1,194.3,206.9,193.1z"/>
		<path fill="#2B2B2B" d="M358.5,197.5c0.9-0.2,1.9,0.1,2.6-0.5c3,0.6,6,1,9,1.7c1.6,0.3,3.1,0.9,4.4,1.9c2.2,1.7,3.7,4.2,4.9,6.7
			c2.5,5.1,3.3,11,2.4,16.7c-0.8,4.7-2.4,9.3-5.5,12.9c-3.9,4.7-9.7,7.3-15.5,8.1c-3.2,0.4-6.5,0.4-9.7,0.1
			c-4.4-0.4-8.7-2.5-11.9-5.6c-1.4-1.4-2.1-3.3-2.6-5.2c-0.7-2.6-1.2-5.2-1.2-7.9c-0.1-3.5,0.7-6.9,1.7-10.2
			c1.1-3.4,2.7-6.6,4.8-9.4c1.6-2.1,3.4-4.2,5.8-5.6C351,199.2,354.6,197.6,358.5,197.5 M357.1,199.6c-3.9,0.6-7.7,2.1-10.7,4.7
			c-2.1,1.8-3.5,4.1-4.9,6.5c-1.4,2.4-2.6,5-3.4,7.8c-1,3.5-1.2,7.2-0.7,10.8c0.5,3.1,1.5,6.4,3.6,8.7c1.9,2.2,4.6,3.3,7.3,4.1
			c5.8,1.8,12.1,1.1,17.8-0.8c3.6-1.2,6.8-3.4,9.1-6.5c2.8-3.6,4.3-8.1,4.7-12.7c0.3-2.1,0.1-4.2-0.1-6.2c-0.3-3.3-1.3-6.4-2.9-9.3
			c-1.1-2.1-2.6-4.1-4.7-5.2c-1.4-0.8-2.9-1-4.4-1.4C364.3,199.5,360.6,199.1,357.1,199.6z"/>
		<path fill="#2B2B2B" d="M262.7,199.4c0.4-0.2,0.6,0.4,0.7,0.7c0.1,0.6-0.5,0.8-0.9,1.1c-8.1,4.1-16.4,7.9-24.6,11.9
			c-5.9,2.8-11.7,5.7-17.8,8.1c-0.8,0.3-1.2-0.6-1.2-1.3C233.6,213,248.1,206.2,262.7,199.4z"/>
		<path fill="#2B2B2B" d="M392.4,202.4c2.3-0.5,4.5-1,6.8-1.6c0.2,0.5,0.3,1.1,0.5,1.6c-2.2,1-4.8,1.7-7.1,0.6
			C392.5,202.9,392.4,202.6,392.4,202.4z"/>
		<path fill="#2B2B2B" d="M351.6,205.7c2.2-1.3,4.7-2.2,7.3-2.6c3-0.3,6,0,8.8,1c2.7,0.9,5,2.9,6.4,5.6c1.4,2.6,1.3,5.8,0.7,8.6
			c-0.5,2.2-0.6,4.5-1.7,6.5c-1.3,2.8-2.8,5.4-4.7,7.8c-2.8,3.5-7.2,5.2-11.5,5.4c-3,0-5.9-1.5-8.2-3.5c-2-1.8-3.4-4.4-3.6-7.1
			c-0.6-5.8,2-11.6,6.2-15.3c3-2.7,7-4.4,11-3.9c1.8,0.1,3.6,0.9,5,2.1c1.6,1.3,2.8,3.3,2.7,5.4c-0.1,2.5-0.5,5.1-1.6,7.4
			c-1.1,2.2-3,3.8-4.8,5.5c-2,1.9-5.1,2.3-7.5,1c-1.6-0.9-3.4-1.6-4.5-3.3c-1.3-1.9-1.2-4.5-0.2-6.5c0.8-1.6,2.3-2.8,3.9-3.6
			c1.4-0.7,3-0.5,4.3,0.4c1,0.8,2.3,1.5,2.4,2.9c0.2,1.5,0,3.3-1,4.5c-0.3,0.5-0.9,0.5-1.4,0.4c-0.1-0.3-0.4-0.7-0.2-1.1
			c0.4-0.9,0.9-1.7,1-2.7c0-0.9-0.6-1.6-1.3-2c-1-0.7-2.2-1.5-3.4-0.8c-1.9,1.2-3.6,3.4-3.2,5.8c0.4,1.9,1.8,3.3,3.4,4.1
			c2.1,0.9,4.5,0.7,6.4-0.5c3.6-2.4,5.7-6.8,5.9-11.2c0.1-1.8-0.8-3.5-2.2-4.4c-2.3-1.5-5.1-2.4-7.8-1.6c-2.9,0.9-5.4,2.7-7.4,5
			c-2.3,2.5-3.6,5.9-3.9,9.3c-0.1,1.5-0.2,3.1,0.3,4.5c1.1,3.7,4.5,6.4,8.1,7c2.1,0.2,4.3,0.1,6.2-0.7c2.6-1.1,4.8-3,6.6-5.3
			c0.9-1.1,1.7-2.2,2.2-3.4c1.4-2.9,1.9-6.2,2.5-9.4c0.4-2.2,0.4-4.5-0.5-6.5c-1.1-2.1-3.1-3.6-5.2-4.5c-2.8-1.1-5.8-1.6-8.7-1.1
			c-3.1,0.4-6,1.9-8.5,4c-2.1,1.8-4.1,4-5.3,6.6c-1.2,2.6-1.6,5.5-1.5,8.3c0.1,1.8,0.2,3.7,0.9,5.4c0.7,1.9,1.8,3.7,2,5.7
			c-0.5,0.3-1.2,0-1.4-0.5c-1.7-3.1-3.4-6.5-3.3-10.2c-0.1-1.4,0.3-2.8,0.4-4.2c0.1-2.7,1.1-5.2,2.4-7.4
			C345.9,209.7,348.7,207.5,351.6,205.7z"/>
		<path fill="#2B2B2B" d="M217.5,207c0.4,0.5,1,1,1,1.7c0.1,3.6,0.2,7.1,0.2,10.7c-0.2,0.1-0.4,0.2-0.6,0.3c-1.1-3.4-0.8-7.1-1-10.7
			C216.9,208.2,217.2,207.6,217.5,207z"/>
		<path fill="#2B2B2B" d="M143.4,215.2c0.2-0.6,0.5-1.4,1.2-1.3c3.5,0,7,0.4,10.4,0.2c4.2,0,8.1,1.9,11.9,3.8c2.2,1.1,4.4,2,6.6,3.1
			c2.2,1.1,4.3,2.4,6.5,3.6c6.1,3.2,12.3,6.2,18.4,9.3c0.6,0.3,1.1,1.2,0.6,1.9c-0.4,0.5-1,0.2-1.5,0c-3.6-1.9-7.2-3.9-10.8-5.9
			c-6.6-3.3-13.1-6.8-19.7-10.2c-2.7-1.4-5.4-2.9-8.4-3.3c-4.3-0.5-8.7-0.7-13-1.1c-0.1,0.2-0.2,0.4-0.3,0.6c2.6,4.6,5,9.2,7.2,14
			c0.7,1.5,2.4,1.9,3.8,2.6c7.1,3.5,14.2,7,21.2,10.6c0.6,0.3,0.8,1,1.2,1.6c-0.6,0.1-1.2,0.3-1.7,0.1c-8.4-4-16.6-8.4-25-12.3
			c-0.4-0.2-0.9-0.5-1-1c-1.1-4.3-3.5-8.1-5.7-11.9C144.5,218.1,143.7,216.7,143.4,215.2z"/>
		<path fill="#2B2B2B" d="M317.3,224.6c1.8,0,3.6,0.8,5,1.9c-1.7,0.8-3.5,0-5.1-0.8C317.2,225.4,317.3,225,317.3,224.6z"/>
		<path fill="#2B2B2B" d="M391.7,230.2c0.5-0.2,1-0.6,1.6-0.4c3.7,1.1,7.5,2,11,3.8c4.1,2,8,4.5,12.1,6.6c5.7,3.2,11.5,6.2,17,9.7
			c-0.2,0.4-0.4,1.1-0.9,1.2c-0.4,0.1-0.8-0.1-1.1-0.3c-5.4-3.8-11.3-6.7-17.2-9.6c-2.8-1.4-5.5-3.3-8.3-4.7
			c-3.2-1.6-6.7-2.6-10.1-3.9c-1-0.4-2.1-0.6-3.1-1C392.2,231.3,392,230.7,391.7,230.2z"/>
		<path fill="#2B2B2B" d="M265.8,235.2c1-0.4,1.9-0.9,2.9-1.1c0.7-0.1,0.9,0.8,0.9,1.3c-8.7,4.3-17.4,8.7-26.2,12.9
			c-9.6,4.5-18.9,9.7-29,13c-0.1-0.3-0.3-0.5-0.4-0.8c0.4-0.6,1-1.3,1.7-1.5c4.4-2,8.9-3.8,13.4-5.8c7.7-3.5,15.4-7.1,23-10.9
			C256.7,239.9,261.2,237.5,265.8,235.2z"/>
		<path fill="#2B2B2B" d="M290.3,237.9c0.8-0.3,1.8,0.4,1.7,1.3c-2.1,0.5-4.2,1.1-6.3,1.2c-2.5,0.3-5,0.1-7.5,0.2
			c-1.2,0-2.4,0.2-3.5-0.3c0-0.3,0-0.5,0-0.8c1.4-0.4,2.8-0.8,4.2-0.7C282.7,238.8,286.6,239,290.3,237.9z"/>
		<path fill="#2B2B2B" d="M198.3,238.5c0.3-0.1,0.5-0.2,0.8-0.3c0.3,0.5,0.7,0.9,0.8,1.4c0.1,1.9-0.1,3.7,0,5.6
			c0,2.5-0.1,4.9-0.1,7.4c0,0.9-0.3,1.7-0.7,2.5c-0.2-0.1-0.5-0.1-0.7-0.2C198.3,249.4,198.3,244,198.3,238.5z"/>
		<path fill="#2B2B2B" d="M268.6,240.3c0.7-0.3,1.4-0.8,2.1-1c0.8-0.1,1.3,0.5,1.6,1.2c-16,8.1-32.1,16.3-48.1,24.3
			c-1.2,0.6-2.5,1.3-3.7,1.8c-0.5-0.1-1-0.3-1.1-0.9c3.7-2.1,7.4-4,11.1-6c3.9-2,7.8-4.1,11.8-6c4.1-2,8.2-4.1,12.2-6.2
			C259.2,245.1,263.9,242.7,268.6,240.3z"/>
		<path fill="#2B2B2B" d="M291.8,242.4c0.4-0.9,0.7-1.8,1.5-2.4c0.2,0.5,0.6,1,0.4,1.5c-0.6,1.8-1.2,3.7-2.1,5.3
			c-1.1,2.1-2.3,4.2-3.6,6.2c-0.3,0.5-1,0.5-1.5,0.6C288.3,249.9,290,246.2,291.8,242.4z"/>
		<path fill="#2B2B2B" d="M327.6,241.5c0.5-0.2,1-0.3,1.4-0.3c-0.1,0.6-0.1,1.3-0.6,1.7c-3.8,3.8-7.6,7.5-11.5,11.2
			c-3.1,3-6.2,5.9-9.6,8.5c-1.7,1.4-3.5,2.8-5.2,4.3c-0.5,0.5-1.3,0.6-1.9,0.8c-0.1-0.2-0.2-0.5-0.3-0.7c1.3-1.3,2.5-2.6,3.8-3.7
			c2.8-2.4,5.8-4.6,8.6-7C317.7,251.6,322.6,246.5,327.6,241.5z"/>
		<path fill="#2B2B2B" d="M379.5,249c-0.6-0.7-1.1-1.6-0.7-2.5c1.2,0,1.8,1.1,2.4,1.9c0.6,0.8,1.2,1.6,1.5,2.5
			c-0.4,0.2-0.7,0.4-1.1,0.5C380.4,251.1,380.3,249.8,379.5,249z"/>
		<path fill="#2B2B2B" d="M267.5,264.4c5.4-2.7,10.8-5.4,16.1-8.2c0.4,0.4,0.9,1.1,0.3,1.5c-1.7,1-3.6,1.8-5.3,2.8
			c-2.5,1.3-4.9,2.6-7.5,3.8c-0.7,0.3-1.3,0.8-2,1.1C268.4,265.7,267.9,264.9,267.5,264.4z"/>
		<path fill="#2B2B2B" d="M358.1,258.4c0.4-0.7,1.4-0.3,1.5,0.4c0.2,1.8,0.2,3.7,0.2,5.5c0,3.2,0.2,6.5,0.2,9.7
			c0.2,5.6,0.3,11.2,0.5,16.9c0.1,1.3,0.7,2.6,0.7,3.9c0,0.8-0.9,0.8-1.5,1c-0.5-2.6-0.8-5.2-0.8-7.9c-0.3-6.2-0.5-12.5-0.7-18.7
			C358,265.6,358,262,358.1,258.4z"/>
		<path fill="#2B2B2B" d="M338.6,261.2c0.5-0.5,1.2-0.7,1.9-0.7c-0.6,1.5-1.4,2.9-2.1,4.2c-0.3,0.7-1.1,0.8-1.7,1
			C337,264.1,337.4,262.4,338.6,261.2z"/>
		<path fill="#2B2B2B" d="M219,268.9c0.3,0.3,0.6,0.7,0.7,1.2c0.4,1.7,0.3,3.6,0.3,5.3c-0.2,2.6-0.4,5.2-1,7.7
			C218.3,278.5,218.5,273.6,219,268.9z"/>
		<path fill="#2B2B2B" d="M129,272.8c1.2-1.1,2.9-0.6,4.4-0.8c5.6,0,11.3-0.1,16.9,0.1c1.1,0,2.1,0.5,3.2,0.9
			c-0.1,0.3-0.1,0.5-0.2,0.8c-3.7,0-7.3,0.1-11,0.1c-3.4,0-6.8,0-10.2,0.1c-0.8,0.1-1.6,0.4-2.4,0.1
			C129.3,273.7,129.2,273.2,129,272.8z"/>
		<path fill="#2B2B2B" d="M155.8,274.7c4.3,1.4,8.5,3.3,12.8,5c4.7,1.9,9.4,3.9,14.1,5.7c3.8,1.5,7.7,3,11.5,4.5
			c0.6,0.2,0.8,0.9,1.1,1.4c-0.7,0.2-1.4,0.5-2,0.1c-8.5-3.3-17-6.4-25.3-10.2c-3.8-1.7-7.7-3.1-11.5-4.6c-0.6-0.2-1-0.6-1.2-1.2
			C155.4,275.2,155.6,275,155.8,274.7z"/>
		<path fill="#2B2B2B" d="M130.6,275.4c1.1,0.5,1.9,1.6,2.7,2.5c3,3.3,6,6.7,9,10c1.6,1.9,3.4,3.6,5.1,5.3c-0.3,0.3-0.6,0.7-1.1,0.8
			c-0.5,0.1-0.9-0.3-1.2-0.7c-3.2-3.6-6.3-7.2-9.4-10.8c-1.8-2.2-4-4-5.5-6.4C130.3,275.9,130.4,275.6,130.6,275.4z"/>
		<path fill="#2B2B2B" d="M234.9,279.4c2.6-1.1,5.1-2.4,7.8-3.3c0.2,0.2,0.3,0.5,0.5,0.7c-0.9,0.7-1.7,1.4-2.7,1.9
			c-5.1,2.3-10.3,4.4-15.4,6.6c-0.7,0.4-1.6,0.5-2.3,0.1c0.2-0.6,0.5-1.2,1.2-1.4C227.5,282.6,231.3,281.1,234.9,279.4z"/>
		<path fill="#2B2B2B" d="M275.8,277.7c0.7-0.2,1.3-0.5,2-0.5c2.9,0.3,5.6,1.6,7.7,3.7c0.2,0.4,0,0.8,0.1,1.3
			c-0.6,0.6-1.1,1.2-1.9,1.6c-1.6,1-3.6,1.2-5.5,1.2c-2,0-4-0.2-5.7-1.2c-1.3-0.7-2.1-1.9-3-2.9c-0.3-0.4,0.2-0.8,0.3-1.1
			c0.6,0.6,1,1.3,1.7,1.9c1,0.9,2.2,1.4,3.5,1.6c3,0.5,6.2,0.6,9-0.9c0.4-0.3,0.9-0.4,1.4-0.4c-1.2-0.6-2.3-1.4-3.5-2
			C279.9,278.8,277.7,278.6,275.8,277.7z"/>
		<path fill="#2B2B2B" d="M291.8,281c0.6,0.2,1.3,0.2,1.9,0.6c2.4,1.8,4,4.6,4.8,7.5c0.7,2.3,1.1,4.8,1.3,7.3
			c-0.2,0.1-0.5,0.1-0.7,0.2c-0.6-3.7-1.5-7.5-3.6-10.6c-1-1.7-2.4-3.1-3.9-4.3C291.7,281.4,291.8,281.1,291.8,281z"/>
		<path fill="#2B2B2B" d="M295.7,280.8c1.7,0.3,3.2,1.6,4.1,3.1c1.7,2.6,2.5,6,2.1,9.1c0,0.3-0.2,0.6-0.3,0.9c-0.4-4-1.8-8-4.3-11.1
			C296.9,282.1,296.3,281.5,295.7,280.8z"/>
		<path fill="#2B2B2B" d="M282,291.6c0.7-0.3,1.5-0.2,2.2,0c1.3,2,2.9,4,3.2,6.5c0.1,0.7-0.2,1.4-0.6,2c-1.4-1-1.7-2.8-2.4-4.2
			c-0.3-0.6-0.5-1.3-1.1-1.6c-0.8-0.5-1.6-1-2.4-1.5C281.2,292.3,281.5,291.9,282,291.6z"/>
		<path fill="#2B2B2B" d="M148.7,292.9c0.2-0.8,0.9-1.4,1.7-1c4.1,1.6,8.3,3,12.4,4.6c11.3,4.6,22.6,9.5,34,13.9
			c-0.1,0.6-0.3,1.2-0.8,1.6c-0.4,0-0.8-0.1-1.1-0.2c-5.1-2.2-10.2-4.2-15.3-6.3c-3.9-1.6-7.6-3.3-11.5-4.9c-4.2-1.7-8.5-3.3-12.7-5
			C153.1,294.7,150.9,293.8,148.7,292.9z"/>
		<path fill="#2B2B2B" d="M195.8,297.4c0-1.1-0.1-2.2,0.5-3.2c0.3,0.3,0.7,0.6,1,0.9c0.1,0.7,0.1,1.4,0,2.1c-0.1,0-0.3,0-0.4,0
			c0,3.2,0.1,6.3-0.1,9.5c-0.3,0.2-0.7,0.5-1,0.7c-0.2-0.3-0.5-0.6-0.5-1C195.4,303.4,195.9,300.4,195.8,297.4z"/>
		<path fill="#2B2B2B" d="M262.2,297.6c1.5-1.1,3.7-1,5,0.3c2.1,1.8,2.3,5.2,0.9,7.6c-0.6,0.3-1.3-0.1-1.7-0.5
			c-0.2-0.6,0.1-1.2,0.3-1.8c0.4-1,0.4-2.2-0.3-3c-0.7-1-2.2-1.4-3.2-0.6c-1,0.7-1.4,1.9-2,2.8c-0.4,0.7-1.2,0.7-1.9,0.8
			c-0.1-0.7-0.2-1.5,0.2-2C260.4,299.9,261.1,298.5,262.2,297.6z"/>
		<path fill="#2B2B2B" d="M209.8,298.8c0.3,0,0.6,0,0.8-0.1c0.3,1.9,0.7,3.8,0.7,5.8c-0.3,7.9-0.5,15.9-0.9,23.8
			c-0.1,5.3-1,10.5-1,15.7c-0.1,6.2,0,12.5-0.1,18.7c0,2.4,0.1,4.8-0.1,7.2c-0.2,0-0.5,0-0.7,0c-0.4-3.7-0.9-7.4-0.7-11.1
			c0-14.3,0.8-28.5,1.4-42.8c0.2-3.5,0.3-7.1,0.4-10.6C209.7,303.3,209.5,301.1,209.8,298.8z"/>
		<path fill="#2B2B2B" d="M278.3,301.8c1-0.8,2.5-1.1,3.7-0.4c2,0.9,3,3.5,2.4,5.7c-0.3,1-0.7,2.1-1.3,3c-0.5,0.8-1.9,0-1.6-0.8
			c0.2-1,0.6-2,0.9-3c0.5-1.5-1-3.3-2.5-2.9c-1.8,0.5-2.6,2.4-4.1,3.3c-0.5,0.2-1,0.3-1.6,0.5c-0.1-0.3-0.2-0.5-0.3-0.8
			C275.3,304.8,276.6,303.1,278.3,301.8z"/>
		<path fill="#2B2B2B" d="M294.6,306.4c0.4-0.6,0.8-1.4,1.4-1.8c1.1-0.1,2.2,0.3,3.3,0.5c0,0.3,0,0.6-0.1,0.9
			C297.7,306.1,296.1,306.2,294.6,306.4z"/>
		<path fill="#2B2B2B" d="M267.8,308.2c0.9-0.5,1.9,0.2,2.5,0.9c-0.8,0.4-1.6,0.8-2.4,1.3c0.6,0.6,1.3,1,2,1.6
			c-0.3,0.4-0.6,0.9-1.2,0.8c-0.8-0.2-1.6-0.8-2.1-1.5C266,310.2,266.8,308.8,267.8,308.2z"/>
		<path fill="#2B2B2B" d="M259.6,312.4c0.1-0.3,0.2-0.7,0.6-0.8c0.5-0.1,0.9,0.4,1.2,0.7c1,0.9,2,1.9,3.2,2.5c2,1.1,4.4,1.2,6.6,0.7
			c1.1-0.3,2.3-0.2,3.4-0.1c-0.5,2.1-1.8,3.8-3.2,5.2c-1.7,1.9-3.9,3.4-6.3,4.1c-1.3,0.4-2.9,0.4-4-0.6c-1.4-1.2-2-3.1-2.4-4.9
			c-0.1-0.7-0.4-1.4-0.2-2.1C259,315.5,259.2,314,259.6,312.4 M260.7,314.2c0,2,0,3.9,0,5.9c1.6-0.5,3.3-1.3,5-0.5
			c1,0.4,1.9,1.5,3.1,1.2c1.1-0.7,1.8-1.9,2.5-3c-1.2,0.2-2.5,0.4-3.7,0.2C265,317.5,262.7,315.9,260.7,314.2 M261.7,320.7
			c0.2,0.8,0.3,2,1.2,2.2c1.3,0.2,2.6-0.6,3.8-1.1c0-0.1,0-0.4,0-0.5C265,321.2,263.3,320.9,261.7,320.7z"/>
		<path fill="#2B2B2B" d="M281.2,395.5c0.6-0.8,1.6-1.1,2.5-1.1c0.1,0,0.2,0.1,0.3,0.2c0.6,1.1,0.9,2.4,1.1,3.6
			c0.1,0.8-0.1,1.9-1,2.1c-1.2,0.1-2.2-0.8-3.1-1.5C281,397.6,280.4,396.4,281.2,395.5 M281.1,398c0.8,0.1,1.7,0.3,2.5,0.5
			c-0.1-0.9-0.1-1.7-0.3-2.6C282.6,396.6,281.8,397.3,281.1,398z"/>
		<path fill="#2B2B2B" d="M261.5,396.6c0.9-0.1,1.7-0.4,2.6-0.1c4.6,1.1,9.2,2.4,13.8,3.6c1.6,0.5,3.3,0.7,4.9,1.5
			c-0.1,0.3-0.2,0.6-0.3,0.8c-2.5-0.2-4.9-1-7.4-1.5c-3.6-0.9-7.1-1.8-10.7-2.7C263.3,398,262.5,397.1,261.5,396.6z"/>
		<path fill="#2B2B2B" d="M257.4,397.2c0.8,0,1.6-0.1,2.4-0.2c-0.6,1.5-1,3.2-2,4.5c-1.2,1.3-3.1,2.1-4.8,1.4
			c0.1-0.1,0.2-0.4,0.3-0.6c1.2-0.4,2.6-0.9,3.4-2.1C257.3,399.5,257.4,398.3,257.4,397.2z"/>
		<path fill="#2B2B2B" d="M261.4,402.3c2.2-1.2,4.8-1.6,7.3-1.1c1.5,0.3,2.8,1,3.8,2.2c1.6,2,2.2,4.6,2,7.2
			c-0.4,4.6-4.4,8.6-8.8,8.9c-3.1,0.5-6.6-1.4-7.5-4.6c-0.4-2.1-0.1-4.2-0.1-6.4c0.3-0.3,0.6-0.5,0.8-0.8c0.3,2,0.1,4.1,0.6,6.1
			c0.5,2.2,2.5,3.9,4.7,4.1c1.8,0.2,3.8-0.4,5.2-1.7c1.4-1.2,2.4-2.9,3.1-4.7c0.8-2.3,0-4.7-1.3-6.6c-0.7-1.4-2.2-1.9-3.6-2.2
			c-0.9-0.1-1.8-0.1-2.7,0.1c-2.3,0.7-3.9,2.9-6.2,3.6c-0.1-0.6-0.4-1.3,0-1.8C259.4,403.7,260.4,402.9,261.4,402.3z"/>
		<path fill="#2B2B2B" d="M276,403c0.5-0.1,1-0.3,1.5-0.1c0.5,0.2,0.8,0.8,0.9,1.3c0.7,2.6,0.7,5.5-0.2,8c-0.4,1-0.7,2.3-1.9,2.6
			c0.3-2.4,1-4.8,1-7.2C277.4,406,276.9,404.3,276,403z"/>
		<path fill="#2B2B2B" d="M250.5,403.1c0.3,0.3,0.9,0.5,0.9,1c0.1,2.5-0.2,4.9-0.3,7.4c-0.2,1.4-0.2,2.8-0.3,4.3
			c0,0.5-0.4,0.8-0.7,1.2c-0.2-0.3-0.3-0.6-0.4-0.9c-0.1-3.4,0-6.8,0.3-10.2C250,405,249.9,404,250.5,403.1z"/>
		<path fill="#2B2B2B" d="M255.9,406c0.1-0.7,0.1-1.6,0.9-1.8c0.5-0.3,1.1,0.4,1,0.9c-0.3,2.8-0.7,5.6-1,8.4
			c-0.1,0.8-0.1,1.7-0.7,2.2c-0.4-0.6-0.8-1.3-0.7-2.1C255.4,411.1,255.6,408.5,255.9,406z"/>
		<path fill="#2B2B2B" d="M206.9,404.4c0.2,0,0.5,0,0.6,0c0.7,2.8,0.5,5.7,0.5,8.5c0,6.4,0,12.8-0.1,19.2
			c-0.2,5.5-0.5,11.1-0.5,16.6c0.1,6.6,0.4,13.2,0.7,19.9c0.1,2.9,0.3,5.7,0.2,8.6c0,1.9-0.1,3.8-0.1,5.6c-0.2-0.4-0.4-0.8-0.4-1.3
			c-0.6-6.4-1-12.8-1.3-19.1c-0.4-6.2-0.7-12.5-0.7-18.7c0.1-5.7,0.6-11.4,0.8-17.1c0.1-2.8,0-5.7,0-8.5c-0.1-2.9,0-5.9-0.1-8.8
			C206.7,407.6,206.4,406,206.9,404.4z"/>
		<path fill="#2B2B2B" d="M265.4,404.8c1.4-0.5,3.1-0.3,4.4,0.5c0.7,0.4,1.3,1.1,1.4,1.9c0.6,3.3-1.5,7.1-4.8,7.7
			c-0.7,0.2-1.3-0.2-1.9-0.4c-0.8-0.3-1.7-0.6-2.4-1.2c-0.8-0.8-0.9-2-0.7-3.1C261.8,407.8,263.1,405.4,265.4,404.8 M266.1,406.2
			c-1.5,0.3-2.5,1.8-2.9,3.2c-0.2,0.7-0.5,1.5-0.2,2.3c0.2,0.6,0.8,1,1.4,1.1c1.1,0.3,2.4,0.3,3.4-0.4c1.2-0.9,1.7-2.4,1.8-3.8
			c0.1-0.8-0.1-1.7-0.8-2C268,406.1,267,406,266.1,406.2z"/>
		<path fill="#2B2B2B" d="M284.1,405.4c0.6,0.7,0.7,1.6,0.8,2.4c0.2,2.2,0.1,4.5-0.5,6.7c-0.2,0.7-0.5,1.5-1.1,2
			c0-1.8,0.3-3.6,0.2-5.5C283.6,409.2,283.7,407.3,284.1,405.4z"/>
		<path fill="#2B2B2B" d="M250.6,418.5c0.5-0.3,1.1-0.6,1.6-0.4c4.5,0.8,8.9,1.7,13.4,2.3c4,0.6,8,1,12.1,1.5
			c0.5,0.1,1.2,0.1,1.6,0.6c0.4,0.4,0.3,1.1,0.3,1.6c-7.1-0.9-14.2-1.8-21.2-3c-2.5-0.4-5-0.7-7.3-1.7
			C250.9,419.1,250.8,418.8,250.6,418.5z"/>
		<path fill="#2B2B2B" d="M208.1,504.8c0.1,0,0.4-0.1,0.6-0.1c0,17.2,0,34.4,0,51.6c-0.3,0-0.6,0-0.9,0c0-6-0.3-11.9-0.3-17.9
			C207.3,527.2,207.3,516,208.1,504.8z"/>
		<path fill="#2B2B2B" d="M324.6,565.6c0.3-0.5,0.5-1.3,1.2-1.2c3.5-0.1,7.1-0.4,10.5,0.7c1.3,0.4,2.6,0.5,3.9,0.9
			c1.3,0.3,2.7,0.3,4.1-0.1c1.1-0.4,2,0.3,2.6,1.2c-1.7,0.5-3.5,0.9-5.3,1.2c-3.6-0.6-7-2-10.7-2.3c-1.6-0.2-3.3-0.1-4.9,0.1
			C325.5,566.3,325,565.8,324.6,565.6z"/>
		<path fill="#2B2B2B" d="M202.2,566c1.1-0.1,2.1-0.5,3.1-0.5c0.9,0.1,1.5,0.9,2,1.6c-2.2,0.6-4.5,0.6-6.7,0.9
			c-2.9,0.2-5.8,0.6-8.7,1c-2.4,0.4-4.7,1.5-7,2.3c-3.4,1.1-6.7,2.4-10.2,2.9c-2.9,0.5-5.8,0-8.7-0.4c-0.5,0-0.8-0.5-1.1-0.8
			c0.3-0.2,0.7-0.6,1.1-0.6c2.3-0.1,4.6,0.5,7,0.1c4.1-0.7,8.1-1.9,12.2-2.9c3.3-1,6.4-2.3,9.8-2.9
			C197.3,566.1,199.8,566.4,202.2,566z"/>
	</g>
</g>
</svg>
