<svg xmlns="http://www.w3.org/2000/svg" width="191.582" height="213.898" viewBox="0 0 191.582 213.898">
  <g id="Group_6" data-name="Group 6" transform="translate(-880 -873)">
    <g id="Car_Insurance" data-name="Car Insurance" transform="translate(340.5 627.218)">
      <path id="Shape_1" data-name="Shape 1" d="M539.5,257S642,219.25,695.75,282.25c0,0,62.75,59,21,146.25,0,0,10-65-38.25-72.25,0,0-6-48.25-58.5-58.5,0,0-1.75-41.5-61.75-38,0,0,43.75,21.75,40.25,69,0,0,19.75,2.5,22.5,7L616.75,341s-6-4.75-26-6.25C590.75,334.75,605.5,288.5,539.5,257Z" fill="#008afc" fill-rule="evenodd"/>
      <path id="Shape_2" data-name="Shape 2" d="M545,443.75c-3.75-12.417,5.25-21,5.25-21l99.5-99.5c8.833-2.167,7.083,5.417,7.083,5.417L555.5,430.333C547.333,446,561.667,450.5,561.667,450.5,572.333,454,577.5,446,577.5,446c7.332-.668,5.5,6.167,5.5,6.167-2.5,4.5-10.751,7.083-10.751,7.083a41.436,41.436,0,0,1-5.8.43C547.1,459.68,545,443.75,545,443.75ZM693.167,280,716,257.333s7.332-2.166,6.167,5.834l-22.667,23S695.333,281,693.167,280Z" fill="#008afc"/>
      <path id="Shape_107" data-name="Shape 107" d="M699.18,402.448l-8.855-22.616c-1.666-4.308-5.276-7.989-12.089-7.989H631.761c-6.8,0-10.415,3.681-12.079,7.989l-8.857,22.616c-3.513.445-9.728,4.526-9.728,12.252v28.772h9.962v7.166c0,11.318,17.825,11.187,17.825,0v-7.166l52.876.136.136,7.5c0,11.187,17.045,10.844,17.045-.474v-7.166H708.9V414.7C708.906,406.974,702.688,402.893,699.18,402.448Zm-76.4,23.6a7.8,7.8,0,1,1,7.64-7.792A7.72,7.72,0,0,1,622.781,426.052Zm-2.789-24.137,6.666-17.5c.835-2.5,2.084-4.308,5.006-4.337h46.679c2.91.029,4.161,1.837,5,4.337l6.669,17.5Zm67.229,24.137a7.8,7.8,0,1,1,7.646-7.792A7.718,7.718,0,0,1,687.221,426.052Z" fill="#008afc"/>
    </g>
  </g>
</svg>
